CommonSans-CondensedBlack.ufo
<glyph name="exclam" format="2">
  <advance width="190"/>
  <unicode hex="0021"/>
  <outline>
    <contour>
      <point x="20" y="0" type="line"/>
      <point x="20" y="160" type="line"/>
      <point x="180" y="160" type="line"/>
      <point x="180" y="0" type="line"/>
    </contour>
    <contour>
      <point x="50" y="230" type="line"/>
      <point x="5" y="490" type="line"/>
      <point x="5" y="700" type="line"/>
      <point x="185" y="700" type="line"/>
      <point x="185" y="490" type="line"/>
      <point x="140" y="230" type="line"/>
    </contour>
  </outline>
</glyph>
<glyph name="numbersign" format="2">
  <advance width="779"/>
  <unicode hex="0023"/>
  <outline>
    <contour>
      <point x="65" y="0" type="line"/>
      <point x="256" y="0" type="line"/>
      <point x="401" y="700" type="line"/>
      <point x="214" y="700" type="line"/>
    </contour>
    <contour>
      <point x="357" y="0" type="line"/>
      <point x="548" y="0" type="line"/>
      <point x="693" y="700" type="line"/>
      <point x="506" y="700" type="line"/>
    </contour>
    <contour>
      <point x="61" y="370" type="line"/>
      <point x="752" y="370" type="line"/>
      <point x="752" y="550" type="line"/>
      <point x="61" y="550" type="line"/>
    </contour>
    <contour>
      <point x="24" y="122" type="line"/>
      <point x="715" y="122" type="line"/>
      <point x="715" y="302" type="line"/>
      <point x="24" y="302" type="line"/>
    </contour>
  </outline>
</glyph>
<glyph name="quotesingle" format="2">
  <advance width="180"/>
  <unicode hex="0027"/>
  <outline>
    <contour>
      <point x="19" y="450" type="line"/>
      <point x="161" y="450" type="line"/>
      <point x="170" y="580" type="line"/>
      <point x="170" y="690" type="line"/>
      <point x="10" y="690" type="line"/>
      <point x="10" y="580" type="line"/>
    </contour>
  </outline>
</glyph>
<glyph name="asterisk" format="2">
  <advance width="528"/>
  <unicode hex="002A"/>
  <outline>
    <contour>
      <point x="40" y="727" type="line"/>
      <point x="264" y="664" type="line"/>
      <point x="276" y="680" type="line"/>
      <point x="146" y="873" type="line"/>
    </contour>
    <contour>
      <point x="146" y="471" type="line"/>
      <point x="276" y="664" type="line"/>
      <point x="264" y="681" type="line"/>
      <point x="41" y="617" type="line"/>
    </contour>
    <contour>
      <point x="423" y="492" type="line"/>
      <point x="280" y="675" type="line"/>
      <point x="261" y="669" type="line"/>
      <point x="252" y="437" type="line"/>
    </contour>
    <contour>
      <point x="488" y="762" type="line"/>
      <point x="270" y="682" type="line"/>
      <point x="270" y="662" type="line"/>
      <point x="488" y="582" type="line"/>
    </contour>
    <contour>
      <point x="252" y="907" type="line"/>
      <point x="260" y="675" type="line"/>
      <point x="280" y="669" type="line"/>
      <point x="423" y="851" type="line"/>
    </contour>
  </outline>
</glyph>
<glyph name="comma" format="2">
  <advance width="220"/>
  <unicode hex="002C"/>
  <outline>
    <contour>
      <point x="30" y="-140" type="line"/>
      <point x="144" y="-140" type="line"/>
      <point x="190" y="0" type="line"/>
      <point x="190" y="160" type="line"/>
      <point x="30" y="160" type="line"/>
      <point x="30" y="0" type="line"/>
      <point x="52" y="0" type="line"/>
    </contour>
  </outline>
</glyph>
<glyph name="zero" format="2">
  <advance width="520"/>
  <unicode hex="0030"/>
  <outline>
    <contour>
      <point x="30" y="340" type="curve" smooth="yes"/>
      <point x="30" y="80"/>
      <point x="110" y="-16"/>
      <point x="260" y="-16" type="curve" smooth="yes"/>
      <point x="410" y="-16"/>
      <point x="490" y="80"/>
      <point x="490" y="340" type="curve" smooth="yes"/>
      <point x="490" y="600"/>
      <point x="410" y="696"/>
      <point x="260" y="696" type="curve" smooth="yes"/>
      <point x="110" y="696"/>
      <point x="30" y="600"/>
    </contour>
    <contour>
      <point x="187" y="340" type="curve" smooth="yes"/>
      <point x="187" y="460"/>
      <point x="198" y="551"/>
      <point x="260" y="551" type="curve" smooth="yes"/>
      <point x="322" y="551"/>
      <point x="333" y="460"/>
      <point x="333" y="340" type="curve" smooth="yes"/>
      <point x="333" y="220"/>
      <point x="322" y="129"/>
      <point x="260" y="129" type="curve" smooth="yes"/>
      <point x="198" y="129"/>
      <point x="187" y="220"/>
    </contour>
  </outline>
  <guideline angle="90" x="260" y="0"/>
  <guideline angle="0" x="0" y="340"/>
</glyph>
<glyph name="one" format="2">
  <advance width="320"/>
  <unicode hex="0031"/>
  <outline>
    <contour>
      <point x="10" y="477" type="line"/>
      <point x="65" y="477"/>
      <point x="109" y="488"/>
      <point x="134" y="507" type="curve"/>
      <point x="127" y="517" type="line"/>
      <point x="127" y="0" type="line"/>
      <point x="280" y="0" type="line"/>
      <point x="280" y="680" type="line"/>
      <point x="188" y="680" type="line"/>
      <point x="150" y="646"/>
      <point x="86" y="614"/>
      <point x="10" y="614" type="curve"/>
    </contour>
  </outline>
</glyph>
<glyph name="two" format="2">
  <advance width="506"/>
  <unicode hex="0032"/>
  <outline>
    <contour>
      <point x="58" y="0" type="line"/>
      <point x="468" y="0" type="line"/>
      <point x="468" y="140" type="line"/>
      <point x="137" y="140" type="line"/>
      <point x="188" y="83" type="line"/>
      <point x="276" y="182"/>
      <point x="476" y="331"/>
      <point x="476" y="495" type="curve" smooth="yes"/>
      <point x="476" y="617"/>
      <point x="387" y="696"/>
      <point x="260" y="696" type="curve" smooth="yes"/>
      <point x="131" y="696"/>
      <point x="50" y="613"/>
      <point x="36" y="466" type="curve"/>
      <point x="193" y="466" type="line"/>
      <point x="198" y="519"/>
      <point x="224" y="551"/>
      <point x="263" y="551" type="curve" smooth="yes"/>
      <point x="296" y="551"/>
      <point x="319" y="523"/>
      <point x="319" y="484" type="curve" smooth="yes"/>
      <point x="319" y="374"/>
      <point x="146" y="243"/>
      <point x="58" y="135" type="curve"/>
    </contour>
  </outline>
</glyph>
<glyph name="three" format="2">
  <advance width="507"/>
  <unicode hex="0033"/>
  <outline>
    <contour>
      <point x="20" y="180" type="line"/>
      <point x="36" y="59"/>
      <point x="116" y="-16"/>
      <point x="256" y="-16" type="curve" smooth="yes"/>
      <point x="400" y="-16"/>
      <point x="477" y="69"/>
      <point x="477" y="200" type="curve" smooth="yes"/>
      <point x="477" y="304"/>
      <point x="417" y="376"/>
      <point x="306" y="407" type="curve"/>
      <point x="356" y="362" type="line"/>
      <point x="417" y="389"/>
      <point x="457" y="452"/>
      <point x="457" y="520" type="curve" smooth="yes"/>
      <point x="457" y="630"/>
      <point x="377" y="696"/>
      <point x="251" y="696" type="curve" smooth="yes"/>
      <point x="115" y="696"/>
      <point x="31" y="615"/>
      <point x="20" y="480" type="curve"/>
      <point x="177" y="480" type="line"/>
      <point x="183" y="530"/>
      <point x="209" y="551"/>
      <point x="244" y="551" type="curve" smooth="yes"/>
      <point x="278" y="551"/>
      <point x="300" y="529"/>
      <point x="300" y="495" type="curve" smooth="yes"/>
      <point x="300" y="461"/>
      <point x="282" y="432"/>
      <point x="230" y="432" type="curve" smooth="yes"/>
      <point x="199" y="432" type="line"/>
      <point x="199" y="282" type="line"/>
      <point x="250" y="282" type="line" smooth="yes"/>
      <point x="297" y="282"/>
      <point x="320" y="245"/>
      <point x="320" y="204" type="curve" smooth="yes"/>
      <point x="320" y="157"/>
      <point x="291" y="129"/>
      <point x="249" y="129" type="curve" smooth="yes"/>
      <point x="208" y="129"/>
      <point x="188" y="150"/>
      <point x="177" y="180" type="curve"/>
    </contour>
  </outline>
</glyph>
<glyph name="four" format="2">
  <advance width="503"/>
  <unicode hex="0034"/>
  <outline>
    <contour>
      <point x="20" y="123" type="line"/>
      <point x="493" y="123" type="line"/>
      <point x="493" y="283" type="line"/>
      <point x="75" y="283" type="line"/>
      <point x="145" y="195" type="line"/>
      <point x="379" y="649" type="line"/>
      <point x="280" y="649" type="line"/>
      <point x="280" y="0" type="line"/>
      <point x="433" y="0" type="line"/>
      <point x="433" y="680" type="line"/>
      <point x="236" y="680" type="line"/>
      <point x="20" y="263" type="line"/>
    </contour>
  </outline>
</glyph>
<glyph name="five" format="2">
  <advance width="537"/>
  <unicode hex="0035"/>
  <outline>
    <contour>
      <point x="53" y="180" type="line"/>
      <point x="67" y="62"/>
      <point x="156" y="-16"/>
      <point x="278" y="-16" type="curve" smooth="yes"/>
      <point x="416" y="-16"/>
      <point x="507" y="88"/>
      <point x="507" y="247" type="curve" smooth="yes"/>
      <point x="507" y="396"/>
      <point x="416" y="481"/>
      <point x="305" y="481" type="curve" smooth="yes"/>
      <point x="212" y="481"/>
      <point x="163" y="444"/>
      <point x="129" y="381" type="curve"/>
      <point x="209" y="381" type="line"/>
      <point x="209" y="555" type="line"/>
      <point x="194" y="540" type="line"/>
      <point x="463" y="540" type="line"/>
      <point x="463" y="680" type="line"/>
      <point x="56" y="680" type="line"/>
      <point x="56" y="301" type="line"/>
      <point x="208" y="301" type="line"/>
      <point x="226" y="325"/>
      <point x="242" y="336"/>
      <point x="274" y="336" type="curve" smooth="yes"/>
      <point x="313" y="336"/>
      <point x="350" y="301"/>
      <point x="350" y="238" type="curve" smooth="yes"/>
      <point x="350" y="170"/>
      <point x="324" y="129"/>
      <point x="276" y="129" type="curve" smooth="yes"/>
      <point x="239" y="129"/>
      <point x="219" y="155"/>
      <point x="210" y="180" type="curve"/>
    </contour>
  </outline>
</glyph>
<glyph name="six" format="2">
  <advance width="493"/>
  <unicode hex="0036"/>
  <outline>
    <contour>
      <point x="183" y="221" type="curve" smooth="yes"/>
      <point x="183" y="275"/>
      <point x="208" y="303"/>
      <point x="244" y="303" type="curve" smooth="yes"/>
      <point x="289" y="303"/>
      <point x="306" y="261"/>
      <point x="306" y="221" type="curve" smooth="yes"/>
      <point x="306" y="169"/>
      <point x="284" y="129"/>
      <point x="245" y="129" type="curve" smooth="yes"/>
      <point x="203" y="129"/>
      <point x="183" y="166"/>
    </contour>
    <contour>
      <point x="30" y="268" type="curve" smooth="yes"/>
      <point x="30" y="96"/>
      <point x="116" y="-16"/>
      <point x="248" y="-16" type="curve" smooth="yes"/>
      <point x="377" y="-16"/>
      <point x="463" y="78"/>
      <point x="463" y="220" type="curve" smooth="yes"/>
      <point x="463" y="356"/>
      <point x="398" y="448"/>
      <point x="302" y="448" type="curve" smooth="yes"/>
      <point x="251" y="448"/>
      <point x="213" y="433"/>
      <point x="190" y="401" type="curve"/>
      <point x="187" y="401" type="line"/>
      <point x="194" y="507"/>
      <point x="209" y="546"/>
      <point x="242" y="546" type="curve" smooth="yes"/>
      <point x="263" y="546"/>
      <point x="276" y="529"/>
      <point x="281" y="503" type="curve"/>
      <point x="438" y="503" type="line"/>
      <point x="416" y="626"/>
      <point x="345" y="696"/>
      <point x="241" y="696" type="curve" smooth="yes"/>
      <point x="95" y="696"/>
      <point x="30" y="564"/>
    </contour>
  </outline>
</glyph>
<glyph name="seven" format="2">
  <advance width="560"/>
  <unicode hex="0037"/>
  <outline>
    <contour>
      <point x="49" y="540" type="line"/>
      <point x="510" y="540" type="line"/>
      <point x="510" y="700" type="line"/>
      <point x="49" y="700" type="line"/>
    </contour>
    <contour>
      <point x="90" y="0" type="curve"/>
      <point x="270" y="0" type="line"/>
      <point x="270" y="233"/>
      <point x="365" y="375"/>
      <point x="510" y="540" type="curve"/>
      <point x="510" y="563" type="line"/>
      <point x="330" y="563" type="line"/>
      <point x="230" y="489"/>
      <point x="90" y="304"/>
    </contour>
  </outline>
</glyph>
<glyph name="eight" format="2">
  <advance width="493"/>
  <unicode hex="0038"/>
  <outline>
    <contour>
      <point x="30" y="200" type="curve" smooth="yes"/>
      <point x="30" y="71"/>
      <point x="117" y="-16"/>
      <point x="245" y="-16" type="curve" smooth="yes"/>
      <point x="376" y="-16"/>
      <point x="463" y="71"/>
      <point x="463" y="200" type="curve" smooth="yes"/>
      <point x="463" y="297"/>
      <point x="423" y="348"/>
      <point x="364" y="376" type="curve"/>
      <point x="362" y="364" type="line"/>
      <point x="420" y="386"/>
      <point x="450" y="434"/>
      <point x="450" y="510" type="curve" smooth="yes"/>
      <point x="450" y="622"/>
      <point x="368" y="696"/>
      <point x="245" y="696" type="curve" smooth="yes"/>
      <point x="122" y="696"/>
      <point x="40" y="622"/>
      <point x="40" y="510" type="curve" smooth="yes"/>
      <point x="40" y="437"/>
      <point x="65" y="386"/>
      <point x="118" y="364" type="curve"/>
      <point x="117" y="378" type="line"/>
      <point x="60" y="341"/>
      <point x="30" y="297"/>
    </contour>
    <contour>
      <point x="187" y="209" type="curve" smooth="yes"/>
      <point x="187" y="258"/>
      <point x="209" y="296"/>
      <point x="244" y="296" type="curve" smooth="yes"/>
      <point x="287" y="296"/>
      <point x="306" y="262"/>
      <point x="306" y="209" type="curve" smooth="yes"/>
      <point x="306" y="166"/>
      <point x="291" y="129"/>
      <point x="244" y="129" type="curve" smooth="yes"/>
      <point x="203" y="129"/>
      <point x="187" y="166"/>
    </contour>
    <contour>
      <point x="197" y="499" type="curve" smooth="yes"/>
      <point x="197" y="534"/>
      <point x="217" y="551"/>
      <point x="246" y="551" type="curve" smooth="yes"/>
      <point x="277" y="551"/>
      <point x="293" y="534"/>
      <point x="293" y="499" type="curve" smooth="yes"/>
      <point x="293" y="461"/>
      <point x="268" y="446"/>
      <point x="246" y="446" type="curve" smooth="yes"/>
      <point x="219" y="446"/>
      <point x="197" y="461"/>
    </contour>
  </outline>
</glyph>
<glyph name="nine" format="2">
  <advance width="497"/>
  <unicode hex="0039"/>
  <outline>
    <contour>
      <point x="187" y="473" type="curve" smooth="yes"/>
      <point x="187" y="520"/>
      <point x="209" y="551"/>
      <point x="248" y="551" type="curve" smooth="yes"/>
      <point x="284" y="551"/>
      <point x="310" y="524"/>
      <point x="310" y="473" type="curve" smooth="yes"/>
      <point x="310" y="425"/>
      <point x="281" y="397"/>
      <point x="246" y="397" type="curve" smooth="yes"/>
      <point x="215" y="397"/>
      <point x="187" y="425"/>
    </contour>
    <contour>
      <point x="45" y="172" type="line"/>
      <point x="63" y="59"/>
      <point x="139" y="-16"/>
      <point x="237" y="-16" type="curve" smooth="yes"/>
      <point x="393" y="-16"/>
      <point x="467" y="122"/>
      <point x="467" y="412" type="curve" smooth="yes"/>
      <point x="467" y="584"/>
      <point x="380" y="696"/>
      <point x="246" y="696" type="curve" smooth="yes"/>
      <point x="116" y="696"/>
      <point x="30" y="606"/>
      <point x="30" y="470" type="curve" smooth="yes"/>
      <point x="30" y="329"/>
      <point x="114" y="252"/>
      <point x="204" y="252" type="curve" smooth="yes"/>
      <point x="243" y="252"/>
      <point x="281" y="272"/>
      <point x="303" y="304" type="curve"/>
      <point x="306" y="304" type="line"/>
      <point x="297" y="166"/>
      <point x="284" y="129"/>
      <point x="245" y="129" type="curve" smooth="yes"/>
      <point x="224" y="129"/>
      <point x="207" y="146"/>
      <point x="202" y="172" type="curve"/>
    </contour>
  </outline>
</glyph>
<glyph name="colon" format="2">
  <advance width="240"/>
  <unicode hex="003A"/>
  <outline>
    <contour>
      <point x="40" y="0" type="line"/>
      <point x="200" y="0" type="line"/>
      <point x="200" y="160" type="line"/>
      <point x="40" y="160" type="line"/>
    </contour>
    <contour>
      <point x="40" y="370" type="line"/>
      <point x="200" y="370" type="line"/>
      <point x="200" y="530" type="line"/>
      <point x="40" y="530" type="line"/>
    </contour>
  </outline>
  <guideline angle="0.208347" x="30" y="370"/>
  <guideline angle="90" x="40" y="0"/>
</glyph>
<glyph name="less" format="2">
  <advance width="514"/>
  <unicode hex="003C"/>
  <outline>
    <contour>
      <point x="34" y="270" type="line"/>
      <point x="466" y="70" type="line"/>
      <point x="466" y="210" type="line"/>
      <point x="97" y="381" type="line"/>
      <point x="97" y="291" type="line"/>
      <point x="466" y="460" type="line"/>
      <point x="466" y="600" type="line"/>
      <point x="34" y="400" type="line"/>
    </contour>
  </outline>
</glyph>
<glyph name="equal" format="2">
  <advance width="450"/>
  <unicode hex="003D"/>
  <outline>
    <contour>
      <point x="30" y="130" type="line"/>
      <point x="420" y="130" type="line"/>
      <point x="420" y="270" type="line"/>
      <point x="30" y="270" type="line"/>
    </contour>
    <contour>
      <point x="30" y="345" type="line"/>
      <point x="420" y="345" type="line"/>
      <point x="420" y="485" type="line"/>
      <point x="30" y="485" type="line"/>
    </contour>
  </outline>
</glyph>
<glyph name="question" format="2">
  <advance width="513"/>
  <unicode hex="003F"/>
  <outline>
    <contour>
      <point x="40" y="480" type="curve"/>
      <point x="202" y="480" type="line"/>
      <point x="202" y="521.517"/>
      <point x="225.6" y="550"/>
      <point x="260" y="550" type="curve" smooth="yes"/>
      <point x="291" y="550"/>
      <point x="311" y="527.647"/>
      <point x="311" y="493" type="curve" smooth="yes"/>
      <point x="311" y="399"/>
      <point x="159" y="424"/>
      <point x="159" y="250" type="curve" smooth="yes"/>
      <point x="159" y="210" type="line"/>
      <point x="321" y="210" type="line"/>
      <point x="321" y="250" type="line" smooth="yes"/>
      <point x="321" y="350"/>
      <point x="473" y="380"/>
      <point x="473" y="524" type="curve" smooth="yes"/>
      <point x="473" y="635.6"/>
      <point x="387.806" y="710"/>
      <point x="260.016" y="710" type="curve" smooth="yes"/>
      <point x="128.006" y="710"/>
      <point x="40" y="618"/>
    </contour>
    <contour>
      <point x="159" y="0" type="line"/>
      <point x="321" y="0" type="line"/>
      <point x="321" y="160" type="line"/>
      <point x="159" y="160" type="line"/>
    </contour>
  </outline>
  <guideline angle="90" x="159" y="0"/>
  <guideline angle="90" x="319" y="0"/>
</glyph>
<glyph name="at" format="2">
  <advance width="885"/>
  <unicode hex="0040"/>
  <outline>
    <contour>
      <point x="398.32" y="201.07" type="curve" smooth="yes"/>
      <point x="398.34" y="260.05"/>
      <point x="417.99" y="338.38"/>
      <point x="447" y="338.22" type="curve" smooth="yes"/>
      <point x="463.27" y="338.13"/>
      <point x="479.97" y="321.48"/>
      <point x="484.5" y="302.45" type="curve"/>
      <point x="470.47" y="176.8" type="line" smooth="yes"/>
      <point x="468.44" y="158.65"/>
      <point x="452.87" y="119.25"/>
      <point x="430.92" y="119.15" type="curve" smooth="yes"/>
      <point x="408.8" y="119.04"/>
      <point x="398.3" y="156.15"/>
    </contour>
    <contour>
      <point x="30.3661" y="218.345" type="curve" smooth="yes"/>
      <point x="30.3661" y="-32.6621"/>
      <point x="168.196" y="-200"/>
      <point x="374.941" y="-200" type="curve" smooth="yes"/>
      <point x="443.137" y="-200"/>
      <point x="523.84" y="-182.089"/>
      <point x="576.698" y="-144.723" type="curve"/>
      <point x="549.977" y="-31.6352" type="line"/>
      <point x="505.828" y="-63.3152"/>
      <point x="462.139" y="-69.6852"/>
      <point x="408.525" y="-69.6852" type="curve" smooth="yes"/>
      <point x="272.401" y="-69.6852"/>
      <point x="181.652" y="28.6439"/>
      <point x="181.652" y="215.365" type="curve" smooth="yes"/>
      <point x="181.652" y="410.109"/>
      <point x="283.266" y="539.938"/>
      <point x="435.687" y="539.938" type="curve" smooth="yes"/>
      <point x="595.281" y="539.938"/>
      <point x="701.677" y="445.615"/>
      <point x="701.677" y="304.13" type="curve" smooth="yes"/>
      <point x="701.677" y="235.769"/>
      <point x="670.421" y="123.948"/>
      <point x="635.571" y="123.972" type="curve" smooth="yes"/>
      <point x="613.011" y="123.988"/>
      <point x="605.686" y="158.517"/>
      <point x="605.686" y="192.209" type="curve" smooth="yes"/>
      <point x="605.686" y="218.124"/>
      <point x="608.859" y="255.645"/>
      <point x="614.134" y="288.074" type="curve" smooth="yes"/>
      <point x="637.778" y="433.416" type="line"/>
      <point x="512.294" y="433.416" type="line"/>
      <point x="489.483" y="393.491" type="line"/>
      <point x="505.748" y="393.459" type="line"/>
      <point x="487.725" y="427.738"/>
      <point x="451.06" y="456.607"/>
      <point x="404.843" y="456.607" type="curve" smooth="yes"/>
      <point x="313.649" y="456.607"/>
      <point x="246.617" y="343.23"/>
      <point x="246.617" y="188.164" type="curve" smooth="yes"/>
      <point x="246.617" y="73.1145"/>
      <point x="296.797" y="-3.58515"/>
      <point x="372.066" y="-3.58515" type="curve" smooth="yes"/>
      <point x="438.098" y="-3.58515"/>
      <point x="478.382" y="44.8495"/>
      <point x="507.135" y="117.502" type="curve"/>
      <point x="475.37" y="117.502" type="line"/>
      <point x="474.448" y="110.6"/>
      <point x="474.151" y="103.401"/>
      <point x="474.158" y="97.2169" type="curve" smooth="yes"/>
      <point x="474.241" y="28.6184"/>
      <point x="547.138" y="-3.58515"/>
      <point x="600.839" y="-3.58515" type="curve" smooth="yes"/>
      <point x="753.675" y="-3.58515"/>
      <point x="854.464" y="113.234"/>
      <point x="854.464" y="300.007" type="curve" smooth="yes"/>
      <point x="854.464" y="519.603"/>
      <point x="688.643" y="666"/>
      <point x="439.91" y="666" type="curve" smooth="yes"/>
      <point x="194.184" y="666"/>
      <point x="30.366" y="486.938"/>
    </contour>
  </outline>
</glyph>
<glyph name="A" format="2">
  <advance width="509"/>
  <unicode hex="0041"/>
  <anchor x="255" y="740" name="top"/>
  <anchor x="255" y="640" name="t.ring"/>
  <anchor x="255" y="-40" name="bottom"/>
  <anchor x="434" y="0" name="b.ogonek"/>
  <outline>
    <contour>
      <point x="122" y="135" type="line"/>
      <point x="390" y="135" type="line"/>
      <point x="390" y="275" type="line"/>
      <point x="122" y="275" type="line"/>
    </contour>
    <contour>
      <point x="10" y="0" type="line"/>
      <point x="162" y="0" type="line"/>
      <point x="242" y="348" type="line"/>
      <point x="301" y="634" type="line"/>
      <point x="209" y="634" type="line"/>
      <point x="268" y="348" type="line"/>
      <point x="348" y="0" type="line"/>
      <point x="499" y="0" type="line"/>
      <point x="342" y="680" type="line"/>
      <point x="166" y="680" type="line"/>
    </contour>
  </outline>
  <guideline angle="282.9" x="211" y="634"/>
  <guideline angle="90" x="255" y="0"/>
  <guideline angle="77.0976" x="18" y="0"/>
  <guideline angle="257.1" x="299" y="634"/>
  <guideline angle="282.902" x="334" y="680"/>
</glyph>
<glyph name="B" format="2">
  <advance width="479"/>
  <unicode hex="0042"/>
  <anchor x="228" y="740" name="top"/>
  <anchor x="228" y="-40" name="bottom"/>
  <outline>
    <contour>
      <point x="50" y="0" type="line"/>
      <point x="208" y="0" type="line"/>
      <point x="208" y="680" type="line"/>
      <point x="50" y="680" type="line"/>
    </contour>
    <contour>
      <point x="107" y="0" type="line"/>
      <point x="273" y="0" type="line" smooth="yes"/>
      <point x="387" y="0"/>
      <point x="449" y="67"/>
      <point x="449" y="193" type="curve" smooth="yes"/>
      <point x="449" y="288"/>
      <point x="388" y="361"/>
      <point x="289" y="383" type="curve"/>
      <point x="357" y="295" type="line"/>
      <point x="357" y="417" type="line"/>
      <point x="289" y="326" type="line"/>
      <point x="375" y="347"/>
      <point x="431" y="415"/>
      <point x="431" y="500" type="curve" smooth="yes"/>
      <point x="431" y="617"/>
      <point x="365" y="680"/>
      <point x="244" y="680" type="curve" smooth="yes"/>
      <point x="107" y="680" type="line"/>
      <point x="107" y="530" type="line"/>
      <point x="228" y="530" type="line" smooth="yes"/>
      <point x="251" y="530"/>
      <point x="269" y="506"/>
      <point x="269" y="473" type="curve" smooth="yes"/>
      <point x="269" y="444"/>
      <point x="252" y="422"/>
      <point x="228" y="422" type="curve" smooth="yes"/>
      <point x="107" y="422" type="line"/>
      <point x="107" y="272" type="line"/>
      <point x="225" y="272" type="line" smooth="yes"/>
      <point x="261" y="272"/>
      <point x="287" y="246"/>
      <point x="287" y="210" type="curve" smooth="yes"/>
      <point x="287" y="178"/>
      <point x="260" y="150"/>
      <point x="225" y="150" type="curve" smooth="yes"/>
      <point x="107" y="150" type="line"/>
    </contour>
  </outline>
  <guideline angle="0" x="0" y="42"/>
  <guideline angle="0" x="0" y="654"/>
  <guideline angle="0" x="0" y="382"/>
  <guideline angle="0" x="0" y="360"/>
  <guideline angle="0" x="0" y="160"/>
  <guideline angle="0" x="0" y="520"/>
  <guideline angle="90" x="228" y="0"/>
</glyph>
<glyph name="C" format="2">
  <advance width="540"/>
  <unicode hex="0043"/>
  <anchor x="271" y="740" name="top"/>
  <anchor x="271" y="-60" name="bottom"/>
  <anchor x="255" y="0" name="b.cedilla"/>
  <outline>
    <contour>
      <point x="30" y="340" type="curve" smooth="yes"/>
      <point x="30" y="119"/>
      <point x="129" y="-16"/>
      <point x="293" y="-16" type="curve" smooth="yes"/>
      <point x="413" y="-16"/>
      <point x="495" y="75"/>
      <point x="510" y="218" type="curve"/>
      <point x="352" y="218" type="line"/>
      <point x="345" y="166"/>
      <point x="321" y="129"/>
      <point x="285" y="129" type="curve" smooth="yes"/>
      <point x="225" y="129"/>
      <point x="196" y="212"/>
      <point x="196" y="341" type="curve" smooth="yes"/>
      <point x="196" y="468"/>
      <point x="225" y="551"/>
      <point x="285" y="551" type="curve" smooth="yes"/>
      <point x="323" y="551"/>
      <point x="344" y="518"/>
      <point x="352" y="450" type="curve"/>
      <point x="510" y="450" type="line"/>
      <point x="494" y="600"/>
      <point x="412" y="696"/>
      <point x="287" y="696" type="curve" smooth="yes"/>
      <point x="125" y="696"/>
      <point x="30" y="564"/>
    </contour>
  </outline>
  <guideline angle="90" name="h_1" x="271" y="0"/>
  <guideline angle="90" x="31" y="0"/>
  <guideline angle="90" x="510" y="0"/>
</glyph>
<glyph name="D" format="2">
  <advance width="517"/>
  <unicode hex="0044"/>
  <anchor x="251" y="740" name="top"/>
  <anchor x="251" y="-40" name="bottom"/>
  <anchor x="197" y="0" name="b.cedilla"/>
  <outline>
    <contour>
      <point x="50" y="0" type="line"/>
      <point x="203" y="0" type="line"/>
      <point x="203" y="680" type="line"/>
      <point x="50" y="680" type="line"/>
    </contour>
    <contour>
      <point x="117" y="0" type="line"/>
      <point x="252" y="0" type="line" smooth="yes"/>
      <point x="401" y="0"/>
      <point x="487" y="113"/>
      <point x="487" y="340" type="curve" smooth="yes"/>
      <point x="487" y="564"/>
      <point x="400" y="680"/>
      <point x="252" y="680" type="curve" smooth="yes"/>
      <point x="117" y="680" type="line"/>
      <point x="117" y="540" type="line"/>
      <point x="232" y="540" type="line" smooth="yes"/>
      <point x="298" y="540"/>
      <point x="334" y="499"/>
      <point x="334" y="340" type="curve" smooth="yes"/>
      <point x="334" y="221"/>
      <point x="298" y="140"/>
      <point x="232" y="140" type="curve" smooth="yes"/>
      <point x="117" y="140" type="line"/>
    </contour>
  </outline>
  <guideline angle="90" name="h_1" x="251" y="0"/>
</glyph>
<glyph name="F" format="2">
  <advance width="401"/>
  <unicode hex="0046"/>
  <anchor x="200" y="-40" name="bottom"/>
  <anchor x="200" y="740" name="top"/>
  <outline>
    <contour>
      <point x="50" y="0" type="line"/>
      <point x="203" y="0" type="line"/>
      <point x="203" y="680" type="line"/>
      <point x="50" y="680" type="line"/>
    </contour>
    <contour>
      <point x="83" y="275" type="line"/>
      <point x="333" y="275" type="line"/>
      <point x="333" y="415" type="line"/>
      <point x="83" y="415" type="line"/>
    </contour>
    <contour>
      <point x="83" y="540" type="line"/>
      <point x="363" y="540" type="line"/>
      <point x="363" y="680" type="line"/>
      <point x="83" y="680" type="line"/>
    </contour>
  </outline>
  <guideline angle="90" name="h_1" x="200" y="0"/>
</glyph>
<glyph name="G" format="2">
  <advance width="514"/>
  <unicode hex="0047"/>
  <anchor x="258" y="740" name="top"/>
  <anchor x="258" y="-40" name="bottom"/>
  <outline>
    <contour>
      <point x="30" y="340" type="curve" smooth="yes"/>
      <point x="30" y="123"/>
      <point x="114" y="-16"/>
      <point x="258" y="-16" type="curve" smooth="yes"/>
      <point x="308" y="-16"/>
      <point x="347" y="-2"/>
      <point x="373" y="22" type="curve"/>
      <point x="376" y="0" type="line"/>
      <point x="484" y="0" type="line"/>
      <point x="484" y="350" type="line"/>
      <point x="271" y="350" type="line"/>
      <point x="271" y="230" type="line"/>
      <point x="354" y="230" type="line"/>
      <point x="354" y="219" type="line" smooth="yes"/>
      <point x="354" y="164"/>
      <point x="331" y="129"/>
      <point x="281" y="129" type="curve" smooth="yes"/>
      <point x="218" y="129"/>
      <point x="187" y="212"/>
      <point x="187" y="341" type="curve" smooth="yes"/>
      <point x="187" y="468"/>
      <point x="218" y="551"/>
      <point x="271" y="551" type="curve" smooth="yes"/>
      <point x="308" y="551"/>
      <point x="330" y="521"/>
      <point x="342" y="450" type="curve"/>
      <point x="490" y="450" type="line"/>
      <point x="474" y="600"/>
      <point x="398" y="696"/>
      <point x="271" y="696" type="curve" smooth="yes"/>
      <point x="118" y="696"/>
      <point x="30" y="557"/>
    </contour>
  </outline>
  <guideline angle="90" name="h_1" x="258" y="0"/>
</glyph>
<glyph name="H" format="2">
  <advance width="538"/>
  <unicode hex="0048"/>
  <anchor x="269" y="740" name="top"/>
  <anchor x="269" y="-40" name="bottom"/>
  <anchor x="379" y="0" name="b.cedilla"/>
  <outline>
    <contour>
      <point x="50" y="0" type="line"/>
      <point x="203" y="0" type="line"/>
      <point x="203" y="680" type="line"/>
      <point x="50" y="680" type="line"/>
    </contour>
    <contour>
      <point x="103" y="277" type="line"/>
      <point x="415" y="277" type="line"/>
      <point x="415" y="417" type="line"/>
      <point x="103" y="417" type="line"/>
    </contour>
    <contour>
      <point x="335" y="0" type="line"/>
      <point x="488" y="0" type="line"/>
      <point x="488" y="680" type="line"/>
      <point x="335" y="680" type="line"/>
    </contour>
  </outline>
  <guideline angle="90" name="h_1" x="269" y="0"/>
</glyph>
<glyph name="I" format="2">
  <advance width="253"/>
  <unicode hex="0049"/>
  <anchor x="126" y="740" name="top"/>
  <anchor x="126" y="-40" name="bottom"/>
  <outline>
    <contour>
      <point x="50" y="0" type="line"/>
      <point x="203" y="0" type="line"/>
      <point x="203" y="680" type="line"/>
      <point x="50" y="680" type="line"/>
    </contour>
  </outline>
  <guideline angle="90" x="126" y="0"/>
</glyph>
<glyph name="J" format="2">
  <advance width="319"/>
  <unicode hex="004A"/>
  <anchor x="184" y="740" name="top"/>
  <outline>
    <contour>
      <point x="38" y="0" type="line"/>
      <point x="104" y="0" type="line" smooth="yes"/>
      <point x="203" y="0"/>
      <point x="269" y="63"/>
      <point x="269" y="157" type="curve" smooth="yes"/>
      <point x="269" y="680" type="line"/>
      <point x="111" y="680" type="line"/>
      <point x="111" y="223" type="line" smooth="yes"/>
      <point x="111" y="175"/>
      <point x="96" y="150"/>
      <point x="66" y="150" type="curve" smooth="yes"/>
      <point x="38" y="150" type="line"/>
    </contour>
  </outline>
</glyph>
<glyph name="K" format="2">
  <advance width="568"/>
  <unicode hex="004B"/>
  <anchor x="292" y="-40" name="bottom"/>
  <anchor x="292" y="740" name="top"/>
  <outline>
    <contour>
      <point x="50" y="0" type="line"/>
      <point x="208" y="0" type="line"/>
      <point x="208" y="680" type="line"/>
      <point x="50" y="680" type="line"/>
    </contour>
    <contour>
      <point x="171" y="84" type="line"/>
      <point x="548" y="680" type="line"/>
      <point x="367" y="680" type="line"/>
      <point x="171" y="364" type="line"/>
    </contour>
    <contour>
      <point x="245" y="261" type="line"/>
      <point x="376" y="0" type="line"/>
      <point x="558" y="0" type="line"/>
      <point x="348" y="407" type="line"/>
    </contour>
  </outline>
  <guideline angle="90" name="h_1" x="292" y="0"/>
</glyph>
<glyph name="L" format="2">
  <advance width="383"/>
  <unicode hex="004C"/>
  <anchor x="222" y="740" name="top"/>
  <anchor x="222" y="-40" name="bottom"/>
  <outline>
    <contour>
      <point x="155" y="0" type="line"/>
      <point x="360" y="0" type="line"/>
      <point x="360" y="140" type="line"/>
      <point x="155" y="140" type="line"/>
    </contour>
    <contour>
      <point x="50" y="0" type="line"/>
      <point x="203" y="0" type="line"/>
      <point x="203" y="680" type="line"/>
      <point x="50" y="680" type="line"/>
    </contour>
  </outline>
  <guideline angle="90" name="h_1" x="222" y="0"/>
</glyph>
<glyph name="M" format="2">
  <advance width="720"/>
  <unicode hex="004D"/>
  <anchor x="360" y="740" name="top"/>
  <anchor x="360" y="-40" name="bottom"/>
  <outline>
    <contour>
      <point x="50" y="0" type="line"/>
      <point x="208" y="0" type="line"/>
      <point x="208" y="680" type="line"/>
      <point x="50" y="680" type="line"/>
    </contour>
    <contour>
      <point x="70" y="680" type="line"/>
      <point x="271" y="0" type="line"/>
      <point x="406" y="0" type="line"/>
      <point x="406" y="29"/>
      <point x="362" y="238"/>
      <point x="331" y="335" type="curve" smooth="yes"/>
      <point x="222" y="680" type="line"/>
    </contour>
    <contour>
      <point x="314" y="0" type="curve"/>
      <point x="447" y="0" type="line"/>
      <point x="649" y="680" type="line"/>
      <point x="498" y="680" type="line"/>
      <point x="388" y="335" type="line" smooth="yes"/>
      <point x="358" y="238"/>
      <point x="314" y="29"/>
    </contour>
    <contour>
      <point x="512" y="0" type="line"/>
      <point x="670" y="0" type="line"/>
      <point x="670" y="680" type="line"/>
      <point x="512" y="680" type="line"/>
    </contour>
  </outline>
  <guideline angle="90" x="360" y="0"/>
  <guideline angle="90" name="h_1" x="360" y="0"/>
  <guideline angle="0" x="0" y="335"/>
</glyph>
<glyph name="N" format="2">
  <advance width="579"/>
  <unicode hex="004E"/>
  <anchor x="328" y="740" name="top"/>
  <anchor x="328" y="-40" name="bottom"/>
  <outline>
    <contour>
      <point x="50" y="0" type="line"/>
      <point x="203" y="0" type="line"/>
      <point x="203" y="320" type="line" smooth="yes"/>
      <point x="203" y="341"/>
      <point x="203" y="368"/>
      <point x="200" y="400" type="curve"/>
      <point x="179" y="400" type="line"/>
      <point x="362" y="0" type="line"/>
      <point x="529" y="0" type="line"/>
      <point x="529" y="680" type="line"/>
      <point x="376" y="680" type="line"/>
      <point x="376" y="360" type="line" smooth="yes"/>
      <point x="376" y="339"/>
      <point x="376" y="312"/>
      <point x="379" y="280" type="curve"/>
      <point x="400" y="280" type="line"/>
      <point x="217" y="680" type="line"/>
      <point x="50" y="680" type="line"/>
    </contour>
  </outline>
  <guideline angle="90" x="491" y="0"/>
  <guideline angle="90" x="328" y="0"/>
</glyph>
<glyph name="O" format="2">
  <advance width="572"/>
  <unicode hex="004F"/>
  <anchor x="288" y="740" name="top"/>
  <anchor x="286" y="-40" name="bottom"/>
  <anchor x="370" y="0" name="b.ogonek"/>
  <outline>
    <contour>
      <point x="30" y="340" type="curve" smooth="yes"/>
      <point x="30" y="123"/>
      <point x="124" y="-16"/>
      <point x="287" y="-16" type="curve" smooth="yes"/>
      <point x="448" y="-16"/>
      <point x="542" y="123"/>
      <point x="542" y="340" type="curve" smooth="yes"/>
      <point x="542" y="557"/>
      <point x="448" y="696"/>
      <point x="287" y="696" type="curve" smooth="yes"/>
      <point x="124" y="696"/>
      <point x="30" y="557"/>
    </contour>
    <contour>
      <point x="192" y="340" type="curve" smooth="yes"/>
      <point x="192" y="465"/>
      <point x="218" y="551"/>
      <point x="286" y="551" type="curve" smooth="yes"/>
      <point x="354" y="551"/>
      <point x="380" y="465"/>
      <point x="380" y="340" type="curve" smooth="yes"/>
      <point x="380" y="215"/>
      <point x="349" y="129"/>
      <point x="286" y="129" type="curve" smooth="yes"/>
      <point x="223" y="129"/>
      <point x="192" y="215"/>
    </contour>
  </outline>
  <guideline angle="0" x="0" y="740"/>
  <guideline angle="90" x="286" y="0"/>
</glyph>
<glyph name="P" format="2">
  <advance width="453"/>
  <unicode hex="0050"/>
  <anchor x="205" y="-40" name="bottom"/>
  <anchor x="205" y="740" name="top"/>
  <outline>
    <contour>
      <point x="50" y="0" type="line"/>
      <point x="203" y="0" type="line"/>
      <point x="203" y="680" type="line"/>
      <point x="50" y="680" type="line"/>
    </contour>
    <contour>
      <point x="90" y="220" type="line"/>
      <point x="227" y="220" type="line" smooth="yes"/>
      <point x="337" y="220"/>
      <point x="416" y="297"/>
      <point x="416" y="457" type="curve" smooth="yes"/>
      <point x="416" y="617"/>
      <point x="337" y="680"/>
      <point x="227" y="680" type="curve" smooth="yes"/>
      <point x="90" y="680" type="line"/>
      <point x="90" y="540" type="line"/>
      <point x="227" y="540" type="line" smooth="yes"/>
      <point x="252" y="540"/>
      <point x="278" y="515"/>
      <point x="278" y="459" type="curve" smooth="yes"/>
      <point x="278" y="381"/>
      <point x="252" y="360"/>
      <point x="227" y="360" type="curve" smooth="yes"/>
      <point x="90" y="360" type="line"/>
    </contour>
  </outline>
  <guideline angle="90" name="h_1" x="205" y="0"/>
</glyph>
<glyph name="Q" format="2">
  <advance width="562"/>
  <unicode hex="0051"/>
  <outline>
    <contour>
      <point x="30" y="340" type="curve" smooth="yes"/>
      <point x="30" y="123"/>
      <point x="122" y="-16"/>
      <point x="281" y="-16" type="curve" smooth="yes"/>
      <point x="440" y="-16"/>
      <point x="532" y="123"/>
      <point x="532" y="340" type="curve" smooth="yes"/>
      <point x="532" y="557"/>
      <point x="440" y="696"/>
      <point x="281" y="696" type="curve" smooth="yes"/>
      <point x="122" y="696"/>
      <point x="30" y="557"/>
    </contour>
    <contour>
      <point x="187" y="341" type="curve" smooth="yes"/>
      <point x="187" y="468"/>
      <point x="218" y="551"/>
      <point x="281" y="551" type="curve" smooth="yes"/>
      <point x="344" y="551"/>
      <point x="375" y="468"/>
      <point x="375" y="341" type="curve" smooth="yes"/>
      <point x="375" y="212"/>
      <point x="344" y="129"/>
      <point x="281" y="129" type="curve" smooth="yes"/>
      <point x="218" y="129"/>
      <point x="187" y="212"/>
    </contour>
    <contour>
      <point x="335" y="31" type="line"/>
      <point x="425" y="-89" type="line"/>
      <point x="512" y="23" type="line"/>
      <point x="422" y="142" type="line"/>
    </contour>
    <contour>
      <point x="235" y="173" type="line"/>
      <point x="300" y="85" type="line"/>
      <point x="389" y="194" type="line"/>
      <point x="328" y="276" type="line"/>
    </contour>
  </outline>
  <guideline angle="126.87" x="455" y="90"/>
  <guideline angle="306.87" x="334" y="41"/>
  <guideline angle="126.87" x="506" y="23"/>
  <guideline angle="306.87" x="341" y="31"/>
  <guideline angle="90" x="273" y="0"/>
</glyph>
<glyph name="R" format="2">
  <advance width="453"/>
  <unicode hex="0052"/>
  <anchor x="205" y="740" name="top"/>
  <anchor x="205" y="-40" name="bottom"/>
  <outline>
    <contour>
      <point x="256" y="0" type="line"/>
      <point x="415" y="0" type="line"/>
      <point x="312" y="300" type="line"/>
      <point x="165" y="300" type="line"/>
    </contour>
    <contour>
      <point x="50" y="0" type="line"/>
      <point x="203" y="0" type="line"/>
      <point x="203" y="680" type="line"/>
      <point x="50" y="680" type="line"/>
    </contour>
    <contour>
      <point x="90" y="220" type="line"/>
      <point x="227" y="220" type="line" smooth="yes"/>
      <point x="337" y="220"/>
      <point x="416" y="297"/>
      <point x="416" y="457" type="curve" smooth="yes"/>
      <point x="416" y="617"/>
      <point x="337" y="680"/>
      <point x="227" y="680" type="curve" smooth="yes"/>
      <point x="90" y="680" type="line"/>
      <point x="90" y="540" type="line"/>
      <point x="227" y="540" type="line" smooth="yes"/>
      <point x="252" y="540"/>
      <point x="278" y="515"/>
      <point x="278" y="459" type="curve" smooth="yes"/>
      <point x="278" y="381"/>
      <point x="252" y="360"/>
      <point x="227" y="360" type="curve" smooth="yes"/>
      <point x="90" y="360" type="line"/>
    </contour>
  </outline>
  <guideline angle="90" name="h_1" x="205" y="0"/>
</glyph>
<glyph name="S" format="2">
  <advance width="469"/>
  <unicode hex="0053"/>
  <anchor x="234" y="740" name="top"/>
  <anchor x="234" y="-40" name="bottom"/>
  <anchor x="220" y="0" name="b.cedilla"/>
  <outline>
    <contour>
      <point x="30" y="223" type="line"/>
      <point x="30" y="88"/>
      <point x="113" y="-16"/>
      <point x="249" y="-16" type="curve" smooth="yes"/>
      <point x="366" y="-16"/>
      <point x="439" y="67"/>
      <point x="439" y="197" type="curve" smooth="yes"/>
      <point x="439" y="271"/>
      <point x="403" y="337"/>
      <point x="334" y="388" type="curve" smooth="yes"/>
      <point x="226" y="468" type="line" smooth="yes"/>
      <point x="209" y="480"/>
      <point x="197" y="490"/>
      <point x="197" y="516" type="curve" smooth="yes"/>
      <point x="197" y="536"/>
      <point x="215" y="551"/>
      <point x="234" y="551" type="curve" smooth="yes"/>
      <point x="266" y="551"/>
      <point x="285" y="517"/>
      <point x="285" y="481" type="curve"/>
      <point x="438" y="481" type="line"/>
      <point x="438" y="609"/>
      <point x="358" y="696"/>
      <point x="240" y="696" type="curve" smooth="yes"/>
      <point x="124" y="696"/>
      <point x="44" y="622"/>
      <point x="44" y="516" type="curve" smooth="yes"/>
      <point x="44" y="443"/>
      <point x="66" y="398"/>
      <point x="127" y="352" type="curve" smooth="yes"/>
      <point x="243" y="264" type="line" smooth="yes"/>
      <point x="269" y="245"/>
      <point x="286" y="212"/>
      <point x="286" y="180" type="curve" smooth="yes"/>
      <point x="286" y="149"/>
      <point x="271" y="129"/>
      <point x="240" y="129" type="curve" smooth="yes"/>
      <point x="203" y="129"/>
      <point x="184" y="167"/>
      <point x="184" y="223" type="curve"/>
    </contour>
  </outline>
  <guideline angle="322.869" x="116" y="360"/>
  <guideline angle="143.2" x="357" y="370"/>
  <guideline angle="90" name="h_1" x="234" y="0"/>
</glyph>
<glyph name="T" format="2">
  <advance width="383"/>
  <unicode hex="0054"/>
  <anchor x="192" y="740" name="top"/>
  <anchor x="192" y="-40" name="bottom"/>
  <outline>
    <contour>
      <point x="10" y="540" type="line"/>
      <point x="373" y="540" type="line"/>
      <point x="373" y="680" type="line"/>
      <point x="10" y="680" type="line"/>
    </contour>
    <contour>
      <point x="115" y="0" type="line"/>
      <point x="268" y="0" type="line"/>
      <point x="268" y="680" type="line"/>
      <point x="115" y="680" type="line"/>
    </contour>
  </outline>
  <guideline angle="90" name="h_1" x="192" y="0"/>
  <guideline angle="0" x="0" y="540"/>
</glyph>
<glyph name="U" format="2">
  <advance width="514"/>
  <unicode hex="0055"/>
  <anchor x="258" y="740" name="top"/>
  <anchor x="258" y="-40" name="bottom"/>
  <outline>
    <contour>
      <point x="45" y="210" type="line" smooth="yes"/>
      <point x="45" y="82"/>
      <point x="124" y="-16"/>
      <point x="257" y="-16" type="curve" smooth="yes"/>
      <point x="391" y="-16"/>
      <point x="469" y="82"/>
      <point x="469" y="210" type="curve" smooth="yes"/>
      <point x="469" y="680" type="line"/>
      <point x="316" y="680" type="line"/>
      <point x="316" y="245" type="line" smooth="yes"/>
      <point x="316" y="182"/>
      <point x="303" y="129"/>
      <point x="257" y="129" type="curve" smooth="yes"/>
      <point x="211" y="129"/>
      <point x="199" y="182"/>
      <point x="199" y="245" type="curve" smooth="yes"/>
      <point x="199" y="680" type="line"/>
      <point x="45" y="680" type="line"/>
    </contour>
  </outline>
  <guideline angle="90" name="h_1" x="258" y="0"/>
</glyph>
<glyph name="V" format="2">
  <advance width="509"/>
  <unicode hex="0056"/>
  <anchor x="255" y="-40" name="bottom"/>
  <anchor x="255" y="740" name="top"/>
  <outline>
    <contour>
      <point x="10" y="680" type="line"/>
      <point x="166" y="0" type="line"/>
      <point x="342" y="0" type="line"/>
      <point x="499" y="680" type="line"/>
      <point x="348" y="680" type="line"/>
      <point x="268" y="335" type="line" smooth="yes"/>
      <point x="262" y="311"/>
      <point x="259" y="281"/>
      <point x="256" y="249" type="curve"/>
      <point x="260" y="251" type="line"/>
      <point x="250" y="251" type="line"/>
      <point x="254" y="249" type="line"/>
      <point x="251" y="281"/>
      <point x="247" y="311"/>
      <point x="241" y="335" type="curve" smooth="yes"/>
      <point x="162" y="680" type="line"/>
    </contour>
  </outline>
  <guideline angle="90" name="h_1" x="255" y="0"/>
  <guideline angle="0" x="0" y="335"/>
</glyph>
<glyph name="W" format="2">
  <advance width="847"/>
  <unicode hex="0057"/>
  <anchor x="423" y="740" name="top"/>
  <anchor x="423" y="-40" name="bottom"/>
  <outline>
    <contour>
      <point x="10" y="680" type="line"/>
      <point x="166" y="0" type="line"/>
      <point x="286" y="0" type="line"/>
      <point x="286" y="30"/>
      <point x="265" y="234"/>
      <point x="241" y="335" type="curve" smooth="yes"/>
      <point x="162" y="680" type="line"/>
    </contour>
    <contour>
      <point x="224" y="0" type="curve"/>
      <point x="342" y="0" type="line"/>
      <point x="499" y="680" type="line"/>
      <point x="348" y="680" type="line"/>
      <point x="268" y="335" type="line" smooth="yes"/>
      <point x="244" y="234"/>
      <point x="224" y="30"/>
    </contour>
    <contour>
      <point x="348" y="680" type="line"/>
      <point x="504" y="0" type="line"/>
      <point x="624" y="0" type="line"/>
      <point x="624" y="30"/>
      <point x="603" y="234"/>
      <point x="579" y="335" type="curve" smooth="yes"/>
      <point x="500" y="680" type="line"/>
    </contour>
    <contour>
      <point x="562" y="0" type="curve"/>
      <point x="680" y="0" type="line"/>
      <point x="837" y="680" type="line"/>
      <point x="686" y="680" type="line"/>
      <point x="606" y="335" type="line" smooth="yes"/>
      <point x="582" y="234"/>
      <point x="562" y="30"/>
    </contour>
  </outline>
  <guideline angle="90" name="h_1" x="423" y="0"/>
</glyph>
<glyph name="X" format="2">
  <advance width="510"/>
  <unicode hex="0058"/>
  <anchor x="260" y="740" name="top"/>
  <anchor x="260" y="-40" name="bottom"/>
  <outline>
    <contour>
      <point x="166" y="329" type="line"/>
      <point x="243" y="187" type="line"/>
      <point x="315" y="0" type="line"/>
      <point x="494" y="0" type="line"/>
      <point x="354" y="337" type="line"/>
      <point x="281" y="473" type="line"/>
      <point x="195" y="680" type="line"/>
      <point x="18" y="680" type="line"/>
    </contour>
    <contour>
      <point x="10" y="0" type="line"/>
      <point x="187" y="0" type="line"/>
      <point x="281" y="240" type="line"/>
      <point x="191" y="412" type="line"/>
    </contour>
    <contour>
      <point x="232" y="447" type="line"/>
      <point x="320" y="270" type="line"/>
      <point x="500" y="680" type="line"/>
      <point x="325" y="680" type="line"/>
    </contour>
  </outline>
  <guideline angle="66.2237" x="485" y="680"/>
  <guideline angle="113.753" x="317" y="0"/>
  <guideline angle="113.753" x="478" y="0"/>
  <guideline angle="66.2237" x="324" y="680"/>
  <guideline angle="90" name="h_1" x="260" y="0"/>
</glyph>
<glyph name="Y" format="2">
  <advance width="464"/>
  <unicode hex="0059"/>
  <anchor x="232" y="740" name="top"/>
  <anchor x="232" y="-40" name="bottom"/>
  <outline>
    <contour>
      <point x="155" y="0" type="line"/>
      <point x="308" y="0" type="line"/>
      <point x="308" y="210" type="line"/>
      <point x="467" y="680" type="line"/>
      <point x="315" y="680" type="line"/>
      <point x="224" y="418" type="line"/>
      <point x="239" y="418" type="line"/>
      <point x="152" y="680" type="line"/>
      <point x="-3" y="680" type="line"/>
      <point x="155" y="210" type="line"/>
    </contour>
  </outline>
  <guideline angle="90" x="232" y="0"/>
  <guideline angle="0" x="0" y="680"/>
</glyph>
<glyph name="Z" format="2">
  <advance width="479"/>
  <unicode hex="005A"/>
  <anchor x="250" y="740" name="top"/>
  <anchor x="250" y="-40" name="bottom"/>
  <outline>
    <contour>
      <point x="38" y="0" type="line"/>
      <point x="461" y="0" type="line"/>
      <point x="461" y="140" type="line"/>
      <point x="195" y="140" type="line"/>
      <point x="195" y="34" type="line"/>
      <point x="458" y="603" type="line"/>
      <point x="458" y="680" type="line"/>
      <point x="53" y="680" type="line"/>
      <point x="53" y="540" type="line"/>
      <point x="300" y="540" type="line"/>
      <point x="300" y="646" type="line"/>
      <point x="38" y="77" type="line"/>
    </contour>
  </outline>
  <guideline angle="65.2351" x="46.5" y="80"/>
  <guideline angle="65.2351" x="208.5" y="80"/>
  <guideline angle="90" name="h_1" x="250" y="0"/>
</glyph>
<glyph name="bracketleft" format="2">
  <advance width="460"/>
  <unicode hex="005B"/>
  <outline>
    <contour>
      <point x="70" y="-81" type="line"/>
      <point x="390" y="-81" type="line"/>
      <point x="390" y="59" type="line"/>
      <point x="250" y="59" type="line"/>
      <point x="250" y="640" type="line"/>
      <point x="390" y="640" type="line"/>
      <point x="390" y="780" type="line"/>
      <point x="70" y="780" type="line"/>
    </contour>
  </outline>
</glyph>
<glyph name="asciicircum" format="2">
  <advance width="402"/>
  <unicode hex="005E"/>
  <outline>
    <contour>
      <point x="1" y="400" type="line"/>
      <point x="155" y="400" type="line"/>
      <point x="245" y="628" type="line"/>
      <point x="157" y="628" type="line"/>
      <point x="247" y="400" type="line"/>
      <point x="401" y="400" type="line"/>
      <point x="281" y="680" type="line"/>
      <point x="121" y="680" type="line"/>
    </contour>
  </outline>
</glyph>
<glyph name="grave" format="2">
  <advance width="305"/>
  <unicode hex="0060"/>
  <outline>
    <contour>
      <point x="40" y="710" type="line"/>
      <point x="145" y="530" type="line"/>
      <point x="265" y="530" type="line"/>
      <point x="200" y="710" type="line"/>
    </contour>
  </outline>
  <guideline angle="0" x="0" y="520"/>
  <guideline angle="0" x="0" y="700"/>
</glyph>
<glyph name="a" format="2">
  <advance width="441"/>
  <unicode hex="0061"/>
  <anchor x="224" y="530" name="top"/>
  <anchor x="224" y="-40" name="bottom"/>
  <anchor x="224" y="530" name="t.ring"/>
  <outline>
    <contour>
      <point x="49" y="300" type="curve"/>
      <point x="189" y="300" type="line"/>
      <point x="193" y="335"/>
      <point x="204" y="355"/>
      <point x="224" y="355" type="curve" smooth="yes"/>
      <point x="242" y="355"/>
      <point x="252" y="336"/>
      <point x="252" y="305" type="curve" smooth="yes"/>
      <point x="252" y="61" type="line"/>
      <point x="261" y="0" type="line"/>
      <point x="401" y="0" type="line"/>
      <point x="401" y="289" type="line" smooth="yes"/>
      <point x="401" y="413"/>
      <point x="342" y="476"/>
      <point x="229" y="476" type="curve" smooth="yes"/>
      <point x="119" y="476"/>
      <point x="57" y="413"/>
    </contour>
    <contour>
      <point x="30" y="123" type="curve" smooth="yes"/>
      <point x="30" y="38"/>
      <point x="81" y="-16"/>
      <point x="159" y="-16" type="curve" smooth="yes"/>
      <point x="201" y="-16"/>
      <point x="258" y="23"/>
      <point x="275" y="63" type="curve"/>
      <point x="275" y="167" type="line"/>
      <point x="255" y="126"/>
      <point x="232" y="100"/>
      <point x="214" y="100" type="curve" smooth="yes"/>
      <point x="195" y="100"/>
      <point x="181" y="118"/>
      <point x="181" y="141" type="curve" smooth="yes"/>
      <point x="181" y="168"/>
      <point x="192" y="184"/>
      <point x="212" y="188" type="curve" smooth="yes"/>
      <point x="280" y="202" type="line"/>
      <point x="280" y="290" type="line"/>
      <point x="207" y="281" type="line" smooth="yes"/>
      <point x="94" y="267"/>
      <point x="30" y="210"/>
    </contour>
  </outline>
  <guideline angle="90" x="392" y="0"/>
  <guideline angle="0" x="0" y="314"/>
  <guideline angle="0" x="0" y="470"/>
  <guideline angle="90" name="h_1" x="224" y="0"/>
</glyph>
<glyph name="b" format="2">
  <advance width="443"/>
  <unicode hex="0062"/>
  <anchor x="238" y="740" name="top"/>
  <anchor x="238" y="-40" name="bottom"/>
  <outline>
    <contour>
      <point x="40" y="0" type="line"/>
      <point x="161" y="0" type="line"/>
      <point x="184" y="33" type="line"/>
      <point x="184" y="421" type="line"/>
      <point x="187" y="428"/>
      <point x="188" y="434"/>
      <point x="188" y="441" type="curve" smooth="yes"/>
      <point x="188" y="700" type="line"/>
      <point x="40" y="700" type="line"/>
    </contour>
    <contour>
      <point x="166" y="33" type="line"/>
      <point x="186" y="33" type="line"/>
      <point x="201" y="7"/>
      <point x="241" y="-16"/>
      <point x="278" y="-16" type="curve" smooth="yes"/>
      <point x="357" y="-16"/>
      <point x="413" y="71"/>
      <point x="413" y="231" type="curve" smooth="yes"/>
      <point x="413" y="391"/>
      <point x="358" y="476"/>
      <point x="280" y="476" type="curve" smooth="yes"/>
      <point x="241" y="476"/>
      <point x="204" y="457"/>
      <point x="188" y="421" type="curve"/>
      <point x="166" y="421" type="line"/>
    </contour>
    <contour>
      <point x="184" y="226" type="curve" smooth="yes"/>
      <point x="184" y="232" type="line" smooth="yes"/>
      <point x="184" y="292"/>
      <point x="199" y="326"/>
      <point x="226" y="326" type="curve" smooth="yes"/>
      <point x="251" y="326"/>
      <point x="265" y="291"/>
      <point x="265" y="231" type="curve" smooth="yes"/>
      <point x="265" y="171"/>
      <point x="250" y="134"/>
      <point x="226" y="134" type="curve" smooth="yes"/>
      <point x="200" y="134"/>
      <point x="184" y="169"/>
    </contour>
  </outline>
  <guideline angle="90" name="h_1" x="238" y="0"/>
  <guideline angle="90" x="188" y="0"/>
  <guideline angle="90" x="40" y="0"/>
</glyph>
<glyph name="c" format="2">
  <advance width="406"/>
  <unicode hex="0063"/>
  <anchor x="214" y="530" name="top"/>
  <anchor x="214" y="-40" name="bottom"/>
  <anchor x="178" y="0" name="b.cedilla"/>
  <outline>
    <contour>
      <point x="30" y="230" type="curve" smooth="yes"/>
      <point x="30" y="72"/>
      <point x="94" y="-16"/>
      <point x="208" y="-16" type="curve" smooth="yes"/>
      <point x="302" y="-16"/>
      <point x="376" y="69"/>
      <point x="376" y="185" type="curve"/>
      <point x="240" y="185" type="line"/>
      <point x="240" y="154"/>
      <point x="229" y="132"/>
      <point x="214" y="132" type="curve" smooth="yes"/>
      <point x="190" y="132"/>
      <point x="182" y="157"/>
      <point x="182" y="231" type="curve" smooth="yes"/>
      <point x="182" y="306"/>
      <point x="189" y="328"/>
      <point x="214" y="328" type="curve" smooth="yes"/>
      <point x="230" y="328"/>
      <point x="240" y="311"/>
      <point x="240" y="285" type="curve"/>
      <point x="376" y="285" type="line"/>
      <point x="376" y="400"/>
      <point x="306" y="476"/>
      <point x="209" y="476" type="curve" smooth="yes"/>
      <point x="96" y="476"/>
      <point x="30" y="385"/>
    </contour>
  </outline>
  <guideline angle="90" name="h_1" x="214" y="0"/>
</glyph>
<glyph name="d" format="2">
  <advance width="443"/>
  <unicode hex="0064"/>
  <anchor x="195" y="740" name="top"/>
  <anchor x="195" y="-40" name="bottom"/>
  <anchor x="142" y="0" name="b.cedilla"/>
  <outline>
    <contour>
      <point x="30" y="231" type="curve" smooth="yes"/>
      <point x="30" y="391"/>
      <point x="85" y="476"/>
      <point x="162" y="476" type="curve" smooth="yes"/>
      <point x="202" y="476"/>
      <point x="239" y="457"/>
      <point x="255" y="421" type="curve"/>
      <point x="267" y="421" type="line"/>
      <point x="267" y="33" type="line"/>
      <point x="258" y="33" type="line"/>
      <point x="244" y="7"/>
      <point x="200" y="-16"/>
      <point x="163" y="-16" type="curve" smooth="yes"/>
      <point x="86" y="-16"/>
      <point x="30" y="71"/>
    </contour>
    <contour>
      <point x="178" y="231" type="curve" smooth="yes"/>
      <point x="178" y="171"/>
      <point x="193" y="134"/>
      <point x="217" y="134" type="curve" smooth="yes"/>
      <point x="243" y="134"/>
      <point x="259" y="169"/>
      <point x="259" y="226" type="curve" smooth="yes"/>
      <point x="259" y="232" type="line" smooth="yes"/>
      <point x="259" y="292"/>
      <point x="244" y="326"/>
      <point x="217" y="326" type="curve" smooth="yes"/>
      <point x="192" y="326"/>
      <point x="178" y="291"/>
    </contour>
    <contour>
      <point x="259" y="33" type="line"/>
      <point x="259" y="421" type="line"/>
      <point x="256" y="428"/>
      <point x="255" y="434"/>
      <point x="255" y="441" type="curve" smooth="yes"/>
      <point x="255" y="700" type="line"/>
      <point x="403" y="700" type="line"/>
      <point x="403" y="0" type="line"/>
      <point x="282" y="0" type="line"/>
    </contour>
  </outline>
  <guideline angle="90" name="h_1" x="195" y="0"/>
</glyph>
<glyph name="e" format="2">
  <advance width="465"/>
  <unicode hex="0065"/>
  <anchor x="237" y="530" name="top"/>
  <anchor x="237" y="-40" name="bottom"/>
  <anchor x="319" y="-0" name="b.ogonek"/>
  <anchor x="211" y="0" name="b.cedilla"/>
  <outline>
    <contour>
      <point x="30" y="240" type="curve" smooth="yes"/>
      <point x="30" y="77"/>
      <point x="102" y="-16"/>
      <point x="237" y="-16" type="curve" smooth="yes"/>
      <point x="337" y="-16"/>
      <point x="403" y="37"/>
      <point x="431" y="144" type="curve"/>
      <point x="276" y="144" type="line"/>
      <point x="268" y="130"/>
      <point x="252" y="120"/>
      <point x="235" y="120" type="curve" smooth="yes"/>
      <point x="200" y="120"/>
      <point x="178" y="165"/>
      <point x="178" y="236" type="curve" smooth="yes"/>
      <point x="178" y="298"/>
      <point x="197" y="330"/>
      <point x="235" y="330" type="curve" smooth="yes"/>
      <point x="258" y="330"/>
      <point x="277" y="311"/>
      <point x="282" y="283" type="curve"/>
      <point x="99" y="283" type="line"/>
      <point x="99" y="193" type="line"/>
      <point x="435" y="193" type="line"/>
      <point x="435" y="241" type="line" smooth="yes"/>
      <point x="435" y="389"/>
      <point x="357" y="476"/>
      <point x="237" y="476" type="curve" smooth="yes"/>
      <point x="110" y="476"/>
      <point x="30" y="384"/>
    </contour>
  </outline>
  <guideline angle="0" x="0" y="476"/>
  <guideline angle="90" name="h_1" x="237" y="0"/>
</glyph>
<glyph name="f" format="2">
  <advance width="317"/>
  <unicode hex="0066"/>
  <anchor x="240" y="-40" name="bottom"/>
  <anchor x="174" y="740" name="top"/>
  <outline>
    <contour>
      <point x="82" y="0" type="line"/>
      <point x="231" y="0" type="line"/>
      <point x="231" y="500" type="line" smooth="yes"/>
      <point x="231" y="545"/>
      <point x="239" y="574"/>
      <point x="284" y="574" type="curve" smooth="yes"/>
      <point x="318" y="574" type="line"/>
      <point x="318" y="700" type="line"/>
      <point x="284" y="700" type="line" smooth="yes"/>
      <point x="166" y="700"/>
      <point x="82" y="642"/>
      <point x="82" y="500" type="curve" smooth="yes"/>
    </contour>
    <contour>
      <point x="26" y="340" type="line"/>
      <point x="294" y="340" type="line"/>
      <point x="294" y="460" type="line"/>
      <point x="26" y="460" type="line"/>
    </contour>
  </outline>
  <guideline angle="90" name="h_1" x="174" y="0"/>
</glyph>
<glyph name="g" format="2">
  <advance width="444"/>
  <unicode hex="0067"/>
  <anchor x="227" y="530" name="top"/>
  <outline>
    <contour>
      <point x="34" y="-30" type="line"/>
      <point x="49" y="-136"/>
      <point x="115" y="-200"/>
      <point x="209" y="-200" type="curve" smooth="yes"/>
      <point x="323" y="-200"/>
      <point x="404" y="-118"/>
      <point x="404" y="-3" type="curve" smooth="yes"/>
      <point x="404" y="0" type="line"/>
      <point x="256" y="0" type="line"/>
      <point x="256" y="-6" type="line" smooth="yes"/>
      <point x="256" y="-62"/>
      <point x="245" y="-80"/>
      <point x="219" y="-80" type="curve" smooth="yes"/>
      <point x="203" y="-80"/>
      <point x="190" y="-64"/>
      <point x="181" y="-30" type="curve"/>
    </contour>
    <contour>
      <point x="30" y="231" type="curve" smooth="yes"/>
      <point x="30" y="71"/>
      <point x="84" y="-16"/>
      <point x="177" y="-16" type="curve" smooth="yes"/>
      <point x="209" y="-16"/>
      <point x="241" y="4"/>
      <point x="255" y="33" type="curve"/>
      <point x="267" y="33" type="line"/>
      <point x="267" y="421" type="line"/>
      <point x="255" y="421" type="line"/>
      <point x="236" y="457"/>
      <point x="213" y="476"/>
      <point x="177" y="476" type="curve" smooth="yes"/>
      <point x="84" y="476"/>
      <point x="30" y="391"/>
    </contour>
    <contour>
      <point x="178" y="231" type="curve" smooth="yes"/>
      <point x="178" y="291"/>
      <point x="192" y="326"/>
      <point x="217" y="326" type="curve" smooth="yes"/>
      <point x="244" y="326"/>
      <point x="259" y="292"/>
      <point x="259" y="232" type="curve" smooth="yes"/>
      <point x="259" y="226" type="line" smooth="yes"/>
      <point x="259" y="169"/>
      <point x="243" y="134"/>
      <point x="217" y="134" type="curve" smooth="yes"/>
      <point x="193" y="134"/>
      <point x="178" y="171"/>
    </contour>
    <contour>
      <point x="256" y="0" type="line"/>
      <point x="404" y="0" type="line"/>
      <point x="404" y="459" type="line"/>
      <point x="277" y="459" type="line"/>
      <point x="259" y="419" type="line"/>
      <point x="259" y="33" type="line"/>
      <point x="256" y="12" type="line"/>
    </contour>
  </outline>
  <guideline angle="90" name="h_1" x="227" y="0"/>
</glyph>
<glyph name="h" format="2">
  <advance width="464"/>
  <unicode hex="0068"/>
  <anchor x="238" y="-40" name="bottom"/>
  <anchor x="238" y="740" name="top"/>
  <anchor x="322" y="0" name="b.cedilla"/>
  <outline>
    <contour>
      <point x="40" y="0" type="line"/>
      <point x="188" y="0" type="line"/>
      <point x="188" y="700" type="line"/>
      <point x="40" y="700" type="line"/>
    </contour>
    <contour>
      <point x="135" y="200" type="line"/>
      <point x="188" y="200" type="line"/>
      <point x="188" y="300"/>
      <point x="215" y="331"/>
      <point x="238" y="331" type="curve" smooth="yes"/>
      <point x="261" y="331"/>
      <point x="276" y="318"/>
      <point x="276" y="284" type="curve" smooth="yes"/>
      <point x="276" y="0" type="line"/>
      <point x="424" y="0" type="line"/>
      <point x="424" y="334" type="line" smooth="yes"/>
      <point x="424" y="427"/>
      <point x="367" y="476"/>
      <point x="299" y="476" type="curve" smooth="yes"/>
      <point x="228" y="476"/>
      <point x="176" y="433"/>
      <point x="151" y="338" type="curve"/>
      <point x="199" y="338" type="line"/>
      <point x="199" y="427" type="line"/>
      <point x="135" y="427" type="line"/>
    </contour>
  </outline>
  <guideline angle="90" name="h_1" x="238" y="0"/>
</glyph>
<glyph name="k" format="2">
  <advance width="467"/>
  <unicode hex="006B"/>
  <anchor x="240" y="-40" name="bottom"/>
  <anchor x="271" y="740" name="top"/>
  <outline>
    <contour>
      <point x="141" y="36" type="line"/>
      <point x="424" y="460" type="line"/>
      <point x="247" y="460" type="line"/>
      <point x="141" y="302" type="line"/>
    </contour>
    <contour>
      <point x="178" y="183" type="line"/>
      <point x="280" y="0" type="line"/>
      <point x="457" y="0" type="line"/>
      <point x="275" y="327" type="line"/>
    </contour>
    <contour>
      <point x="40" y="0" type="line"/>
      <point x="189" y="0" type="line"/>
      <point x="189" y="700" type="line"/>
      <point x="40" y="700" type="line"/>
    </contour>
  </outline>
  <guideline angle="90" name="h_1" x="271" y="0"/>
</glyph>
<glyph name="l" format="2">
  <advance width="228"/>
  <unicode hex="006C"/>
  <anchor x="114" y="-40" name="bottom"/>
  <anchor x="114" y="740" name="top"/>
  <outline>
    <contour>
      <point x="40" y="0" type="line"/>
      <point x="188" y="0" type="line"/>
      <point x="188" y="700" type="line"/>
      <point x="40" y="700" type="line"/>
    </contour>
  </outline>
  <guideline angle="90" name="h_1" x="114" y="0"/>
</glyph>
<glyph name="m" format="2">
  <advance width="644"/>
  <unicode hex="006D"/>
  <anchor x="322" y="-40" name="bottom"/>
  <anchor x="322" y="530" name="top"/>
  <outline>
    <contour>
      <point x="350" y="240" type="line"/>
      <point x="396" y="240" type="line"/>
      <point x="396" y="322"/>
      <point x="415" y="331"/>
      <point x="432" y="331" type="curve" smooth="yes"/>
      <point x="449" y="331"/>
      <point x="456" y="309"/>
      <point x="456" y="275" type="curve" smooth="yes"/>
      <point x="456" y="0" type="line"/>
      <point x="604" y="0" type="line"/>
      <point x="604" y="367" type="line" smooth="yes"/>
      <point x="604" y="436"/>
      <point x="563" y="476"/>
      <point x="495" y="476" type="curve" smooth="yes"/>
      <point x="432" y="476"/>
      <point x="384" y="418"/>
      <point x="363" y="338" type="curve"/>
      <point x="405" y="338" type="line"/>
      <point x="405" y="407" type="line"/>
      <point x="350" y="407" type="line"/>
    </contour>
    <contour>
      <point x="142" y="240" type="line"/>
      <point x="188" y="240" type="line"/>
      <point x="188" y="322"/>
      <point x="202" y="331"/>
      <point x="223" y="331" type="curve" smooth="yes"/>
      <point x="241" y="331"/>
      <point x="248" y="313"/>
      <point x="248" y="275" type="curve" smooth="yes"/>
      <point x="248" y="0" type="line"/>
      <point x="396" y="0" type="line"/>
      <point x="396" y="367" type="line" smooth="yes"/>
      <point x="396" y="424"/>
      <point x="369" y="476"/>
      <point x="289" y="476" type="curve" smooth="yes"/>
      <point x="234" y="476"/>
      <point x="181" y="419"/>
      <point x="157" y="342" type="curve"/>
      <point x="194" y="342" type="line"/>
      <point x="194" y="351" type="line"/>
      <point x="142" y="351" type="line"/>
    </contour>
    <contour>
      <point x="40" y="0" type="line"/>
      <point x="188" y="0" type="line"/>
      <point x="188" y="407" type="line"/>
      <point x="184" y="407" type="line"/>
      <point x="168" y="460" type="line"/>
      <point x="40" y="460" type="line"/>
    </contour>
  </outline>
  <guideline angle="90" name="h_1" x="322" y="0"/>
</glyph>
<glyph name="n" format="2">
  <advance width="470"/>
  <unicode hex="006E"/>
  <anchor x="237" y="540" name="top"/>
  <anchor x="237" y="-50" name="bottom"/>
  <outline>
    <contour>
      <point x="40" y="0" type="line"/>
      <point x="188" y="0" type="line"/>
      <point x="188" y="420" type="line"/>
      <point x="184" y="420" type="line"/>
      <point x="168" y="460" type="line"/>
      <point x="40" y="460" type="line"/>
    </contour>
    <contour>
      <point x="135" y="200" type="line"/>
      <point x="188" y="200" type="line"/>
      <point x="188" y="300"/>
      <point x="216" y="331"/>
      <point x="243" y="331" type="curve" smooth="yes"/>
      <point x="267" y="331"/>
      <point x="282" y="318"/>
      <point x="282" y="284" type="curve" smooth="yes"/>
      <point x="282" y="0" type="line"/>
      <point x="430" y="0" type="line"/>
      <point x="430" y="334" type="line" smooth="yes"/>
      <point x="430" y="427"/>
      <point x="372" y="476"/>
      <point x="304" y="476" type="curve" smooth="yes"/>
      <point x="229" y="476"/>
      <point x="176" y="433"/>
      <point x="151" y="338" type="curve"/>
      <point x="199" y="338" type="line"/>
      <point x="199" y="378" type="line"/>
      <point x="135" y="378" type="line"/>
    </contour>
  </outline>
  <guideline angle="90" name="h_1" x="237" y="0"/>
</glyph>
<glyph name="o" format="2">
  <advance width="466"/>
  <unicode hex="006F"/>
  <anchor x="233" y="540" name="top"/>
  <anchor x="237" y="-50" name="bottom"/>
  <anchor x="233" y="0" name="b.ogonek"/>
  <outline>
    <contour>
      <point x="30" y="230" type="curve" smooth="yes"/>
      <point x="30" y="76"/>
      <point x="106" y="-16"/>
      <point x="233" y="-16" type="curve" smooth="yes"/>
      <point x="358" y="-16"/>
      <point x="436" y="78"/>
      <point x="436" y="230" type="curve" smooth="yes"/>
      <point x="436" y="384"/>
      <point x="360" y="476"/>
      <point x="233" y="476" type="curve" smooth="yes"/>
      <point x="108" y="476"/>
      <point x="30" y="382"/>
    </contour>
    <contour>
      <point x="178" y="230" type="curve" smooth="yes"/>
      <point x="178" y="291"/>
      <point x="199" y="330"/>
      <point x="233" y="330" type="curve" smooth="yes"/>
      <point x="266" y="330"/>
      <point x="288" y="290"/>
      <point x="288" y="230" type="curve" smooth="yes"/>
      <point x="288" y="169"/>
      <point x="267" y="130"/>
      <point x="233" y="130" type="curve" smooth="yes"/>
      <point x="200" y="130"/>
      <point x="178" y="170"/>
    </contour>
  </outline>
  <guideline angle="90" x="233" y="0"/>
</glyph>
<glyph name="p" format="2">
  <advance width="443"/>
  <unicode hex="0070"/>
  <anchor x="204" y="-40" name="bottom"/>
  <anchor x="204" y="530" name="top"/>
  <outline>
    <contour>
      <point x="40" y="-200" type="line"/>
      <point x="188" y="-200" type="line"/>
      <point x="188" y="12" type="line"/>
      <point x="185" y="33" type="line"/>
      <point x="185" y="421" type="line"/>
      <point x="167" y="460" type="line"/>
      <point x="40" y="460" type="line"/>
    </contour>
    <contour>
      <point x="166" y="33" type="line"/>
      <point x="186" y="33" type="line"/>
      <point x="201" y="7"/>
      <point x="241" y="-16"/>
      <point x="278" y="-16" type="curve" smooth="yes"/>
      <point x="357" y="-16"/>
      <point x="413" y="71"/>
      <point x="413" y="231" type="curve" smooth="yes"/>
      <point x="413" y="391"/>
      <point x="358" y="476"/>
      <point x="280" y="476" type="curve" smooth="yes"/>
      <point x="241" y="476"/>
      <point x="204" y="457"/>
      <point x="188" y="421" type="curve"/>
      <point x="166" y="421" type="line"/>
    </contour>
    <contour>
      <point x="184" y="226" type="curve" smooth="yes"/>
      <point x="184" y="232" type="line" smooth="yes"/>
      <point x="184" y="292"/>
      <point x="199" y="326"/>
      <point x="226" y="326" type="curve" smooth="yes"/>
      <point x="251" y="326"/>
      <point x="265" y="291"/>
      <point x="265" y="231" type="curve" smooth="yes"/>
      <point x="265" y="171"/>
      <point x="250" y="134"/>
      <point x="226" y="134" type="curve" smooth="yes"/>
      <point x="200" y="134"/>
      <point x="184" y="169"/>
    </contour>
  </outline>
  <guideline angle="90" name="h_1" x="204" y="0"/>
</glyph>
<glyph name="q" format="2">
  <advance width="443"/>
  <unicode hex="0071"/>
  <outline>
    <contour>
      <point x="255" y="-200" type="line"/>
      <point x="403" y="-200" type="line"/>
      <point x="403" y="460" type="line"/>
      <point x="285" y="460" type="line"/>
      <point x="262" y="421" type="line"/>
      <point x="262" y="33" type="line"/>
      <point x="257" y="22"/>
      <point x="255" y="7"/>
      <point x="255" y="-7" type="curve" smooth="yes"/>
    </contour>
    <contour>
      <point x="30" y="231" type="curve" smooth="yes"/>
      <point x="30" y="71"/>
      <point x="86" y="-16"/>
      <point x="163" y="-16" type="curve" smooth="yes"/>
      <point x="200" y="-16"/>
      <point x="244" y="7"/>
      <point x="258" y="33" type="curve"/>
      <point x="267" y="33" type="line"/>
      <point x="267" y="421" type="line"/>
      <point x="255" y="421" type="line"/>
      <point x="239" y="457"/>
      <point x="202" y="476"/>
      <point x="162" y="476" type="curve" smooth="yes"/>
      <point x="85" y="476"/>
      <point x="30" y="391"/>
    </contour>
    <contour>
      <point x="178" y="231" type="curve" smooth="yes"/>
      <point x="178" y="291"/>
      <point x="192" y="326"/>
      <point x="218" y="326" type="curve" smooth="yes"/>
      <point x="247" y="326"/>
      <point x="262" y="292"/>
      <point x="262" y="232" type="curve" smooth="yes"/>
      <point x="262" y="226" type="line" smooth="yes"/>
      <point x="262" y="169"/>
      <point x="246" y="134"/>
      <point x="218" y="134" type="curve" smooth="yes"/>
      <point x="193" y="134"/>
      <point x="178" y="171"/>
    </contour>
  </outline>
</glyph>
<glyph name="r" format="2">
  <advance width="351"/>
  <unicode hex="0072"/>
  <anchor x="188" y="-40" name="bottom"/>
  <anchor x="188" y="530" name="top"/>
  <outline>
    <contour>
      <point x="40" y="0" type="line"/>
      <point x="188" y="0" type="line"/>
      <point x="188" y="251" type="line" smooth="yes"/>
      <point x="188" y="306"/>
      <point x="226" y="334"/>
      <point x="261" y="334" type="curve" smooth="yes"/>
      <point x="282" y="334"/>
      <point x="309" y="330"/>
      <point x="337" y="310" type="curve"/>
      <point x="341" y="310" type="line"/>
      <point x="341" y="456" type="line"/>
      <point x="327" y="467"/>
      <point x="307" y="473"/>
      <point x="289" y="473" type="curve" smooth="yes"/>
      <point x="238" y="473"/>
      <point x="193" y="430"/>
      <point x="172" y="362" type="curve"/>
      <point x="184" y="362" type="line"/>
      <point x="172" y="460" type="line"/>
      <point x="40" y="460" type="line"/>
    </contour>
  </outline>
  <guideline angle="90" name="h_1" x="188" y="0"/>
</glyph>
<glyph name="s" format="2">
  <advance width="355"/>
  <unicode hex="0073"/>
  <anchor x="173" y="530" name="top"/>
  <anchor x="173" y="-40" name="bottom"/>
  <anchor x="158" y="0" name="b.cedilla"/>
  <outline>
    <contour>
      <point x="34" y="144" type="line"/>
      <point x="34" y="44"/>
      <point x="91" y="-16"/>
      <point x="186" y="-16" type="curve" smooth="yes"/>
      <point x="283" y="-16"/>
      <point x="337" y="37"/>
      <point x="337" y="142" type="curve" smooth="yes"/>
      <point x="337" y="310"/>
      <point x="167" y="264"/>
      <point x="167" y="318" type="curve" smooth="yes"/>
      <point x="167" y="333"/>
      <point x="172" y="340"/>
      <point x="179" y="340" type="curve" smooth="yes"/>
      <point x="187" y="340"/>
      <point x="194" y="333"/>
      <point x="196" y="316" type="curve"/>
      <point x="329" y="316" type="line"/>
      <point x="329" y="429"/>
      <point x="263" y="476"/>
      <point x="173" y="476" type="curve" smooth="yes"/>
      <point x="87" y="476"/>
      <point x="34" y="419"/>
      <point x="34" y="323" type="curve" smooth="yes"/>
      <point x="34" y="161"/>
      <point x="203" y="203"/>
      <point x="203" y="142" type="curve" smooth="yes"/>
      <point x="203" y="127"/>
      <point x="199" y="120"/>
      <point x="186" y="120" type="curve" smooth="yes"/>
      <point x="175" y="120"/>
      <point x="168" y="131"/>
      <point x="166" y="144" type="curve"/>
    </contour>
  </outline>
  <guideline angle="90" name="h_1" x="173" y="0"/>
</glyph>
<glyph name="t" format="2">
  <advance width="329"/>
  <unicode hex="0074"/>
  <anchor x="210" y="-40" name="bottom"/>
  <anchor x="159" y="660" name="top"/>
  <anchor x="315" y="700" name="t.quoteright"/>
  <outline>
    <contour>
      <point x="22" y="340" type="line"/>
      <point x="290" y="340" type="line"/>
      <point x="290" y="460" type="line"/>
      <point x="92" y="460" type="line"/>
      <point x="22" y="438" type="line"/>
    </contour>
    <contour>
      <point x="79" y="180" type="line" smooth="yes"/>
      <point x="79" y="44"/>
      <point x="163" y="-9"/>
      <point x="280" y="-9" type="curve" smooth="yes"/>
      <point x="313" y="-9" type="line"/>
      <point x="313" y="111" type="line"/>
      <point x="280" y="111" type="line" smooth="yes"/>
      <point x="235" y="111"/>
      <point x="227" y="138"/>
      <point x="227" y="236" type="curve" smooth="yes"/>
      <point x="227" y="610" type="line"/>
      <point x="94" y="610" type="line"/>
      <point x="84" y="443" type="line"/>
      <point x="79" y="443" type="line"/>
    </contour>
  </outline>
  <guideline angle="90" name="h_1" x="153" y="0"/>
</glyph>
<glyph name="u" format="2">
  <advance width="464"/>
  <unicode hex="0075"/>
  <anchor x="232" y="540" name="top"/>
  <anchor x="232" y="-40" name="bottom"/>
  <anchor x="232" y="540" name="t.ring"/>
  <outline>
    <contour>
      <point x="40" y="126" type="line" smooth="yes"/>
      <point x="40" y="34"/>
      <point x="83" y="-16"/>
      <point x="161" y="-16" type="curve" smooth="yes"/>
      <point x="235" y="-16"/>
      <point x="276" y="16"/>
      <point x="311" y="102" type="curve"/>
      <point x="286" y="102" type="line"/>
      <point x="286" y="79" type="line"/>
      <point x="322" y="79" type="line"/>
      <point x="322" y="260" type="line"/>
      <point x="276" y="260" type="line"/>
      <point x="276" y="160"/>
      <point x="260" y="129"/>
      <point x="223" y="129" type="curve" smooth="yes"/>
      <point x="194" y="129"/>
      <point x="188" y="161"/>
      <point x="188" y="205" type="curve" smooth="yes"/>
      <point x="188" y="460" type="line"/>
      <point x="40" y="460" type="line"/>
    </contour>
    <contour>
      <point x="276" y="38" type="line"/>
      <point x="279" y="38" type="line"/>
      <point x="293" y="0" type="line"/>
      <point x="424" y="0" type="line"/>
      <point x="424" y="460" type="line"/>
      <point x="276" y="460" type="line"/>
    </contour>
  </outline>
  <guideline angle="90" name="h_1" x="232" y="0"/>
</glyph>
<glyph name="v" format="2">
  <advance width="446"/>
  <unicode hex="0076"/>
  <anchor x="221" y="530" name="top"/>
  <anchor x="221" y="-40" name="bottom"/>
  <outline>
    <contour>
      <point x="134" y="0" type="line"/>
      <point x="301" y="0" type="line"/>
      <point x="438" y="460" type="line"/>
      <point x="288" y="460" type="line"/>
      <point x="180" y="54" type="line"/>
      <point x="260" y="54" type="line"/>
      <point x="158" y="460" type="line"/>
      <point x="8" y="460" type="line"/>
    </contour>
  </outline>
  <guideline angle="0" x="0" y="228"/>
  <guideline angle="90" name="h_1" x="221" y="0"/>
</glyph>
<glyph name="w" format="2">
  <advance width="694"/>
  <unicode hex="0077"/>
  <anchor x="246" y="-40" name="bottom"/>
  <anchor x="246" y="530" name="top"/>
  <outline>
    <contour>
      <point x="100" y="0" type="line"/>
      <point x="294" y="0" type="line"/>
      <point x="329" y="168" type="line" smooth="yes"/>
      <point x="335" y="195"/>
      <point x="348" y="279"/>
      <point x="349" y="306" type="curve"/>
      <point x="331" y="296" type="line"/>
      <point x="369" y="296" type="line"/>
      <point x="349" y="306" type="line"/>
      <point x="351" y="279"/>
      <point x="363" y="195"/>
      <point x="369" y="168" type="curve" smooth="yes"/>
      <point x="404" y="0" type="line"/>
      <point x="598" y="0" type="line"/>
      <point x="686" y="460" type="line"/>
      <point x="538" y="460" type="line"/>
      <point x="503" y="265" type="line" smooth="yes"/>
      <point x="499" y="240"/>
      <point x="495" y="215"/>
      <point x="493" y="190" type="curve"/>
      <point x="513" y="210" type="line"/>
      <point x="467" y="210" type="line"/>
      <point x="493" y="190" type="line"/>
      <point x="491" y="215"/>
      <point x="487" y="240"/>
      <point x="483" y="265" type="curve" smooth="yes"/>
      <point x="448" y="460" type="line"/>
      <point x="246" y="460" type="line"/>
      <point x="211" y="272" type="line" smooth="yes"/>
      <point x="206" y="245"/>
      <point x="203" y="217"/>
      <point x="201" y="190" type="curve"/>
      <point x="219" y="210" type="line"/>
      <point x="180" y="210" type="line"/>
      <point x="201" y="190" type="line"/>
      <point x="199" y="217"/>
      <point x="196" y="245"/>
      <point x="191" y="272" type="curve" smooth="yes"/>
      <point x="156" y="460" type="line"/>
      <point x="8" y="460" type="line"/>
    </contour>
  </outline>
  <guideline angle="90" name="h_1" x="246" y="0"/>
  <guideline angle="90" x="156" y="0"/>
  <guideline angle="90" x="538" y="0"/>
  <guideline angle="0" x="0" y="444"/>
  <guideline angle="90" x="201" y="0"/>
  <guideline angle="90" x="448" y="0"/>
  <guideline angle="90" x="493" y="0"/>
</glyph>
<glyph name="x" format="2">
  <advance width="424"/>
  <unicode hex="0078"/>
  <anchor x="212" y="-40" name="bottom"/>
  <anchor x="212" y="530" name="top"/>
  <outline>
    <contour>
      <point x="10" y="0" type="line"/>
      <point x="174" y="0" type="line"/>
      <point x="233" y="123" type="line"/>
      <point x="282" y="215" type="line"/>
      <point x="406" y="460" type="line"/>
      <point x="242" y="460" type="line"/>
      <point x="190" y="342" type="line"/>
      <point x="142" y="259" type="line"/>
    </contour>
    <contour>
      <point x="18" y="460" type="line"/>
      <point x="142" y="213" type="line"/>
      <point x="192" y="123" type="line"/>
      <point x="250" y="0" type="line"/>
      <point x="414" y="0" type="line"/>
      <point x="282" y="259" type="line"/>
      <point x="234" y="342" type="line"/>
      <point x="182" y="460" type="line"/>
    </contour>
  </outline>
  <guideline angle="0" x="0" y="342"/>
  <guideline angle="0" x="0" y="123"/>
  <guideline angle="90" name="h_1" x="212" y="0"/>
</glyph>
<glyph name="y" format="2">
  <advance width="421"/>
  <unicode hex="0079"/>
  <anchor x="212" y="530" name="top"/>
  <anchor x="386" y="-40" name="bottom"/>
  <outline>
    <contour>
      <point x="32" y="-188" type="line"/>
      <point x="60" y="-198"/>
      <point x="67" y="-200"/>
      <point x="88" y="-200" type="curve" smooth="yes"/>
      <point x="176" y="-200"/>
      <point x="236" y="-145"/>
      <point x="264" y="-49" type="curve" smooth="yes"/>
      <point x="413" y="460" type="line"/>
      <point x="266" y="460" type="line"/>
      <point x="125" y="-25" type="line" smooth="yes"/>
      <point x="119" y="-47"/>
      <point x="100" y="-74"/>
      <point x="75" y="-74" type="curve" smooth="yes"/>
      <point x="61" y="-74"/>
      <point x="47" y="-69"/>
      <point x="32" y="-62" type="curve"/>
    </contour>
    <contour>
      <point x="8" y="460" type="line"/>
      <point x="149" y="-88" type="line"/>
      <point x="242" y="69" type="line"/>
      <point x="158" y="460" type="line"/>
    </contour>
  </outline>
  <guideline angle="90" x="212" y="0"/>
</glyph>
<glyph name="z" format="2">
  <advance width="353"/>
  <unicode hex="007A"/>
  <anchor x="177" y="530" name="top"/>
  <anchor x="177" y="-40" name="bottom"/>
  <outline>
    <contour>
      <point x="30" y="0" type="line"/>
      <point x="324" y="0" type="line"/>
      <point x="324" y="156" type="line"/>
      <point x="141" y="156" type="line"/>
      <point x="146" y="33" type="line"/>
      <point x="324" y="338" type="line"/>
      <point x="324" y="460" type="line"/>
      <point x="30" y="460" type="line"/>
      <point x="30" y="304" type="line"/>
      <point x="219" y="304" type="line"/>
      <point x="219" y="426" type="line"/>
      <point x="30" y="122" type="line"/>
    </contour>
  </outline>
  <guideline angle="90" name="h_1" x="177" y="0"/>
</glyph>
<glyph name="cent" format="2">
  <advance width="495"/>
  <unicode hex="00A2"/>
  <outline>
    <contour>
      <point x="5" y="230" type="curve" smooth="yes"/>
      <point x="5" y="77"/>
      <point x="93" y="-16"/>
      <point x="240" y="-16" type="curve"/>
      <point x="240" y="140" type="line"/>
      <point x="202" y="140"/>
      <point x="185" y="168"/>
      <point x="185" y="230" type="curve" smooth="yes"/>
      <point x="185" y="294"/>
      <point x="201" y="320"/>
      <point x="240" y="320" type="curve"/>
      <point x="240" y="476" type="line"/>
      <point x="96" y="476"/>
      <point x="5" y="382"/>
    </contour>
    <contour>
      <point x="112" y="-164" type="line"/>
      <point x="161" y="-178" type="line"/>
      <point x="393" y="623" type="line"/>
      <point x="346" y="637" type="line"/>
    </contour>
    <contour>
      <point x="240" y="-16" type="line"/>
      <point x="356" y="-16"/>
      <point x="440" y="69"/>
      <point x="440" y="185" type="curve"/>
      <point x="280" y="185" type="line"/>
      <point x="280" y="165"/>
      <point x="261" y="140"/>
      <point x="240" y="140" type="curve"/>
    </contour>
    <contour>
      <point x="240" y="320" type="line"/>
      <point x="266" y="320"/>
      <point x="280" y="305"/>
      <point x="280" y="285" type="curve"/>
      <point x="440" y="285" type="line"/>
      <point x="440" y="400"/>
      <point x="360" y="476"/>
      <point x="240" y="476" type="curve"/>
    </contour>
  </outline>
</glyph>
<glyph name="dieresis" format="2">
  <advance width="488"/>
  <unicode hex="00A8"/>
  <outline>
    <contour>
      <point x="40" y="560" type="line"/>
      <point x="188" y="560" type="line"/>
      <point x="188" y="708" type="line"/>
      <point x="40" y="708" type="line"/>
    </contour>
    <contour>
      <point x="300" y="560" type="line"/>
      <point x="448" y="560" type="line"/>
      <point x="448" y="708" type="line"/>
      <point x="300" y="708" type="line"/>
    </contour>
  </outline>
</glyph>
<glyph name="copyright" format="2">
  <advance width="860"/>
  <unicode hex="00A9"/>
  <outline>
    <contour>
      <point x="254.629" y="331.041" type="curve" smooth="yes"/>
      <point x="254.629" y="231.432"/>
      <point x="325.899" y="165.025"/>
      <point x="432.805" y="165.025" type="curve" smooth="yes"/>
      <point x="506.882" y="165.025"/>
      <point x="574.97" y="218.706"/>
      <point x="603.025" y="299.228" type="curve"/>
      <point x="488.426" y="299.228" type="line"/>
      <point x="478.421" y="279.382"/>
      <point x="456.987" y="264.755"/>
      <point x="434.114" y="264.755" type="curve" smooth="yes"/>
      <point x="402.14" y="264.755"/>
      <point x="377.793" y="293.562"/>
      <point x="377.793" y="331.392" type="curve" smooth="yes"/>
      <point x="377.793" y="369.122"/>
      <point x="403.369" y="398.03"/>
      <point x="436.75" y="398.03" type="curve" smooth="yes"/>
      <point x="460.265" y="398.03"/>
      <point x="478.538" y="384.797"/>
      <point x="488.426" y="364.949" type="curve"/>
      <point x="603.025" y="364.949" type="line"/>
      <point x="582.165" y="444.975"/>
      <point x="511.098" y="498.325"/>
      <point x="425.357" y="498.325" type="curve" smooth="yes"/>
      <point x="322.92" y="498.325"/>
      <point x="254.629" y="431.412"/>
    </contour>
    <contour>
      <point x="30" y="341.435" type="curve" smooth="yes"/>
      <point x="30" y="136.574"/>
      <point x="189.59" y="0"/>
      <point x="428.976" y="0" type="curve" smooth="yes"/>
      <point x="669.069" y="0"/>
      <point x="829.131" y="135.426"/>
      <point x="829.131" y="338.565" type="curve" smooth="yes"/>
      <point x="829.131" y="543.426"/>
      <point x="668.362" y="680"/>
      <point x="428.976" y="680" type="curve" smooth="yes"/>
      <point x="189.59" y="680"/>
      <point x="30" y="544.574"/>
    </contour>
    <contour>
      <point x="174.207" y="341.261" type="curve" smooth="yes"/>
      <point x="174.207" y="475.981"/>
      <point x="276.35" y="565.793"/>
      <point x="429.565" y="565.793" type="curve" smooth="yes"/>
      <point x="582.781" y="565.793"/>
      <point x="684.924" y="474.971"/>
      <point x="684.924" y="338.739" type="curve" smooth="yes"/>
      <point x="684.924" y="204.019"/>
      <point x="582.781" y="114.207"/>
      <point x="429.565" y="114.207" type="curve" smooth="yes"/>
      <point x="276.35" y="114.207"/>
      <point x="174.207" y="205.029"/>
    </contour>
  </outline>
</glyph>
<glyph name="ordfeminine" format="2">
  <advance width="350"/>
  <unicode hex="00AA"/>
  <outline>
    <contour>
      <point x="41" y="630" type="curve"/>
      <point x="143" y="630" type="line"/>
      <point x="145.379" y="650.4"/>
      <point x="155.506" y="664"/>
      <point x="168.738" y="664" type="curve" smooth="yes"/>
      <point x="182.695" y="664"/>
      <point x="192" y="650.526"/>
      <point x="192" y="628.055" type="curve" smooth="yes"/>
      <point x="192" y="464.227" type="line"/>
      <point x="207" y="414" type="line"/>
      <point x="310" y="414" type="line"/>
      <point x="310" y="631.677" type="line" smooth="yes"/>
      <point x="310" y="696.671"/>
      <point x="258.542" y="740"/>
      <point x="181.355" y="740" type="curve" smooth="yes"/>
      <point x="106.695" y="740"/>
      <point x="50.8363" y="702"/>
    </contour>
    <contour>
      <point x="30" y="493" type="curve" smooth="yes"/>
      <point x="30" y="440.8"/>
      <point x="67.1388" y="406"/>
      <point x="122.847" y="406" type="curve" smooth="yes"/>
      <point x="171.524" y="406"/>
      <point x="200.829" y="435.78"/>
      <point x="222" y="483.189" type="curve"/>
      <point x="216" y="545" type="line"/>
      <point x="208.485" y="515.169"/>
      <point x="200.115" y="490"/>
      <point x="173.252" y="490" type="curve" smooth="yes"/>
      <point x="158.101" y="490"/>
      <point x="148" y="499.491"/>
      <point x="148" y="513.727" type="curve" smooth="yes"/>
      <point x="148" y="539.691"/>
      <point x="170" y="557"/>
      <point x="203" y="557" type="curve"/>
      <point x="203" y="612" type="line"/>
      <point x="99.2" y="612"/>
      <point x="30" y="564.4"/>
    </contour>
  </outline>
</glyph>
<glyph name="acute" format="2">
  <advance width="305"/>
  <unicode hex="00B4"/>
  <outline>
    <contour>
      <point x="40" y="520" type="line"/>
      <point x="160" y="520" type="line"/>
      <point x="265" y="700" type="line"/>
      <point x="105" y="700" type="line"/>
    </contour>
  </outline>
</glyph>
<glyph name="periodcentered" format="2">
  <advance width="240"/>
  <unicode hex="00B7"/>
  <outline>
    <contour>
      <point x="40" y="230" type="line"/>
      <point x="200" y="230" type="line"/>
      <point x="200" y="390" type="line"/>
      <point x="40" y="390" type="line"/>
    </contour>
  </outline>
</glyph>
<glyph name="ordmasculine" format="2">
  <advance width="365"/>
  <unicode hex="00BA"/>
  <outline>
    <contour>
      <point x="30" y="574" type="curve" smooth="yes"/>
      <point x="30" y="459.789"/>
      <point x="90.8538" y="413"/>
      <point x="183.035" y="413" type="curve" smooth="yes"/>
      <point x="272.401" y="413"/>
      <point x="335" y="467.238"/>
      <point x="335" y="577" type="curve" smooth="yes"/>
      <point x="335" y="686.762"/>
      <point x="271.873" y="740"/>
      <point x="181.965" y="740" type="curve" smooth="yes"/>
      <point x="90.2264" y="740"/>
      <point x="30" y="688.211"/>
    </contour>
    <contour>
      <point x="148" y="576.085" type="curve" smooth="yes"/>
      <point x="148" y="640.771"/>
      <point x="158.956" y="664"/>
      <point x="182.277" y="664" type="curve" smooth="yes"/>
      <point x="205.599" y="664"/>
      <point x="217" y="637.507"/>
      <point x="217" y="578.573" type="curve" smooth="yes"/>
      <point x="217" y="519.64"/>
      <point x="204.191" y="489"/>
      <point x="182.277" y="489" type="curve" smooth="yes"/>
      <point x="160.364" y="489"/>
      <point x="148" y="511.4"/>
    </contour>
  </outline>
</glyph>
<glyph name="onehalf" format="2">
  <advance width="910"/>
  <unicode hex="00BD"/>
  <outline>
    <contour>
      <point x="32" y="465" type="line"/>
      <point x="70" y="475"/>
      <point x="110" y="497"/>
      <point x="138" y="522" type="curve"/>
      <point x="119" y="607" type="line"/>
      <point x="119" y="354" type="line"/>
      <point x="279" y="354" type="line"/>
      <point x="279" y="680" type="line"/>
      <point x="145" y="680" type="line"/>
      <point x="120" y="649"/>
      <point x="69" y="608"/>
      <point x="32" y="599" type="curve"/>
    </contour>
    <contour>
      <point x="96" y="0" type="line"/>
      <point x="306" y="0" type="line"/>
      <point x="792" y="680" type="line"/>
      <point x="582" y="680" type="line"/>
    </contour>
    <contour>
      <point x="578" y="0" type="line"/>
      <point x="842" y="0" type="line"/>
      <point x="842" y="100" type="line"/>
      <point x="661" y="100" type="line"/>
      <point x="661" y="33" type="line"/>
      <point x="785" y="128" type="line" smooth="yes"/>
      <point x="824" y="158"/>
      <point x="842" y="191"/>
      <point x="842" y="236" type="curve" smooth="yes"/>
      <point x="842" y="305"/>
      <point x="791" y="350"/>
      <point x="711" y="350" type="curve" smooth="yes"/>
      <point x="625" y="350"/>
      <point x="579" y="306"/>
      <point x="579" y="222" type="curve"/>
      <point x="690" y="222" type="line"/>
      <point x="690" y="236"/>
      <point x="694" y="244"/>
      <point x="704" y="244" type="curve" smooth="yes"/>
      <point x="712" y="244"/>
      <point x="717" y="235"/>
      <point x="717" y="223" type="curve" smooth="yes"/>
      <point x="717" y="202"/>
      <point x="698" y="188"/>
      <point x="675" y="172" type="curve" smooth="yes"/>
      <point x="578" y="104" type="line"/>
    </contour>
  </outline>
</glyph>
<glyph name="AE" format="2">
  <advance width="728"/>
  <unicode hex="00C6"/>
  <anchor x="438" y="740" name="top"/>
  <outline>
    <contour>
      <point x="10" y="0" type="line"/>
      <point x="176" y="0" type="line"/>
      <point x="364" y="612" type="line"/>
      <point x="275" y="530" type="line"/>
      <point x="370" y="530" type="line"/>
      <point x="370" y="0" type="line"/>
      <point x="690" y="0" type="line"/>
      <point x="690" y="150" type="line"/>
      <point x="528" y="150" type="line"/>
      <point x="528" y="270" type="line"/>
      <point x="650" y="270" type="line"/>
      <point x="650" y="420" type="line"/>
      <point x="528" y="420" type="line"/>
      <point x="528" y="530" type="line"/>
      <point x="690" y="530" type="line"/>
      <point x="690" y="680" type="line"/>
      <point x="220" y="680" type="line"/>
    </contour>
    <contour>
      <point x="165" y="222" type="line"/>
      <point x="425" y="222" type="line"/>
      <point x="425" y="372" type="line"/>
      <point x="185" y="372" type="line"/>
    </contour>
  </outline>
</glyph>
<glyph name="Oslash" format="2">
  <advance width="568"/>
  <unicode hex="00D8"/>
  <outline>
    <component base="O"/>
    <contour>
      <point x="-16" y="-10" type="line"/>
      <point x="164" y="-10" type="line"/>
      <point x="596" y="690" type="line"/>
      <point x="416" y="690" type="line"/>
    </contour>
  </outline>
</glyph>
<glyph name="Thorn" format="2">
  <advance width="438"/>
  <unicode hex="00DE"/>
  <outline>
    <contour>
      <point x="50" y="0" type="line"/>
      <point x="203" y="0" type="line"/>
      <point x="203" y="690" type="line"/>
      <point x="50" y="690" type="line"/>
    </contour>
    <contour>
      <point x="140" y="113" type="line"/>
      <point x="188" y="113" type="line" smooth="yes"/>
      <point x="318" y="113"/>
      <point x="408" y="210"/>
      <point x="408" y="349" type="curve" smooth="yes"/>
      <point x="408" y="491"/>
      <point x="322" y="585"/>
      <point x="192" y="585" type="curve" smooth="yes"/>
      <point x="140" y="585" type="line"/>
      <point x="140" y="422" type="line"/>
      <point x="188" y="422" type="line" smooth="yes"/>
      <point x="223" y="422"/>
      <point x="252" y="389"/>
      <point x="252" y="344" type="curve" smooth="yes"/>
      <point x="252" y="304"/>
      <point x="227" y="276"/>
      <point x="188" y="276" type="curve" smooth="yes"/>
      <point x="140" y="276" type="line"/>
    </contour>
  </outline>
</glyph>
<glyph name="germandbls" format="2">
  <advance width="557"/>
  <unicode hex="00DF"/>
  <outline>
    <contour>
      <point x="40" y="0" type="line"/>
      <point x="216" y="0" type="line"/>
      <point x="216" y="480" type="line" smooth="yes"/>
      <point x="216" y="521"/>
      <point x="232" y="540"/>
      <point x="266" y="540" type="curve" smooth="yes"/>
      <point x="288" y="540"/>
      <point x="301" y="523"/>
      <point x="301" y="493" type="curve" smooth="yes"/>
      <point x="301" y="462"/>
      <point x="287" y="440"/>
      <point x="268" y="440" type="curve" smooth="yes"/>
      <point x="260" y="440" type="line"/>
      <point x="260" y="284" type="line"/>
      <point x="271" y="284" type="line" smooth="yes"/>
      <point x="317" y="284"/>
      <point x="347" y="255"/>
      <point x="347" y="208" type="curve" smooth="yes"/>
      <point x="347" y="168"/>
      <point x="321" y="140"/>
      <point x="282" y="140" type="curve" smooth="yes"/>
      <point x="274" y="140"/>
      <point x="262" y="142"/>
      <point x="250" y="151" type="curve"/>
      <point x="250" y="-4" type="line"/>
      <point x="279" y="-12"/>
      <point x="299" y="-16"/>
      <point x="321" y="-16" type="curve" smooth="yes"/>
      <point x="459" y="-16"/>
      <point x="527" y="71"/>
      <point x="527" y="216" type="curve" smooth="yes"/>
      <point x="527" y="310"/>
      <point x="466" y="395"/>
      <point x="375" y="395" type="curve"/>
      <point x="380" y="367" type="line"/>
      <point x="446" y="391"/>
      <point x="481" y="443"/>
      <point x="481" y="518" type="curve" smooth="yes"/>
      <point x="481" y="627"/>
      <point x="394" y="696"/>
      <point x="258" y="696" type="curve" smooth="yes"/>
      <point x="128" y="696"/>
      <point x="40" y="614"/>
      <point x="40" y="492" type="curve" smooth="yes"/>
    </contour>
  </outline>
</glyph>
<glyph name="ae" format="2">
  <advance width="687"/>
  <unicode hex="00E6"/>
  <anchor x="344" y="530" name="top"/>
  <outline>
    <contour>
      <point x="252" y="240" type="curve" smooth="yes"/>
      <point x="252" y="77"/>
      <point x="324" y="-16"/>
      <point x="459" y="-16" type="curve" smooth="yes"/>
      <point x="559" y="-16"/>
      <point x="625" y="37"/>
      <point x="653" y="144" type="curve"/>
      <point x="498" y="144" type="line"/>
      <point x="490" y="130"/>
      <point x="474" y="120"/>
      <point x="457" y="120" type="curve" smooth="yes"/>
      <point x="422" y="120"/>
      <point x="400" y="165"/>
      <point x="400" y="236" type="curve" smooth="yes"/>
      <point x="400" y="298"/>
      <point x="419" y="330"/>
      <point x="457" y="330" type="curve" smooth="yes"/>
      <point x="480" y="330"/>
      <point x="499" y="311"/>
      <point x="504" y="283" type="curve"/>
      <point x="321" y="283" type="line"/>
      <point x="321" y="193" type="line"/>
      <point x="657" y="193" type="line"/>
      <point x="657" y="241" type="line" smooth="yes"/>
      <point x="657" y="389"/>
      <point x="579" y="476"/>
      <point x="459" y="476" type="curve" smooth="yes"/>
      <point x="332" y="476"/>
      <point x="252" y="384"/>
    </contour>
    <contour>
      <point x="49" y="300" type="curve"/>
      <point x="189" y="300" type="line"/>
      <point x="193" y="335"/>
      <point x="204" y="355"/>
      <point x="224" y="355" type="curve" smooth="yes"/>
      <point x="242" y="355"/>
      <point x="252" y="336"/>
      <point x="252" y="305" type="curve" smooth="yes"/>
      <point x="252" y="88" type="line"/>
      <point x="401" y="88" type="line"/>
      <point x="401" y="289" type="line" smooth="yes"/>
      <point x="401" y="413"/>
      <point x="342" y="476"/>
      <point x="229" y="476" type="curve" smooth="yes"/>
      <point x="119" y="476"/>
      <point x="57" y="413"/>
    </contour>
    <contour>
      <point x="30" y="123" type="curve" smooth="yes"/>
      <point x="30" y="38"/>
      <point x="94" y="-16"/>
      <point x="165" y="-16" type="curve" smooth="yes"/>
      <point x="245" y="-16"/>
      <point x="316" y="59"/>
      <point x="333" y="99" type="curve"/>
      <point x="276" y="150" type="line"/>
      <point x="261" y="114"/>
      <point x="232" y="100"/>
      <point x="216" y="100" type="curve" smooth="yes"/>
      <point x="195" y="100"/>
      <point x="181" y="118"/>
      <point x="181" y="145" type="curve" smooth="yes"/>
      <point x="181" y="168"/>
      <point x="192" y="184"/>
      <point x="212" y="188" type="curve" smooth="yes"/>
      <point x="280" y="202" type="line"/>
      <point x="280" y="290" type="line"/>
      <point x="207" y="281" type="line" smooth="yes"/>
      <point x="94" y="267"/>
      <point x="30" y="210"/>
    </contour>
  </outline>
</glyph>
<glyph name="eth" format="2">
  <advance width="468"/>
  <unicode hex="00F0"/>
  <outline>
    <contour>
      <point x="61" y="605" type="line"/>
      <point x="228" y="531"/>
      <point x="288" y="407"/>
      <point x="288" y="219" type="curve"/>
      <point x="436" y="219" type="line"/>
      <point x="436" y="441"/>
      <point x="328" y="621"/>
      <point x="140" y="699" type="curve"/>
    </contour>
    <contour>
      <point x="115" y="485" type="line"/>
      <point x="389" y="600" type="line"/>
      <point x="341" y="662" type="line"/>
      <point x="67" y="547" type="line"/>
    </contour>
    <contour>
      <point x="30" y="215" type="curve" smooth="yes"/>
      <point x="30" y="64"/>
      <point x="106" y="-16"/>
      <point x="233" y="-16" type="curve" smooth="yes"/>
      <point x="358" y="-16"/>
      <point x="436" y="66"/>
      <point x="436" y="215" type="curve" smooth="yes"/>
      <point x="436" y="366"/>
      <point x="360" y="446"/>
      <point x="233" y="446" type="curve" smooth="yes"/>
      <point x="108" y="446"/>
      <point x="30" y="364"/>
    </contour>
    <contour>
      <point x="178" y="215" type="curve" smooth="yes"/>
      <point x="178" y="273"/>
      <point x="199" y="300"/>
      <point x="233" y="300" type="curve" smooth="yes"/>
      <point x="266" y="300"/>
      <point x="288" y="272"/>
      <point x="288" y="215" type="curve" smooth="yes"/>
      <point x="288" y="157"/>
      <point x="267" y="130"/>
      <point x="233" y="130" type="curve" smooth="yes"/>
      <point x="200" y="130"/>
      <point x="178" y="158"/>
    </contour>
  </outline>
  <guideline angle="230.315" x="140" y="699"/>
  <guideline angle="202.768" x="315" y="651"/>
  <guideline angle="22.7682" x="89" y="474"/>
  <guideline angle="127.747" x="363" y="589"/>
  <guideline angle="307.747" x="41" y="536"/>
  <guideline angle="0" x="0" y="699"/>
</glyph>
<glyph name="divide" format="2">
  <advance width="520"/>
  <unicode hex="00F7"/>
  <outline>
    <contour>
      <point x="49" y="282" type="line"/>
      <point x="471" y="282" type="line"/>
      <point x="471" y="347" type="line"/>
      <point x="49" y="347" type="line"/>
    </contour>
    <contour>
      <point x="220" y="139" type="line"/>
      <point x="300" y="139" type="line"/>
      <point x="300" y="219" type="line"/>
      <point x="220" y="219" type="line"/>
    </contour>
    <contour>
      <point x="220" y="409" type="line"/>
      <point x="300" y="409" type="line"/>
      <point x="300" y="489" type="line"/>
      <point x="220" y="489" type="line"/>
    </contour>
  </outline>
</glyph>
<glyph name="oslash" format="2">
  <advance width="506"/>
  <unicode hex="00F8"/>
  <outline>
    <component base="o" xOffset="20"/>
    <contour>
      <point x="30" y="0" type="line"/>
      <point x="104" y="0" type="line"/>
      <point x="476" y="460" type="line"/>
      <point x="402" y="460" type="line"/>
    </contour>
  </outline>
</glyph>
<glyph name="thorn" format="2">
  <advance width="443"/>
  <unicode hex="00FE"/>
  <outline>
    <component base="p"/>
    <contour>
      <point x="40" y="0" type="line"/>
      <point x="188" y="0" type="line"/>
      <point x="188" y="8" type="line"/>
      <point x="178" y="33" type="line"/>
      <point x="178" y="259" type="line"/>
      <point x="188" y="321" type="line"/>
      <point x="188" y="700" type="line"/>
      <point x="40" y="700" type="line"/>
    </contour>
  </outline>
</glyph>
<glyph name="dcroat" format="2">
  <advance width="491"/>
  <unicode hex="0111"/>
  <outline>
    <contour>
      <point x="195" y="240" type="curve" smooth="yes"/>
      <point x="195" y="298"/>
      <point x="207" y="341"/>
      <point x="261" y="341" type="curve" smooth="yes"/>
      <point x="303" y="341"/>
      <point x="317" y="318"/>
      <point x="317" y="282" type="curve" smooth="yes"/>
      <point x="317" y="198" type="line" smooth="yes"/>
      <point x="317" y="171"/>
      <point x="291" y="134"/>
      <point x="259" y="134" type="curve" smooth="yes"/>
      <point x="215" y="134"/>
      <point x="195" y="195"/>
    </contour>
    <contour>
      <point x="15" y="230" type="curve" smooth="yes"/>
      <point x="15" y="144"/>
      <point x="35" y="-16"/>
      <point x="206" y="-16" type="curve" smooth="yes"/>
      <point x="261" y="-16"/>
      <point x="306" y="26"/>
      <point x="322" y="66" type="curve"/>
      <point x="317" y="66" type="line"/>
      <point x="327" y="0" type="line"/>
      <point x="493" y="0" type="line"/>
      <point x="493" y="700" type="line"/>
      <point x="317" y="700" type="line"/>
      <point x="317" y="420" type="line"/>
      <point x="331" y="421" type="line"/>
      <point x="309" y="457"/>
      <point x="263" y="476"/>
      <point x="205" y="476" type="curve" smooth="yes"/>
      <point x="75" y="476"/>
      <point x="15" y="355"/>
    </contour>
    <contour>
      <point x="250" y="510" type="line"/>
      <point x="490" y="510" type="line"/>
      <point x="490" y="630" type="line"/>
      <point x="250" y="630" type="line"/>
    </contour>
  </outline>
</glyph>
<glyph name="Hbar" format="2">
  <advance width="548"/>
  <unicode hex="0126"/>
  <anchor x="274" y="-40" name="bottom"/>
  <anchor x="384" y="0" name="b.cedilla"/>
  <outline>
    <component base="H"/>
    <contour>
      <point x="19" y="490" type="line"/>
      <point x="529" y="490" type="line"/>
      <point x="529" y="640" type="line"/>
      <point x="19" y="640" type="line"/>
    </contour>
  </outline>
</glyph>
<glyph name="lslash" format="2">
  <advance width="277"/>
  <unicode hex="0142"/>
  <outline>
    <component base="l"/>
    <contour>
      <point x="-1" y="87" type="line"/>
      <point x="285" y="335" type="line"/>
      <point x="285" y="515" type="line"/>
      <point x="-1" y="267" type="line"/>
    </contour>
  </outline>
  <guideline angle="90" x="50" y="0"/>
  <guideline angle="90" x="285" y="0"/>
  <guideline angle="40.9766" x="-1" y="267"/>
</glyph>
<glyph name="eng" format="2">
  <advance width="470"/>
  <unicode hex="014B"/>
  <outline>
    <component base="n"/>
    <contour>
      <point x="208" y="-200" type="line"/>
      <point x="295" y="-200" type="line" smooth="yes"/>
      <point x="371" y="-200"/>
      <point x="430" y="-139"/>
      <point x="430" y="-62" type="curve" smooth="yes"/>
      <point x="430" y="92" type="line"/>
      <point x="282" y="92" type="line"/>
      <point x="282" y="-4" type="line" smooth="yes"/>
      <point x="282" y="-27"/>
      <point x="251" y="-44"/>
      <point x="208" y="-44" type="curve"/>
    </contour>
  </outline>
</glyph>
<glyph name="oe" format="2">
  <advance width="801"/>
  <unicode hex="0153"/>
  <outline>
    <contour>
      <point x="30" y="230" type="curve" smooth="yes"/>
      <point x="30" y="77"/>
      <point x="118" y="-16"/>
      <point x="265" y="-16" type="curve"/>
      <point x="265" y="140" type="line"/>
      <point x="227" y="140"/>
      <point x="210" y="168"/>
      <point x="210" y="230" type="curve" smooth="yes"/>
      <point x="210" y="294"/>
      <point x="226" y="320"/>
      <point x="265" y="320" type="curve"/>
      <point x="265" y="476" type="line"/>
      <point x="121" y="476"/>
      <point x="30" y="382"/>
    </contour>
    <contour>
      <point x="500" y="230" type="curve" smooth="yes"/>
      <point x="500" y="383"/>
      <point x="412" y="476"/>
      <point x="265" y="476" type="curve"/>
      <point x="265" y="320" type="line"/>
      <point x="303" y="320"/>
      <point x="320" y="292"/>
      <point x="320" y="230" type="curve" smooth="yes"/>
      <point x="320" y="166"/>
      <point x="304" y="140"/>
      <point x="265" y="140" type="curve"/>
      <point x="265" y="-16" type="line"/>
      <point x="409" y="-16"/>
      <point x="500" y="78"/>
    </contour>
    <contour>
      <point x="324" y="240" type="curve" smooth="yes"/>
      <point x="324" y="90"/>
      <point x="418" y="-16"/>
      <point x="550" y="-16" type="curve" smooth="yes"/>
      <point x="666" y="-16"/>
      <point x="768" y="65"/>
      <point x="768" y="164" type="curve"/>
      <point x="603" y="164" type="line"/>
      <point x="598" y="136"/>
      <point x="584" y="130"/>
      <point x="556" y="130" type="curve" smooth="yes"/>
      <point x="523" y="130"/>
      <point x="504" y="167"/>
      <point x="504" y="232" type="curve" smooth="yes"/>
      <point x="504" y="317"/>
      <point x="522" y="330"/>
      <point x="550" y="330" type="curve" smooth="yes"/>
      <point x="574" y="330"/>
      <point x="590" y="308"/>
      <point x="591" y="283" type="curve"/>
      <point x="415" y="283" type="line"/>
      <point x="415" y="193" type="line"/>
      <point x="771" y="193" type="line"/>
      <point x="771" y="231" type="line" smooth="yes"/>
      <point x="771" y="382"/>
      <point x="686" y="476"/>
      <point x="550" y="476" type="curve" smooth="yes"/>
      <point x="413" y="476"/>
      <point x="324" y="383"/>
    </contour>
  </outline>
</glyph>
<glyph name="Tbar" format="2">
  <advance width="388"/>
  <unicode hex="0166"/>
  <outline>
    <component base="T"/>
    <contour>
      <point x="40" y="270" type="line"/>
      <point x="348" y="270" type="line"/>
      <point x="348" y="410" type="line"/>
      <point x="40" y="410" type="line"/>
    </contour>
  </outline>
  <guideline angle="90" x="10" y="0"/>
  <guideline angle="90" x="378" y="0"/>
  <guideline angle="90" x="235" y="0"/>
  <guideline angle="90" x="335" y="0"/>
</glyph>
<glyph name="tbar" format="2">
  <advance width="398"/>
  <unicode hex="0167"/>
  <outline>
    <contour>
      <point x="22" y="172" type="line"/>
      <point x="357" y="172" type="line"/>
      <point x="357" y="292" type="line"/>
      <point x="22" y="292" type="line"/>
    </contour>
    <contour>
      <point x="22" y="320" type="line"/>
      <point x="357" y="320" type="line"/>
      <point x="357" y="460" type="line"/>
      <point x="106" y="460" type="line"/>
      <point x="22" y="440" type="line"/>
    </contour>
    <contour>
      <point x="97" y="180" type="line" smooth="yes"/>
      <point x="97" y="44"/>
      <point x="205" y="-9"/>
      <point x="355" y="-9" type="curve" smooth="yes"/>
      <point x="388" y="-9" type="line"/>
      <point x="388" y="111" type="line"/>
      <point x="354" y="111" type="line" smooth="yes"/>
      <point x="285" y="111"/>
      <point x="273" y="138"/>
      <point x="273" y="236" type="curve" smooth="yes"/>
      <point x="273" y="610" type="line"/>
      <point x="117" y="610" type="line"/>
      <point x="104" y="443" type="line"/>
      <point x="97" y="443" type="line"/>
    </contour>
  </outline>
</glyph>
<glyph name="longs" format="2">
  <advance width="317"/>
  <unicode hex="017F"/>
  <anchor x="162" y="740" name="top"/>
  <outline>
    <contour>
      <point x="82" y="0" type="line"/>
      <point x="231" y="0" type="line"/>
      <point x="231" y="500" type="line" smooth="yes"/>
      <point x="231" y="545"/>
      <point x="239" y="574"/>
      <point x="284" y="574" type="curve" smooth="yes"/>
      <point x="318" y="574" type="line"/>
      <point x="318" y="700" type="line"/>
      <point x="284" y="700" type="line" smooth="yes"/>
      <point x="166" y="700"/>
      <point x="82" y="642"/>
      <point x="82" y="500" type="curve" smooth="yes"/>
    </contour>
    <contour>
      <point x="26" y="340" type="line"/>
      <point x="154" y="340" type="line"/>
      <point x="154" y="460" type="line"/>
      <point x="26" y="460" type="line"/>
    </contour>
  </outline>
</glyph>
<glyph name="Schwa" format="2">
  <advance width="562"/>
  <unicode hex="018F"/>
  <outline>
    <contour>
      <point x="30" y="372" type="line"/>
      <point x="30" y="95"/>
      <point x="122" y="-16"/>
      <point x="281" y="-16" type="curve" smooth="yes"/>
      <point x="440" y="-16"/>
      <point x="532" y="123"/>
      <point x="532" y="340" type="curve" smooth="yes"/>
      <point x="532" y="557"/>
      <point x="440" y="696"/>
      <point x="281" y="696" type="curve" smooth="yes"/>
      <point x="154" y="696"/>
      <point x="70" y="607"/>
      <point x="41" y="460" type="curve"/>
      <point x="198" y="460" type="line"/>
      <point x="211" y="517"/>
      <point x="238" y="551"/>
      <point x="281" y="551" type="curve" smooth="yes"/>
      <point x="349" y="551"/>
      <point x="375" y="465"/>
      <point x="375" y="340" type="curve" smooth="yes"/>
      <point x="375" y="215"/>
      <point x="344" y="129"/>
      <point x="281" y="129" type="curve" smooth="yes"/>
      <point x="218" y="129"/>
      <point x="187" y="195"/>
      <point x="187" y="372" type="curve"/>
    </contour>
    <contour>
      <point x="106" y="222" type="line"/>
      <point x="446" y="222" type="line"/>
      <point x="446" y="372" type="line"/>
      <point x="106" y="372" type="line"/>
    </contour>
  </outline>
</glyph>
<glyph name="florin" format="2">
  <advance width="625"/>
  <unicode hex="0192"/>
  <outline>
    <contour>
      <point x="10.6706" y="-168.005" type="line"/>
      <point x="58.3305" y="-180.411"/>
      <point x="97.3017" y="-187"/>
      <point x="136.953" y="-187" type="curve" smooth="yes"/>
      <point x="255.195" y="-187"/>
      <point x="308.151" y="-122.449"/>
      <point x="325" y="-43" type="curve" smooth="yes"/>
      <point x="439.732" y="498" type="line" smooth="yes"/>
      <point x="446.907" y="531.83"/>
      <point x="469.389" y="550"/>
      <point x="507.369" y="550" type="curve" smooth="yes"/>
      <point x="523.925" y="550"/>
      <point x="546.826" y="547.053"/>
      <point x="565.269" y="541.09" type="curve" smooth="yes"/>
      <point x="583.812" y="535.094" type="line"/>
      <point x="614.067" y="671.094" type="line"/>
      <point x="604.169" y="675.094" type="line" smooth="yes"/>
      <point x="566.047" y="690.501"/>
      <point x="525.027" y="700"/>
      <point x="478.254" y="700" type="curve" smooth="yes"/>
      <point x="372.077" y="700"/>
      <point x="288.851" y="641.716"/>
      <point x="270.034" y="554.323" type="curve" smooth="yes"/>
      <point x="163.668" y="60.3135" type="line" smooth="yes"/>
      <point x="146.295" y="-20.3718"/>
      <point x="129.225" y="-40.3388"/>
      <point x="95.1184" y="-40.3388" type="curve" smooth="yes"/>
      <point x="81.7477" y="-40.3388"/>
      <point x="59.1389" y="-36.6395"/>
      <point x="51.036" y="-34.7413" type="curve" smooth="yes"/>
      <point x="38.2297" y="-31.7413" type="line"/>
    </contour>
    <contour>
      <point x="138.533" y="324" type="line"/>
      <point x="493.175" y="324" type="line"/>
      <point x="523.059" y="460" type="line"/>
      <point x="167.896" y="460" type="line"/>
    </contour>
  </outline>
</glyph>
<glyph name="Obar" format="2">
  <advance width="562"/>
  <unicode hex="019F"/>
  <anchor x="283" y="740" name="top"/>
  <outline>
    <component base="O"/>
    <contour>
      <point x="106" y="282" type="line"/>
      <point x="446" y="282" type="line"/>
      <point x="446" y="432" type="line"/>
      <point x="106" y="432" type="line"/>
    </contour>
  </outline>
</glyph>
<glyph name="uni0237" format="2">
  <advance width="233"/>
  <unicode hex="0237"/>
  <anchor x="113" y="540" name="top"/>
  <outline>
    <contour>
      <point x="-28" y="-200" type="line"/>
      <point x="47" y="-200" type="line" smooth="yes"/>
      <point x="134" y="-200"/>
      <point x="193" y="-142"/>
      <point x="193" y="-55" type="curve" smooth="yes"/>
      <point x="193" y="460" type="line"/>
      <point x="45" y="460" type="line"/>
      <point x="45" y="-12" type="line" smooth="yes"/>
      <point x="45" y="-41"/>
      <point x="28" y="-60"/>
      <point x="0" y="-60" type="curve" smooth="yes"/>
      <point x="-28" y="-60" type="line"/>
    </contour>
  </outline>
</glyph>
<glyph name="obarred" format="2">
  <advance width="466"/>
  <unicode hex="0275"/>
  <anchor x="233" y="530" name="top"/>
  <anchor x="237" y="-40" name="bottom"/>
  <outline>
    <component base="o"/>
    <contour>
      <point x="135" y="188" type="line"/>
      <point x="340" y="188" type="line"/>
      <point x="340" y="278" type="line"/>
      <point x="135" y="278" type="line"/>
    </contour>
  </outline>
</glyph>
<glyph name="circumflex" format="2">
  <advance width="340"/>
  <unicode hex="02C6"/>
  <outline>
    <contour>
      <point x="0" y="530" type="line"/>
      <point x="120" y="530" type="line"/>
      <point x="210" y="647" type="line"/>
      <point x="130" y="647" type="line"/>
      <point x="220" y="530" type="line"/>
      <point x="340" y="530" type="line"/>
      <point x="240" y="720" type="line"/>
      <point x="100" y="720" type="line"/>
    </contour>
  </outline>
  <guideline angle="90" x="170" y="0"/>
  <guideline angle="0" x="0" y="530"/>
</glyph>
<glyph name="breve" format="2">
  <advance width="410"/>
  <unicode hex="02D8"/>
  <anchor x="205" y="530" name="_top"/>
  <outline>
    <contour>
      <point x="50" y="670" type="line"/>
      <point x="50" y="584"/>
      <point x="110" y="530"/>
      <point x="205" y="530" type="curve" smooth="yes"/>
      <point x="300" y="530"/>
      <point x="360" y="584"/>
      <point x="360" y="670" type="curve"/>
      <point x="235" y="670" type="line"/>
      <point x="235" y="651"/>
      <point x="223" y="638"/>
      <point x="205" y="638" type="curve" smooth="yes"/>
      <point x="187" y="638"/>
      <point x="175" y="651"/>
      <point x="175" y="670" type="curve"/>
    </contour>
  </outline>
  <guideline angle="0" x="0" y="530"/>
</glyph>
<glyph name="dotaccent" format="2">
  <advance width="280"/>
  <unicode hex="02D9"/>
  <outline>
    <contour>
      <point x="66" y="540" type="line"/>
      <point x="214" y="540" type="line"/>
      <point x="214" y="688" type="line"/>
      <point x="66" y="688" type="line"/>
    </contour>
  </outline>
</glyph>
<glyph name="ogonek" format="2">
  <advance width="291"/>
  <unicode hex="02DB"/>
  <outline>
    <contour>
      <point x="40" y="-124" type="curve" smooth="yes"/>
      <point x="40" y="-179"/>
      <point x="77" y="-210"/>
      <point x="142" y="-210" type="curve" smooth="yes"/>
      <point x="188" y="-210"/>
      <point x="231" y="-196"/>
      <point x="251" y="-182" type="curve"/>
      <point x="235" y="-87" type="line"/>
      <point x="225" y="-96"/>
      <point x="216" y="-100"/>
      <point x="208" y="-100" type="curve" smooth="yes"/>
      <point x="194" y="-100"/>
      <point x="181" y="-91"/>
      <point x="181" y="-71" type="curve" smooth="yes"/>
      <point x="181" y="-55"/>
      <point x="190" y="-31"/>
      <point x="231" y="0" type="curve"/>
      <point x="110" y="0" type="line"/>
      <point x="76" y="-25"/>
      <point x="40" y="-70"/>
    </contour>
  </outline>
  <guideline angle="90" x="271" y="0"/>
</glyph>
<glyph name="tilde" format="2">
  <advance width="406"/>
  <unicode hex="02DC"/>
  <anchor x="203" y="530" name="_top"/>
  <outline>
    <contour>
      <point x="50" y="530" type="curve"/>
      <point x="100" y="530" type="line"/>
      <point x="105" y="558"/>
      <point x="120" y="570"/>
      <point x="140" y="570" type="curve" smooth="yes"/>
      <point x="154" y="570"/>
      <point x="170" y="564"/>
      <point x="184" y="557" type="curve"/>
      <point x="199" y="550" type="line" smooth="yes"/>
      <point x="220" y="540"/>
      <point x="241" y="530"/>
      <point x="266" y="530" type="curve" smooth="yes"/>
      <point x="306" y="530"/>
      <point x="342" y="563"/>
      <point x="356" y="650" type="curve"/>
      <point x="306" y="650" type="line"/>
      <point x="301" y="622"/>
      <point x="286" y="610"/>
      <point x="266" y="610" type="curve" smooth="yes"/>
      <point x="252" y="610"/>
      <point x="236" y="616"/>
      <point x="223" y="622" type="curve"/>
      <point x="209" y="629" type="line" smooth="yes"/>
      <point x="187" y="640"/>
      <point x="165" y="650"/>
      <point x="140" y="650" type="curve" smooth="yes"/>
      <point x="100" y="650"/>
      <point x="64" y="617"/>
    </contour>
  </outline>
  <guideline angle="0" x="0" y="530"/>
</glyph>
<glyph name="hungarumlaut" format="2">
  <advance width="535"/>
  <unicode hex="02DD"/>
  <anchor x="226" y="530" name="_top"/>
  <outline>
    <contour>
      <point x="40" y="530" type="line"/>
      <point x="160" y="530" type="line"/>
      <point x="265" y="710" type="line"/>
      <point x="105" y="710" type="line"/>
    </contour>
    <contour>
      <point x="270" y="530" type="line"/>
      <point x="390" y="530" type="line"/>
      <point x="495" y="710" type="line"/>
      <point x="335" y="710" type="line"/>
    </contour>
  </outline>
  <guideline angle="0" x="0" y="530"/>
</glyph>
<glyph name="gravecomb" format="2">
  <unicode hex="0300"/>
  <anchor x="-202" y="530" name="_top"/>
  <outline>
    <contour>
      <point x="-257" y="530" type="line"/>
      <point x="-137" y="530" type="line"/>
      <point x="-202" y="710" type="line"/>
      <point x="-362" y="710" type="line"/>
    </contour>
  </outline>
  <guideline angle="0" x="0" y="700"/>
  <guideline angle="0" x="0" y="530"/>
</glyph>
<glyph name="uni0302" format="2">
  <unicode hex="0302"/>
  <anchor x="-220" y="530" name="_top"/>
  <outline>
    <contour>
      <point x="-390" y="530" type="line"/>
      <point x="-270" y="530" type="line"/>
      <point x="-180" y="647" type="line"/>
      <point x="-260" y="647" type="line"/>
      <point x="-170" y="530" type="line"/>
      <point x="-50" y="530" type="line"/>
      <point x="-150" y="720" type="line"/>
      <point x="-290" y="720" type="line"/>
    </contour>
  </outline>
  <guideline angle="0" x="0" y="530"/>
</glyph>
<glyph name="uni0303" format="2">
  <unicode hex="0303"/>
  <anchor x="-203" y="530" name="_top"/>
  <outline>
    <contour>
      <point x="-356" y="530" type="curve"/>
      <point x="-306" y="530" type="line"/>
      <point x="-301" y="558"/>
      <point x="-286" y="570"/>
      <point x="-266" y="570" type="curve" smooth="yes"/>
      <point x="-252" y="570"/>
      <point x="-236" y="564"/>
      <point x="-222" y="557" type="curve"/>
      <point x="-207" y="550" type="line" smooth="yes"/>
      <point x="-186" y="540"/>
      <point x="-165" y="530"/>
      <point x="-140" y="530" type="curve" smooth="yes"/>
      <point x="-100" y="530"/>
      <point x="-64" y="563"/>
      <point x="-50" y="650" type="curve"/>
      <point x="-100" y="650" type="line"/>
      <point x="-105" y="622"/>
      <point x="-120" y="610"/>
      <point x="-140" y="610" type="curve" smooth="yes"/>
      <point x="-154" y="610"/>
      <point x="-170" y="616"/>
      <point x="-183" y="622" type="curve"/>
      <point x="-197" y="629" type="line" smooth="yes"/>
      <point x="-219" y="640"/>
      <point x="-241" y="650"/>
      <point x="-266" y="650" type="curve" smooth="yes"/>
      <point x="-306" y="650"/>
      <point x="-342" y="617"/>
    </contour>
  </outline>
  <guideline angle="0" x="0" y="530"/>
</glyph>
<glyph name="uni030F" format="2">
  <unicode hex="030F"/>
  <anchor x="-251" y="530" name="_top"/>
  <outline>
    <contour>
      <point x="-427" y="530" type="line"/>
      <point x="-307" y="530" type="line"/>
      <point x="-372" y="710" type="line"/>
      <point x="-532" y="710" type="line"/>
    </contour>
    <contour>
      <point x="-207" y="530" type="line"/>
      <point x="-87" y="530" type="line"/>
      <point x="-152" y="710" type="line"/>
      <point x="-312" y="710" type="line"/>
    </contour>
  </outline>
</glyph>
<glyph name="uni0312" format="2">
  <unicode hex="0312"/>
  <outline>
    <contour>
      <point x="-140" y="790" type="line"/>
      <point x="-234" y="790" type="line"/>
      <point x="-290" y="650" type="line"/>
      <point x="-290" y="510" type="line"/>
      <point x="-130" y="510" type="line"/>
      <point x="-130" y="660" type="line"/>
      <point x="-172" y="660" type="line"/>
    </contour>
  </outline>
</glyph>
<glyph name="uni0313" format="2">
  <unicode hex="0313"/>
  <outline>
    <contour>
      <point x="-180" y="420" type="line"/>
      <point x="-86" y="420" type="line"/>
      <point x="-30" y="560" type="line"/>
      <point x="-30" y="700" type="line"/>
      <point x="-190" y="700" type="line"/>
      <point x="-190" y="550" type="line"/>
      <point x="-148" y="550" type="line"/>
    </contour>
  </outline>
</glyph>
<glyph name="uni0325" format="2">
  <unicode hex="0325"/>
  <anchor x="-280" y="-40" name="_bottom"/>
  <outline>
    <contour>
      <point x="-430" y="-190" type="curve" smooth="yes"/>
      <point x="-430" y="-273"/>
      <point x="-363" y="-340"/>
      <point x="-280" y="-340" type="curve" smooth="yes"/>
      <point x="-197" y="-340"/>
      <point x="-130" y="-273"/>
      <point x="-130" y="-190" type="curve" smooth="yes"/>
      <point x="-130" y="-107"/>
      <point x="-197" y="-40"/>
      <point x="-280" y="-40" type="curve" smooth="yes"/>
      <point x="-363" y="-40"/>
      <point x="-430" y="-107"/>
    </contour>
    <contour>
      <point x="-311" y="-190" type="curve" smooth="yes"/>
      <point x="-311" y="-173"/>
      <point x="-297" y="-159"/>
      <point x="-280" y="-159" type="curve" smooth="yes"/>
      <point x="-263" y="-159"/>
      <point x="-249" y="-173"/>
      <point x="-249" y="-190" type="curve" smooth="yes"/>
      <point x="-249" y="-207"/>
      <point x="-263" y="-221"/>
      <point x="-280" y="-221" type="curve" smooth="yes"/>
      <point x="-297" y="-221"/>
      <point x="-311" y="-207"/>
    </contour>
  </outline>
  <guideline angle="0" x="0" y="530"/>
  <guideline angle="0" x="0" y="-40"/>
  <guideline angle="90" x="-130" y="0"/>
  <guideline angle="90" x="-430" y="0"/>
  <guideline angle="0" x="0" y="-340"/>
  <guideline angle="90" x="-280" y="0"/>
</glyph>
<glyph name="mu" format="2">
  <advance width="478"/>
  <unicode hex="03BC"/>
  <outline>
    <contour>
      <point x="40" y="-200" type="line"/>
      <point x="188" y="-200" type="line"/>
      <point x="188" y="-50" type="line" smooth="yes"/>
      <point x="188" y="-4"/>
      <point x="186" y="42"/>
      <point x="178" y="88" type="curve"/>
      <point x="175" y="86" type="line"/>
      <point x="186" y="22"/>
      <point x="199" y="-16"/>
      <point x="236" y="-16" type="curve" smooth="yes"/>
      <point x="268" y="-16"/>
      <point x="283" y="14"/>
      <point x="293" y="54" type="curve"/>
      <point x="296" y="54" type="line"/>
      <point x="296" y="0" type="line"/>
      <point x="438" y="0" type="line"/>
      <point x="438" y="460" type="line"/>
      <point x="290" y="460" type="line"/>
      <point x="290" y="335" type="line" smooth="yes"/>
      <point x="290" y="192"/>
      <point x="275" y="130"/>
      <point x="237" y="130" type="curve" smooth="yes"/>
      <point x="196" y="130"/>
      <point x="188" y="196"/>
      <point x="188" y="336" type="curve" smooth="yes"/>
      <point x="188" y="460" type="line"/>
      <point x="40" y="460" type="line"/>
    </contour>
  </outline>
</glyph>
<glyph name="uni0402" format="2">
  <advance width="554"/>
  <unicode hex="0402"/>
  <outline>
    <component base="uni040B"/>
    <contour>
      <point x="154" y="-29" type="line"/>
      <point x="154" y="-135"/>
      <point x="218" y="-200"/>
      <point x="323" y="-200" type="curve" smooth="yes"/>
      <point x="430" y="-200"/>
      <point x="514" y="-135"/>
      <point x="514" y="-52" type="curve" smooth="yes"/>
      <point x="514" y="50" type="line"/>
      <point x="356" y="50" type="line"/>
      <point x="356" y="-20" type="line" smooth="yes"/>
      <point x="356" y="-52"/>
      <point x="347" y="-64"/>
      <point x="322" y="-64" type="curve" smooth="yes"/>
      <point x="299" y="-64"/>
      <point x="290" y="-50"/>
      <point x="290" y="-29" type="curve"/>
    </contour>
  </outline>
</glyph>
<glyph name="uni040B" format="2">
  <advance width="544"/>
  <unicode hex="040B"/>
  <outline>
    <component base="T"/>
    <contour>
      <point x="215" y="200" type="line"/>
      <point x="268" y="200" type="line"/>
      <point x="268" y="300"/>
      <point x="295" y="331"/>
      <point x="318" y="331" type="curve" smooth="yes"/>
      <point x="341" y="331"/>
      <point x="356" y="318"/>
      <point x="356" y="284" type="curve" smooth="yes"/>
      <point x="356" y="0" type="line"/>
      <point x="504" y="0" type="line"/>
      <point x="504" y="334" type="line" smooth="yes"/>
      <point x="504" y="427"/>
      <point x="447" y="476"/>
      <point x="379" y="476" type="curve" smooth="yes"/>
      <point x="308" y="476"/>
      <point x="256" y="433"/>
      <point x="231" y="338" type="curve"/>
      <point x="279" y="338" type="line"/>
      <point x="279" y="427" type="line"/>
      <point x="215" y="427" type="line"/>
    </contour>
  </outline>
</glyph>
<glyph name="uni040F" format="2">
  <advance width="536"/>
  <unicode hex="040F"/>
  <outline>
    <contour>
      <point x="50" y="0" type="line"/>
      <point x="486" y="0" type="line"/>
      <point x="486" y="680" type="line"/>
      <point x="328" y="680" type="line"/>
      <point x="328" y="144" type="line"/>
      <point x="208" y="144" type="line"/>
      <point x="208" y="680" type="line"/>
      <point x="50" y="680" type="line"/>
    </contour>
    <contour>
      <point x="195" y="-140" type="line"/>
      <point x="343" y="-140" type="line"/>
      <point x="343" y="15" type="line"/>
      <point x="195" y="15" type="line"/>
    </contour>
  </outline>
  <guideline angle="90" x="269" y="0"/>
</glyph>
<glyph name="uni0411" format="2">
  <advance width="470"/>
  <unicode hex="0411"/>
  <outline>
    <contour>
      <point x="50" y="0" type="line"/>
      <point x="208" y="0" type="line"/>
      <point x="208" y="680" type="line"/>
      <point x="50" y="680" type="line"/>
    </contour>
    <contour>
      <point x="111" y="520" type="line"/>
      <point x="380" y="520" type="line"/>
      <point x="380" y="680" type="line"/>
      <point x="111" y="680" type="line"/>
    </contour>
    <contour>
      <point x="111" y="0" type="line"/>
      <point x="277" y="0" type="line" smooth="yes"/>
      <point x="382" y="0"/>
      <point x="433" y="101"/>
      <point x="433" y="215" type="curve" smooth="yes"/>
      <point x="433" y="337"/>
      <point x="386" y="422"/>
      <point x="277" y="422" type="curve" smooth="yes"/>
      <point x="111" y="422" type="line"/>
      <point x="111" y="262" type="line"/>
      <point x="240" y="262" type="line" smooth="yes"/>
      <point x="265" y="262"/>
      <point x="277" y="247"/>
      <point x="277" y="215" type="curve" smooth="yes"/>
      <point x="277" y="172"/>
      <point x="265" y="160"/>
      <point x="240" y="160" type="curve" smooth="yes"/>
      <point x="111" y="160" type="line"/>
    </contour>
  </outline>
  <guideline angle="90" x="120" y="0"/>
</glyph>
<glyph name="uni0413" format="2">
  <advance width="403"/>
  <unicode hex="0413"/>
  <outline>
    <contour>
      <point x="50" y="0" type="line"/>
      <point x="208" y="0" type="line"/>
      <point x="208" y="680" type="line"/>
      <point x="50" y="680" type="line"/>
    </contour>
    <contour>
      <point x="100" y="520" type="line"/>
      <point x="380" y="520" type="line"/>
      <point x="380" y="680" type="line"/>
      <point x="100" y="680" type="line"/>
    </contour>
  </outline>
</glyph>
<glyph name="uni0414" format="2">
  <advance width="543"/>
  <unicode hex="0414"/>
  <outline>
    <contour>
      <point x="23" y="54" type="line"/>
      <point x="107" y="54"/>
      <point x="239" y="130"/>
      <point x="249" y="352" type="curve" smooth="yes"/>
      <point x="264" y="680" type="line"/>
      <point x="126" y="680" type="line"/>
      <point x="111" y="352" type="line" smooth="yes"/>
      <point x="107" y="269"/>
      <point x="84" y="144"/>
      <point x="23" y="144" type="curve"/>
    </contour>
    <contour>
      <point x="345" y="0" type="line"/>
      <point x="503" y="0" type="line"/>
      <point x="503" y="680" type="line"/>
      <point x="345" y="680" type="line"/>
    </contour>
    <contour>
      <point x="186" y="536" type="line"/>
      <point x="437" y="536" type="line"/>
      <point x="437" y="680" type="line"/>
      <point x="186" y="680" type="line"/>
    </contour>
    <contour>
      <point x="13" y="-140" type="line"/>
      <point x="153" y="-140" type="line"/>
      <point x="153" y="0" type="line"/>
      <point x="416" y="0" type="line"/>
      <point x="416" y="-140" type="line"/>
      <point x="556" y="-140" type="line"/>
      <point x="556" y="144" type="line"/>
      <point x="13" y="144" type="line"/>
    </contour>
  </outline>
</glyph>
<glyph name="uni0416" format="2">
  <advance width="876"/>
  <unicode hex="0416"/>
  <outline>
    <contour>
      <point x="10" y="0" type="line"/>
      <point x="190" y="0" type="line"/>
      <point x="305" y="233" type="line"/>
      <point x="397" y="81" type="line"/>
      <point x="397" y="362" type="line"/>
      <point x="207" y="680" type="line"/>
      <point x="37" y="680" type="line"/>
      <point x="211" y="390" type="line"/>
    </contour>
    <contour>
      <point x="362" y="0" type="line"/>
      <point x="515" y="0" type="line"/>
      <point x="515" y="680" type="line"/>
      <point x="362" y="680" type="line"/>
    </contour>
    <contour>
      <point x="479" y="81" type="line"/>
      <point x="571" y="233" type="line"/>
      <point x="686" y="0" type="line"/>
      <point x="866" y="0" type="line"/>
      <point x="665" y="390" type="line"/>
      <point x="839" y="680" type="line"/>
      <point x="670" y="680" type="line"/>
      <point x="479" y="362" type="line"/>
    </contour>
  </outline>
</glyph>
<glyph name="uni0417" format="2">
  <advance width="453"/>
  <unicode hex="0417"/>
  <outline>
    <contour>
      <point x="38" y="205" type="line"/>
      <point x="38" y="73"/>
      <point x="112" y="-16"/>
      <point x="223" y="-16" type="curve" smooth="yes"/>
      <point x="341" y="-16"/>
      <point x="416" y="70"/>
      <point x="416" y="209" type="curve" smooth="yes"/>
      <point x="416" y="304"/>
      <point x="368" y="372"/>
      <point x="293" y="382" type="curve"/>
      <point x="293" y="359" type="line"/>
      <point x="347" y="386"/>
      <point x="386" y="449"/>
      <point x="386" y="512" type="curve" smooth="yes"/>
      <point x="386" y="619"/>
      <point x="317" y="690"/>
      <point x="213" y="690" type="curve" smooth="yes"/>
      <point x="113" y="690"/>
      <point x="38" y="604"/>
      <point x="38" y="490" type="curve"/>
      <point x="176" y="490" type="line"/>
      <point x="176" y="514"/>
      <point x="188" y="530"/>
      <point x="203" y="530" type="curve" smooth="yes"/>
      <point x="218" y="530"/>
      <point x="230" y="513"/>
      <point x="230" y="485" type="curve" smooth="yes"/>
      <point x="230" y="454"/>
      <point x="215" y="427"/>
      <point x="200" y="427" type="curve" smooth="yes"/>
      <point x="167" y="427" type="line"/>
      <point x="167" y="287" type="line"/>
      <point x="226" y="287" type="line" smooth="yes"/>
      <point x="247" y="287"/>
      <point x="260" y="254"/>
      <point x="260" y="216" type="curve" smooth="yes"/>
      <point x="260" y="174"/>
      <point x="242" y="144"/>
      <point x="218" y="144" type="curve" smooth="yes"/>
      <point x="192" y="144"/>
      <point x="176" y="168"/>
      <point x="176" y="205" type="curve"/>
    </contour>
  </outline>
</glyph>
<glyph name="uni0418" format="2">
  <advance width="608"/>
  <unicode hex="0418"/>
  <anchor x="304" y="740" name="top"/>
  <outline>
    <contour>
      <point x="50" y="0" type="line"/>
      <point x="229" y="0" type="line"/>
      <point x="391" y="374" type="line" smooth="yes"/>
      <point x="406" y="409"/>
      <point x="414" y="435"/>
      <point x="423" y="467" type="curve"/>
      <point x="407" y="467" type="line"/>
      <point x="403" y="439"/>
      <point x="400" y="377"/>
      <point x="400" y="350" type="curve" smooth="yes"/>
      <point x="400" y="0" type="line"/>
      <point x="558" y="0" type="line"/>
      <point x="558" y="680" type="line"/>
      <point x="379" y="680" type="line"/>
      <point x="215" y="326" type="line" smooth="yes"/>
      <point x="201" y="295"/>
      <point x="191" y="262"/>
      <point x="184" y="234" type="curve"/>
      <point x="200" y="234" type="line"/>
      <point x="205" y="262"/>
      <point x="208" y="300"/>
      <point x="208" y="350" type="curve" smooth="yes"/>
      <point x="208" y="680" type="line"/>
      <point x="50" y="680" type="line"/>
    </contour>
  </outline>
  <guideline angle="0" x="0" y="370"/>
  <guideline angle="90" x="304" y="0"/>
  <guideline angle="0" x="0" y="563"/>
  <guideline angle="66.5799" x="229" y="0"/>
</glyph>
<glyph name="uni041A" format="2">
  <advance width="568"/>
  <unicode hex="041A"/>
  <anchor x="292" y="-40" name="bottom"/>
  <anchor x="292" y="740" name="top"/>
  <outline>
    <contour>
      <point x="50" y="0" type="line"/>
      <point x="208" y="0" type="line"/>
      <point x="208" y="680" type="line"/>
      <point x="50" y="680" type="line"/>
    </contour>
    <contour>
      <point x="208" y="277" type="line"/>
      <point x="314" y="277" type="line"/>
      <point x="548" y="680" type="line"/>
      <point x="367" y="680" type="line"/>
      <point x="215" y="410" type="line"/>
      <point x="260" y="427" type="line"/>
      <point x="208" y="427" type="line"/>
    </contour>
    <contour>
      <point x="228" y="293" type="line"/>
      <point x="376" y="0" type="line"/>
      <point x="558" y="0" type="line"/>
      <point x="335" y="439" type="line"/>
    </contour>
  </outline>
  <guideline angle="0" x="0" y="217"/>
</glyph>
<glyph name="uni041B" format="2">
  <advance width="518"/>
  <unicode hex="041B"/>
  <outline>
    <contour>
      <point x="40" y="0" type="line"/>
      <point x="63" y="0" type="line" smooth="yes"/>
      <point x="179" y="0"/>
      <point x="238" y="109"/>
      <point x="249" y="352" type="curve" smooth="yes"/>
      <point x="264" y="680" type="line"/>
      <point x="111" y="680" type="line"/>
      <point x="92" y="250" type="line" smooth="yes"/>
      <point x="89" y="206"/>
      <point x="75" y="176"/>
      <point x="56" y="176" type="curve" smooth="yes"/>
      <point x="40" y="176" type="line"/>
    </contour>
    <contour>
      <point x="315" y="0" type="line"/>
      <point x="468" y="0" type="line"/>
      <point x="468" y="680" type="line"/>
      <point x="315" y="680" type="line"/>
    </contour>
    <contour>
      <point x="166" y="520" type="line"/>
      <point x="437" y="520" type="line"/>
      <point x="437" y="680" type="line"/>
      <point x="166" y="680" type="line"/>
    </contour>
  </outline>
</glyph>
<glyph name="uni041F" format="2">
  <advance width="526"/>
  <unicode hex="041F"/>
  <outline>
    <contour>
      <point x="50" y="0" type="line"/>
      <point x="208" y="0" type="line"/>
      <point x="208" y="536" type="line"/>
      <point x="318" y="536" type="line"/>
      <point x="318" y="0" type="line"/>
      <point x="476" y="0" type="line"/>
      <point x="476" y="680" type="line"/>
      <point x="50" y="680" type="line"/>
    </contour>
  </outline>
</glyph>
<glyph name="uni0423" format="2">
  <advance width="475"/>
  <unicode hex="0423"/>
  <outline>
    <contour>
      <point x="30" y="680" type="line"/>
      <point x="186" y="125" type="line"/>
      <point x="309" y="211" type="line"/>
      <point x="186" y="680" type="line"/>
    </contour>
    <contour>
      <point x="77" y="0" type="line"/>
      <point x="100" y="0" type="line" smooth="yes"/>
      <point x="216" y="0"/>
      <point x="304" y="27"/>
      <point x="336" y="158" type="curve" smooth="yes"/>
      <point x="465" y="680" type="line"/>
      <point x="314" y="680" type="line"/>
      <point x="207" y="256" type="line" smooth="yes"/>
      <point x="191" y="194"/>
      <point x="165" y="176"/>
      <point x="93" y="176" type="curve" smooth="yes"/>
      <point x="77" y="176" type="line"/>
    </contour>
  </outline>
</glyph>
<glyph name="uni0424" format="2">
  <advance width="641"/>
  <unicode hex="0424"/>
  <outline>
    <contour>
      <point x="38" y="349" type="curve" smooth="yes"/>
      <point x="38" y="186"/>
      <point x="108" y="69"/>
      <point x="254" y="69" type="curve" smooth="yes"/>
      <point x="270" y="69"/>
      <point x="288" y="70"/>
      <point x="307" y="73" type="curve"/>
      <point x="307" y="236" type="line"/>
      <point x="288" y="229"/>
      <point x="272" y="226"/>
      <point x="259" y="226" type="curve" smooth="yes"/>
      <point x="226" y="226"/>
      <point x="194" y="276"/>
      <point x="194" y="350" type="curve" smooth="yes"/>
      <point x="194" y="431"/>
      <point x="226" y="472"/>
      <point x="259" y="472" type="curve" smooth="yes"/>
      <point x="272" y="472"/>
      <point x="288" y="469"/>
      <point x="307" y="462" type="curve"/>
      <point x="307" y="625" type="line"/>
      <point x="289" y="628"/>
      <point x="273" y="629"/>
      <point x="259" y="629" type="curve" smooth="yes"/>
      <point x="110" y="629"/>
      <point x="38" y="509"/>
    </contour>
    <contour>
      <point x="244" y="0" type="line"/>
      <point x="397" y="0" type="line"/>
      <point x="397" y="690" type="line"/>
      <point x="244" y="690" type="line"/>
    </contour>
    <contour>
      <point x="334" y="73" type="line"/>
      <point x="352" y="70"/>
      <point x="368" y="69"/>
      <point x="382" y="69" type="curve" smooth="yes"/>
      <point x="530" y="69"/>
      <point x="602" y="189"/>
      <point x="602" y="349" type="curve" smooth="yes"/>
      <point x="602" y="512"/>
      <point x="533" y="629"/>
      <point x="386" y="629" type="curve" smooth="yes"/>
      <point x="371" y="629"/>
      <point x="353" y="628"/>
      <point x="334" y="625" type="curve"/>
      <point x="334" y="462" type="line"/>
      <point x="353" y="469"/>
      <point x="369" y="472"/>
      <point x="382" y="472" type="curve" smooth="yes"/>
      <point x="415" y="472"/>
      <point x="446" y="422"/>
      <point x="446" y="348" type="curve" smooth="yes"/>
      <point x="446" y="267"/>
      <point x="415" y="226"/>
      <point x="382" y="226" type="curve" smooth="yes"/>
      <point x="369" y="226"/>
      <point x="353" y="229"/>
      <point x="334" y="236" type="curve"/>
    </contour>
  </outline>
</glyph>
<glyph name="uni0426" format="2">
  <advance width="509"/>
  <unicode hex="0426"/>
  <outline>
    <contour>
      <point x="50" y="0" type="line"/>
      <point x="203" y="0" type="line"/>
      <point x="203" y="680" type="line"/>
      <point x="50" y="680" type="line"/>
    </contour>
    <contour>
      <point x="272" y="0" type="line"/>
      <point x="425" y="0" type="line"/>
      <point x="425" y="680" type="line"/>
      <point x="272" y="680" type="line"/>
    </contour>
    <contour>
      <point x="120" y="0" type="line"/>
      <point x="381" y="0" type="line"/>
      <point x="381" y="158" type="line"/>
      <point x="120" y="158" type="line"/>
    </contour>
    <contour>
      <point x="363" y="0" type="line"/>
      <point x="372" y="0" type="line"/>
      <point x="372" y="-140" type="line"/>
      <point x="509" y="-140" type="line"/>
      <point x="509" y="158" type="line"/>
      <point x="363" y="158" type="line"/>
    </contour>
  </outline>
</glyph>
<glyph name="uni0427" format="2">
  <advance width="451"/>
  <unicode hex="0427"/>
  <outline>
    <contour>
      <point x="38" y="450" type="line" smooth="yes"/>
      <point x="38" y="278"/>
      <point x="110" y="237"/>
      <point x="209" y="237" type="curve" smooth="yes"/>
      <point x="307" y="237" type="line"/>
      <point x="307" y="397" type="line"/>
      <point x="240" y="397" type="line" smooth="yes"/>
      <point x="179" y="397"/>
      <point x="176" y="439"/>
      <point x="176" y="500" type="curve" smooth="yes"/>
      <point x="176" y="680" type="line"/>
      <point x="38" y="680" type="line"/>
    </contour>
    <contour>
      <point x="248" y="0" type="line"/>
      <point x="401" y="0" type="line"/>
      <point x="401" y="680" type="line"/>
      <point x="248" y="680" type="line"/>
    </contour>
  </outline>
</glyph>
<glyph name="uni0428" format="2">
  <advance width="678"/>
  <unicode hex="0428"/>
  <outline>
    <contour>
      <point x="102" y="0" type="line"/>
      <point x="585" y="0" type="line"/>
      <point x="585" y="158" type="line"/>
      <point x="102" y="158" type="line"/>
    </contour>
    <contour>
      <point x="50" y="0" type="line"/>
      <point x="203" y="0" type="line"/>
      <point x="203" y="680" type="line"/>
      <point x="50" y="680" type="line"/>
    </contour>
    <contour>
      <point x="260" y="0" type="line"/>
      <point x="413" y="0" type="line"/>
      <point x="413" y="680" type="line"/>
      <point x="260" y="680" type="line"/>
    </contour>
    <contour>
      <point x="475" y="0" type="line"/>
      <point x="628" y="0" type="line"/>
      <point x="628" y="680" type="line"/>
      <point x="475" y="680" type="line"/>
    </contour>
  </outline>
</glyph>
<glyph name="uni0429" format="2">
  <advance width="705"/>
  <unicode hex="0429"/>
  <outline>
    <contour>
      <point x="90" y="0" type="line"/>
      <point x="573" y="0" type="line"/>
      <point x="573" y="158" type="line"/>
      <point x="90" y="158" type="line"/>
    </contour>
    <contour>
      <point x="564" y="-140" type="line"/>
      <point x="701" y="-140" type="line"/>
      <point x="701" y="158" type="line"/>
      <point x="555" y="158" type="line"/>
      <point x="555" y="0" type="line"/>
      <point x="564" y="0" type="line"/>
    </contour>
    <contour>
      <point x="38" y="0" type="line"/>
      <point x="191" y="0" type="line"/>
      <point x="191" y="680" type="line"/>
      <point x="38" y="680" type="line"/>
    </contour>
    <contour>
      <point x="248" y="0" type="line"/>
      <point x="401" y="0" type="line"/>
      <point x="401" y="680" type="line"/>
      <point x="248" y="680" type="line"/>
    </contour>
    <contour>
      <point x="462" y="0" type="line"/>
      <point x="615" y="0" type="line"/>
      <point x="615" y="680" type="line"/>
      <point x="462" y="680" type="line"/>
    </contour>
  </outline>
</glyph>
<glyph name="uni042A" format="2">
  <advance width="570"/>
  <unicode hex="042A"/>
  <anchor x="288" y="740" name="top"/>
  <outline>
    <contour>
      <point x="145" y="0" type="line"/>
      <point x="303" y="0" type="line"/>
      <point x="303" y="680" type="line"/>
      <point x="145" y="680" type="line"/>
    </contour>
    <contour>
      <point x="38" y="520" type="line"/>
      <point x="236" y="520" type="line"/>
      <point x="236" y="680" type="line"/>
      <point x="38" y="680" type="line"/>
    </contour>
    <contour>
      <point x="206" y="0" type="line"/>
      <point x="358" y="0" type="line" smooth="yes"/>
      <point x="467" y="0"/>
      <point x="540" y="92"/>
      <point x="540" y="230" type="curve" smooth="yes"/>
      <point x="540" y="363"/>
      <point x="467" y="452"/>
      <point x="358" y="452" type="curve" smooth="yes"/>
      <point x="206" y="452" type="line"/>
      <point x="206" y="292" type="line"/>
      <point x="327" y="292" type="line" smooth="yes"/>
      <point x="358" y="292"/>
      <point x="378" y="266"/>
      <point x="378" y="226" type="curve" smooth="yes"/>
      <point x="378" y="184"/>
      <point x="359" y="160"/>
      <point x="327" y="160" type="curve" smooth="yes"/>
      <point x="206" y="160" type="line"/>
    </contour>
  </outline>
</glyph>
<glyph name="uni042B" format="2">
  <advance width="708"/>
  <unicode hex="042B"/>
  <anchor x="338" y="740" name="top"/>
  <outline>
    <contour>
      <point x="500" y="0" type="line"/>
      <point x="658" y="0" type="line"/>
      <point x="658" y="680" type="line"/>
      <point x="500" y="680" type="line"/>
    </contour>
    <contour>
      <point x="143" y="0" type="line"/>
      <point x="277" y="0" type="line" smooth="yes"/>
      <point x="382" y="0"/>
      <point x="435" y="101"/>
      <point x="435" y="215" type="curve" smooth="yes"/>
      <point x="435" y="337"/>
      <point x="386" y="422"/>
      <point x="277" y="422" type="curve" smooth="yes"/>
      <point x="143" y="422" type="line"/>
      <point x="143" y="262" type="line"/>
      <point x="240" y="262" type="line" smooth="yes"/>
      <point x="265" y="262"/>
      <point x="277" y="247"/>
      <point x="277" y="215" type="curve" smooth="yes"/>
      <point x="277" y="172"/>
      <point x="265" y="160"/>
      <point x="240" y="160" type="curve" smooth="yes"/>
      <point x="143" y="160" type="line"/>
    </contour>
    <contour>
      <point x="50" y="0" type="line"/>
      <point x="208" y="0" type="line"/>
      <point x="208" y="680" type="line"/>
      <point x="50" y="680" type="line"/>
    </contour>
  </outline>
</glyph>
<glyph name="uni042D" format="2">
  <advance width="540"/>
  <unicode hex="042D"/>
  <anchor x="284" y="740" name="top"/>
  <outline>
    <contour>
      <point x="30" y="218" type="line"/>
      <point x="37" y="79"/>
      <point x="131" y="-16"/>
      <point x="260" y="-16" type="curve" smooth="yes"/>
      <point x="409" y="-16"/>
      <point x="510" y="135"/>
      <point x="510" y="356" type="curve" smooth="yes"/>
      <point x="510" y="575"/>
      <point x="421" y="696"/>
      <point x="269" y="696" type="curve" smooth="yes"/>
      <point x="145" y="696"/>
      <point x="62" y="611"/>
      <point x="30" y="450" type="curve"/>
      <point x="182" y="450" type="line"/>
      <point x="194" y="507"/>
      <point x="223" y="546"/>
      <point x="270" y="546" type="curve" smooth="yes"/>
      <point x="323" y="546"/>
      <point x="357" y="497"/>
      <point x="357" y="354" type="curve" smooth="yes"/>
      <point x="357" y="219"/>
      <point x="319" y="134"/>
      <point x="260" y="134" type="curve" smooth="yes"/>
      <point x="221" y="134"/>
      <point x="191" y="167"/>
      <point x="182" y="218" type="curve"/>
    </contour>
    <contour>
      <point x="252" y="282" type="line"/>
      <point x="382" y="282" type="line"/>
      <point x="382" y="432" type="line"/>
      <point x="252" y="432" type="line"/>
    </contour>
  </outline>
</glyph>
<glyph name="uni042E" format="2">
  <advance width="755"/>
  <unicode hex="042E"/>
  <outline>
    <contour>
      <point x="170" y="267" type="line"/>
      <point x="266" y="267" type="line"/>
      <point x="266" y="427" type="line"/>
      <point x="170" y="427" type="line"/>
    </contour>
    <contour>
      <point x="233" y="340" type="curve" smooth="yes"/>
      <point x="233" y="135"/>
      <point x="304" y="-16"/>
      <point x="475" y="-16" type="curve" smooth="yes"/>
      <point x="635" y="-16"/>
      <point x="725" y="114"/>
      <point x="725" y="340" type="curve" smooth="yes"/>
      <point x="725" y="566"/>
      <point x="635" y="696"/>
      <point x="475" y="696" type="curve" smooth="yes"/>
      <point x="304" y="696"/>
      <point x="233" y="543"/>
    </contour>
    <contour>
      <point x="380" y="340" type="curve" smooth="yes"/>
      <point x="380" y="455"/>
      <point x="417" y="536"/>
      <point x="475" y="536" type="curve" smooth="yes"/>
      <point x="533" y="536"/>
      <point x="569" y="455"/>
      <point x="569" y="340" type="curve" smooth="yes"/>
      <point x="569" y="225"/>
      <point x="533" y="144"/>
      <point x="475" y="144" type="curve" smooth="yes"/>
      <point x="417" y="144"/>
      <point x="380" y="225"/>
    </contour>
    <contour>
      <point x="50" y="0" type="line"/>
      <point x="203" y="0" type="line"/>
      <point x="203" y="680" type="line"/>
      <point x="50" y="680" type="line"/>
    </contour>
  </outline>
</glyph>
<glyph name="uni042F" format="2">
  <advance width="491"/>
  <unicode hex="042F"/>
  <outline>
    <contour>
      <point x="38" y="468" type="curve" smooth="yes"/>
      <point x="38" y="330"/>
      <point x="116" y="250"/>
      <point x="215" y="250" type="curve" smooth="yes"/>
      <point x="359" y="250" type="line"/>
      <point x="359" y="410" type="line"/>
      <point x="233" y="410" type="line" smooth="yes"/>
      <point x="213" y="410"/>
      <point x="194" y="427"/>
      <point x="194" y="464" type="curve" smooth="yes"/>
      <point x="194" y="511"/>
      <point x="215" y="520"/>
      <point x="230" y="520" type="curve" smooth="yes"/>
      <point x="416" y="520" type="line"/>
      <point x="416" y="680" type="line"/>
      <point x="230" y="680" type="line" smooth="yes"/>
      <point x="120" y="680"/>
      <point x="38" y="610"/>
    </contour>
    <contour>
      <point x="31" y="0" type="line"/>
      <point x="205" y="0" type="line"/>
      <point x="317" y="292" type="line"/>
      <point x="150" y="292" type="line"/>
    </contour>
    <contour>
      <point x="288" y="0" type="line"/>
      <point x="441" y="0" type="line"/>
      <point x="441" y="680" type="line"/>
      <point x="288" y="680" type="line"/>
    </contour>
  </outline>
</glyph>
<glyph name="uni0431" format="2">
  <advance width="432"/>
  <unicode hex="0431"/>
  <outline>
    <contour>
      <point x="182" y="218" type="curve" smooth="yes"/>
      <point x="182" y="265"/>
      <point x="194" y="296"/>
      <point x="216" y="296" type="curve" smooth="yes"/>
      <point x="237" y="296"/>
      <point x="251" y="265"/>
      <point x="251" y="216" type="curve" smooth="yes"/>
      <point x="251" y="167"/>
      <point x="237" y="134"/>
      <point x="213" y="134" type="curve" smooth="yes"/>
      <point x="196" y="134"/>
      <point x="182" y="166"/>
    </contour>
    <contour>
      <point x="30" y="173" type="line" smooth="yes"/>
      <point x="30" y="59"/>
      <point x="106" y="-16"/>
      <point x="219" y="-16" type="curve" smooth="yes"/>
      <point x="328" y="-16"/>
      <point x="402" y="87"/>
      <point x="402" y="240" type="curve" smooth="yes"/>
      <point x="402" y="368"/>
      <point x="350" y="446"/>
      <point x="264" y="446" type="curve" smooth="yes"/>
      <point x="213" y="446"/>
      <point x="153" y="409"/>
      <point x="134" y="353" type="curve"/>
      <point x="153" y="353" type="line"/>
      <point x="157" y="370"/>
      <point x="159" y="387"/>
      <point x="159" y="405" type="curve" smooth="yes"/>
      <point x="159" y="439"/>
      <point x="192" y="468"/>
      <point x="255" y="494" type="curve" smooth="yes"/>
      <point x="293" y="509"/>
      <point x="323" y="530"/>
      <point x="343" y="563" type="curve"/>
      <point x="343" y="700" type="line"/>
      <point x="330" y="700" type="line"/>
      <point x="294" y="678"/>
      <point x="260" y="662"/>
      <point x="229" y="651" type="curve" smooth="yes"/>
      <point x="84" y="596"/>
      <point x="30" y="528"/>
      <point x="30" y="389" type="curve" smooth="yes"/>
    </contour>
  </outline>
</glyph>
<glyph name="uni0432" format="2">
  <advance width="406"/>
  <unicode hex="0432"/>
  <outline>
    <contour>
      <point x="40" y="0" type="line"/>
      <point x="188" y="0" type="line"/>
      <point x="188" y="460" type="line"/>
      <point x="40" y="460" type="line"/>
    </contour>
    <contour>
      <point x="107" y="0" type="line"/>
      <point x="248" y="0" type="line" smooth="yes"/>
      <point x="331" y="0"/>
      <point x="376" y="49"/>
      <point x="376" y="139" type="curve" smooth="yes"/>
      <point x="376" y="256"/>
      <point x="263" y="281"/>
      <point x="195" y="281" type="curve" smooth="yes"/>
      <point x="107" y="281" type="line"/>
      <point x="107" y="175" type="line"/>
      <point x="191" y="175" type="line" smooth="yes"/>
      <point x="212" y="175"/>
      <point x="224" y="171"/>
      <point x="224" y="138" type="curve" smooth="yes"/>
      <point x="224" y="118"/>
      <point x="213" y="106"/>
      <point x="191" y="106" type="curve" smooth="yes"/>
      <point x="107" y="106" type="line"/>
    </contour>
    <contour>
      <point x="107" y="354" type="line"/>
      <point x="210" y="354" type="line" smooth="yes"/>
      <point x="221" y="354"/>
      <point x="224" y="332"/>
      <point x="224" y="319" type="curve" smooth="yes"/>
      <point x="224" y="295"/>
      <point x="220" y="281"/>
      <point x="210" y="281" type="curve" smooth="yes"/>
      <point x="170" y="281" type="line"/>
      <point x="170" y="248" type="line"/>
      <point x="287" y="248" type="line" smooth="yes"/>
      <point x="331" y="248"/>
      <point x="361" y="289"/>
      <point x="361" y="352" type="curve" smooth="yes"/>
      <point x="361" y="429"/>
      <point x="324" y="460"/>
      <point x="237" y="460" type="curve" smooth="yes"/>
      <point x="107" y="460" type="line"/>
    </contour>
  </outline>
</glyph>
<glyph name="uni0434" format="2">
  <advance width="437"/>
  <unicode hex="0434"/>
  <outline>
    <contour>
      <point x="7" y="-140" type="line"/>
      <point x="121" y="-140" type="line"/>
      <point x="129" y="0" type="line"/>
      <point x="308" y="0" type="line"/>
      <point x="316" y="-140" type="line"/>
      <point x="430" y="-140" type="line"/>
      <point x="430" y="140" type="line"/>
      <point x="7" y="140" type="line"/>
    </contour>
    <contour>
      <point x="15" y="3" type="line"/>
      <point x="59" y="3" type="line" smooth="yes"/>
      <point x="109" y="3"/>
      <point x="193" y="13"/>
      <point x="208" y="310" type="curve" smooth="yes"/>
      <point x="216" y="460" type="line"/>
      <point x="79" y="460" type="line"/>
      <point x="72" y="290" type="line" smooth="yes"/>
      <point x="69" y="217"/>
      <point x="49" y="140"/>
      <point x="15" y="140" type="curve"/>
    </contour>
    <contour>
      <point x="86" y="320" type="line"/>
      <point x="373" y="320" type="line"/>
      <point x="373" y="460" type="line"/>
      <point x="86" y="460" type="line"/>
    </contour>
    <contour>
      <point x="247" y="0" type="line"/>
      <point x="396" y="0" type="line"/>
      <point x="396" y="460" type="line"/>
      <point x="247" y="460" type="line"/>
    </contour>
  </outline>
</glyph>
<glyph name="uni0436" format="2">
  <advance width="705"/>
  <unicode hex="0436"/>
  <outline>
    <contour>
      <point x="416" y="183" type="line"/>
      <point x="518" y="0" type="line"/>
      <point x="695" y="0" type="line"/>
      <point x="513" y="327" type="line"/>
    </contour>
    <contour>
      <point x="379" y="36" type="line"/>
      <point x="662" y="460" type="line"/>
      <point x="485" y="460" type="line"/>
      <point x="379" y="302" type="line"/>
    </contour>
    <contour>
      <point x="10" y="0" type="line"/>
      <point x="187" y="0" type="line"/>
      <point x="289" y="183" type="line"/>
      <point x="192" y="327" type="line"/>
    </contour>
    <contour>
      <point x="43" y="460" type="line"/>
      <point x="325" y="36" type="line"/>
      <point x="325" y="302" type="line"/>
      <point x="220" y="460" type="line"/>
    </contour>
    <contour>
      <point x="278" y="0" type="line"/>
      <point x="427" y="0" type="line"/>
      <point x="427" y="460" type="line"/>
      <point x="278" y="460" type="line"/>
    </contour>
  </outline>
</glyph>
<glyph name="uni0437" format="2">
  <advance width="377"/>
  <unicode hex="0437"/>
  <outline>
    <contour>
      <point x="30" y="160" type="line"/>
      <point x="42" y="38"/>
      <point x="102" y="-16"/>
      <point x="190" y="-16" type="curve" smooth="yes"/>
      <point x="281" y="-16"/>
      <point x="347" y="51"/>
      <point x="347" y="140" type="curve" smooth="yes"/>
      <point x="347" y="192"/>
      <point x="326" y="234"/>
      <point x="272" y="257" type="curve"/>
      <point x="270" y="236" type="line"/>
      <point x="320" y="261"/>
      <point x="338" y="296"/>
      <point x="338" y="338" type="curve" smooth="yes"/>
      <point x="338" y="421"/>
      <point x="279" y="476"/>
      <point x="190" y="476" type="curve" smooth="yes"/>
      <point x="107" y="476"/>
      <point x="41" y="419"/>
      <point x="30" y="310" type="curve"/>
      <point x="181" y="310" type="line"/>
      <point x="181" y="321"/>
      <point x="182" y="326"/>
      <point x="183" y="326" type="curve" smooth="yes"/>
      <point x="186" y="326"/>
      <point x="187" y="320"/>
      <point x="187" y="305" type="curve" smooth="yes"/>
      <point x="187" y="294"/>
      <point x="184" y="285"/>
      <point x="179" y="285" type="curve" smooth="yes"/>
      <point x="148" y="285" type="line"/>
      <point x="148" y="185" type="line"/>
      <point x="198" y="185" type="line" smooth="yes"/>
      <point x="206" y="185"/>
      <point x="210" y="170"/>
      <point x="210" y="158" type="curve" smooth="yes"/>
      <point x="210" y="140"/>
      <point x="204" y="134"/>
      <point x="194" y="134" type="curve" smooth="yes"/>
      <point x="188" y="134"/>
      <point x="181" y="142"/>
      <point x="181" y="160" type="curve"/>
    </contour>
  </outline>
</glyph>
<glyph name="uni0438" format="2">
  <advance width="463"/>
  <unicode hex="0438"/>
  <anchor x="232" y="530" name="top"/>
  <outline>
    <contour>
      <point x="40" y="0" type="line"/>
      <point x="186" y="0" type="line"/>
      <point x="265" y="159" type="line" smooth="yes"/>
      <point x="270" y="169"/>
      <point x="273" y="177"/>
      <point x="276" y="188" type="curve"/>
      <point x="271" y="186" type="line"/>
      <point x="281" y="186" type="line"/>
      <point x="277" y="188" type="line"/>
      <point x="275" y="177"/>
      <point x="275" y="169"/>
      <point x="275" y="159" type="curve" smooth="yes"/>
      <point x="275" y="0" type="line"/>
      <point x="423" y="0" type="line"/>
      <point x="423" y="460" type="line"/>
      <point x="276" y="460" type="line"/>
      <point x="198" y="301" type="line" smooth="yes"/>
      <point x="193" y="291"/>
      <point x="190" y="282"/>
      <point x="187" y="272" type="curve"/>
      <point x="192" y="274" type="line"/>
      <point x="182" y="274" type="line"/>
      <point x="186" y="272" type="line"/>
      <point x="188" y="281"/>
      <point x="188" y="291"/>
      <point x="188" y="301" type="curve" smooth="yes"/>
      <point x="188" y="460" type="line"/>
      <point x="40" y="460" type="line"/>
    </contour>
  </outline>
</glyph>
<glyph name="uni043A" format="2">
  <advance width="467"/>
  <unicode hex="043A"/>
  <outline>
    <contour>
      <point x="40" y="0" type="line"/>
      <point x="188" y="0" type="line"/>
      <point x="188" y="460" type="line"/>
      <point x="40" y="460" type="line"/>
    </contour>
    <contour>
      <point x="141" y="36" type="line"/>
      <point x="424" y="460" type="line"/>
      <point x="247" y="460" type="line"/>
      <point x="141" y="302" type="line"/>
    </contour>
    <contour>
      <point x="178" y="183" type="line"/>
      <point x="280" y="0" type="line"/>
      <point x="457" y="0" type="line"/>
      <point x="275" y="327" type="line"/>
    </contour>
  </outline>
</glyph>
<glyph name="uni043B" format="2">
  <advance width="433"/>
  <unicode hex="043B"/>
  <outline>
    <contour>
      <point x="10" y="0" type="line"/>
      <point x="64" y="0" type="line" smooth="yes"/>
      <point x="163" y="0"/>
      <point x="199" y="61"/>
      <point x="211" y="310" type="curve" smooth="yes"/>
      <point x="219" y="460" type="line"/>
      <point x="75" y="460" type="line"/>
      <point x="67" y="290" type="line" smooth="yes"/>
      <point x="62" y="165"/>
      <point x="45" y="152"/>
      <point x="10" y="152" type="curve"/>
    </contour>
    <contour>
      <point x="97" y="320" type="line"/>
      <point x="340" y="320" type="line"/>
      <point x="340" y="460" type="line"/>
      <point x="97" y="460" type="line"/>
    </contour>
    <contour>
      <point x="244" y="0" type="line"/>
      <point x="393" y="0" type="line"/>
      <point x="393" y="460" type="line"/>
      <point x="244" y="460" type="line"/>
    </contour>
  </outline>
</glyph>
<glyph name="uni043C" format="2">
  <advance width="636"/>
  <unicode hex="043C"/>
  <outline>
    <contour>
      <point x="40" y="0" type="line"/>
      <point x="188" y="0" type="line"/>
      <point x="188" y="154" type="line" smooth="yes"/>
      <point x="188" y="181"/>
      <point x="187" y="188"/>
      <point x="185" y="200" type="curve"/>
      <point x="173" y="186" type="line"/>
      <point x="204" y="186" type="line"/>
      <point x="189" y="200" type="line"/>
      <point x="189" y="191"/>
      <point x="191" y="179"/>
      <point x="196" y="154" type="curve" smooth="yes"/>
      <point x="228" y="0" type="line"/>
      <point x="408" y="0" type="line"/>
      <point x="440" y="155" type="line" smooth="yes"/>
      <point x="445" y="180"/>
      <point x="445" y="192"/>
      <point x="445" y="200" type="curve"/>
      <point x="435" y="186" type="line"/>
      <point x="456" y="186" type="line"/>
      <point x="450" y="200" type="line"/>
      <point x="449" y="192"/>
      <point x="448" y="180"/>
      <point x="448" y="155" type="curve" smooth="yes"/>
      <point x="448" y="0" type="line"/>
      <point x="596" y="0" type="line"/>
      <point x="596" y="460" type="line"/>
      <point x="390" y="460" type="line"/>
      <point x="333" y="230" type="line" smooth="yes"/>
      <point x="323" y="191"/>
      <point x="320" y="167"/>
      <point x="320" y="120" type="curve"/>
      <point x="331" y="132" type="line"/>
      <point x="302" y="132" type="line"/>
      <point x="316" y="120" type="line"/>
      <point x="316" y="167"/>
      <point x="314" y="191"/>
      <point x="304" y="230" type="curve" smooth="yes"/>
      <point x="246" y="460" type="line"/>
      <point x="40" y="460" type="line"/>
    </contour>
  </outline>
  <guideline angle="0" x="0" y="422"/>
  <guideline angle="0" x="0" y="90"/>
  <guideline angle="90" x="318" y="0"/>
  <guideline angle="0" x="0" y="230"/>
  <guideline angle="0" x="0" y="186"/>
  <guideline angle="0" x="0" y="200"/>
  <guideline angle="0" x="0" y="154"/>
</glyph>
<glyph name="uni043D" format="2">
  <advance width="444"/>
  <unicode hex="043D"/>
  <outline>
    <contour>
      <point x="40" y="0" type="line"/>
      <point x="188" y="0" type="line"/>
      <point x="188" y="460" type="line"/>
      <point x="40" y="460" type="line"/>
    </contour>
    <contour>
      <point x="95" y="168" type="line"/>
      <point x="357" y="168" type="line"/>
      <point x="357" y="308" type="line"/>
      <point x="95" y="308" type="line"/>
    </contour>
    <contour>
      <point x="256" y="0" type="line"/>
      <point x="404" y="0" type="line"/>
      <point x="404" y="460" type="line"/>
      <point x="256" y="460" type="line"/>
    </contour>
  </outline>
</glyph>
<glyph name="uni043F" format="2">
  <advance width="423"/>
  <unicode hex="043F"/>
  <outline>
    <contour>
      <point x="76" y="320" type="line"/>
      <point x="333" y="320" type="line"/>
      <point x="333" y="460" type="line"/>
      <point x="76" y="460" type="line"/>
    </contour>
    <contour>
      <point x="40" y="0" type="line"/>
      <point x="188" y="0" type="line"/>
      <point x="188" y="460" type="line"/>
      <point x="40" y="460" type="line"/>
    </contour>
    <contour>
      <point x="235" y="0" type="line"/>
      <point x="383" y="0" type="line"/>
      <point x="383" y="460" type="line"/>
      <point x="235" y="460" type="line"/>
    </contour>
  </outline>
</glyph>
<glyph name="uni0442" format="2">
  <advance width="327"/>
  <unicode hex="0442"/>
  <outline>
    <contour>
      <point x="94" y="0" type="line"/>
      <point x="243" y="0" type="line"/>
      <point x="243" y="407" type="line"/>
      <point x="94" y="407" type="line"/>
    </contour>
    <contour>
      <point x="20" y="304" type="line"/>
      <point x="317" y="304" type="line"/>
      <point x="317" y="460" type="line"/>
      <point x="20" y="460" type="line"/>
    </contour>
  </outline>
</glyph>
<glyph name="uni0444" format="2">
  <advance width="645"/>
  <unicode hex="0444"/>
  <outline>
    <contour>
      <point x="247" y="-200" type="line"/>
      <point x="399" y="-200" type="line"/>
      <point x="399" y="24" type="line"/>
      <point x="393" y="99" type="line"/>
      <point x="393" y="358" type="line"/>
      <point x="399" y="438" type="line"/>
      <point x="399" y="700" type="line"/>
      <point x="247" y="700" type="line"/>
      <point x="247" y="438" type="line"/>
      <point x="253" y="358" type="line"/>
      <point x="253" y="99" type="line"/>
      <point x="247" y="24" type="line"/>
    </contour>
    <contour>
      <point x="383" y="-16" type="line"/>
      <point x="519" y="-11"/>
      <point x="615" y="70"/>
      <point x="615" y="230" type="curve" smooth="yes"/>
      <point x="615" y="390"/>
      <point x="519" y="471"/>
      <point x="383" y="476" type="curve"/>
      <point x="383" y="326" type="line"/>
      <point x="435" y="324"/>
      <point x="464" y="296"/>
      <point x="464" y="230" type="curve" smooth="yes"/>
      <point x="464" y="163"/>
      <point x="436" y="136"/>
      <point x="383" y="134" type="curve"/>
    </contour>
    <contour>
      <point x="30" y="230" type="curve" smooth="yes"/>
      <point x="30" y="72"/>
      <point x="126" y="-11"/>
      <point x="262" y="-16" type="curve"/>
      <point x="262" y="134" type="line"/>
      <point x="212" y="136"/>
      <point x="182" y="164"/>
      <point x="182" y="230" type="curve" smooth="yes"/>
      <point x="182" y="295"/>
      <point x="212" y="324"/>
      <point x="262" y="326" type="curve"/>
      <point x="262" y="476" type="line"/>
      <point x="126" y="471"/>
      <point x="30" y="389"/>
    </contour>
  </outline>
</glyph>
<glyph name="uni0446" format="2">
  <advance width="489"/>
  <unicode hex="0446"/>
  <outline>
    <contour>
      <point x="40" y="0" type="line"/>
      <point x="188" y="0" type="line"/>
      <point x="188" y="460" type="line"/>
      <point x="40" y="460" type="line"/>
    </contour>
    <contour>
      <point x="251" y="0" type="line"/>
      <point x="399" y="0" type="line"/>
      <point x="399" y="460" type="line"/>
      <point x="251" y="460" type="line"/>
    </contour>
    <contour>
      <point x="106" y="0" type="line"/>
      <point x="284" y="0" type="line"/>
      <point x="284" y="140" type="line"/>
      <point x="106" y="140" type="line"/>
    </contour>
    <contour>
      <point x="305" y="0" type="line"/>
      <point x="330" y="0" type="line"/>
      <point x="338" y="-140" type="line"/>
      <point x="459" y="-140" type="line"/>
      <point x="459" y="140" type="line"/>
      <point x="305" y="140" type="line"/>
    </contour>
  </outline>
</glyph>
<glyph name="uni0447" format="2">
  <advance width="439"/>
  <unicode hex="0447"/>
  <outline>
    <contour>
      <point x="40" y="316" type="line" smooth="yes"/>
      <point x="40" y="205"/>
      <point x="70" y="140"/>
      <point x="170" y="140" type="curve" smooth="yes"/>
      <point x="214" y="140"/>
      <point x="255" y="152"/>
      <point x="299" y="179" type="curve"/>
      <point x="299" y="301" type="line"/>
      <point x="272" y="280"/>
      <point x="253" y="271"/>
      <point x="224" y="271" type="curve" smooth="yes"/>
      <point x="199" y="271"/>
      <point x="188" y="298"/>
      <point x="188" y="349" type="curve" smooth="yes"/>
      <point x="188" y="460" type="line"/>
      <point x="40" y="460" type="line"/>
    </contour>
    <contour>
      <point x="251" y="0" type="line"/>
      <point x="399" y="0" type="line"/>
      <point x="399" y="460" type="line"/>
      <point x="251" y="460" type="line"/>
    </contour>
  </outline>
</glyph>
<glyph name="uni0448" format="2">
  <advance width="620"/>
  <unicode hex="0448"/>
  <outline>
    <contour>
      <point x="41" y="0" type="line"/>
      <point x="190" y="0" type="line"/>
      <point x="190" y="460" type="line"/>
      <point x="41" y="460" type="line"/>
    </contour>
    <contour>
      <point x="40" y="0" type="line"/>
      <point x="517" y="0" type="line"/>
      <point x="517" y="158" type="line"/>
      <point x="40" y="158" type="line"/>
    </contour>
    <contour>
      <point x="238" y="0" type="line"/>
      <point x="386" y="0" type="line"/>
      <point x="386" y="460" type="line"/>
      <point x="238" y="460" type="line"/>
    </contour>
    <contour>
      <point x="431" y="0" type="line"/>
      <point x="580" y="0" type="line"/>
      <point x="580" y="460" type="line"/>
      <point x="431" y="460" type="line"/>
    </contour>
  </outline>
</glyph>
<glyph name="uni0449" format="2">
  <advance width="664"/>
  <unicode hex="0449"/>
  <outline>
    <contour>
      <point x="604" y="0" type="line"/>
      <point x="552" y="0" type="line"/>
      <point x="552" y="-140" type="line"/>
      <point x="684" y="-140" type="line"/>
      <point x="684" y="140" type="line"/>
      <point x="604" y="140" type="line"/>
    </contour>
    <contour>
      <point x="40" y="0" type="line"/>
      <point x="188" y="0" type="line"/>
      <point x="188" y="460" type="line"/>
      <point x="40" y="460" type="line"/>
    </contour>
    <contour>
      <point x="89" y="0" type="line"/>
      <point x="540" y="0" type="line"/>
      <point x="540" y="140" type="line"/>
      <point x="89" y="140" type="line"/>
    </contour>
    <contour>
      <point x="248" y="0" type="line"/>
      <point x="396" y="0" type="line"/>
      <point x="396" y="460" type="line"/>
      <point x="248" y="460" type="line"/>
    </contour>
    <contour>
      <point x="456" y="0" type="line"/>
      <point x="604" y="0" type="line"/>
      <point x="604" y="460" type="line"/>
      <point x="456" y="460" type="line"/>
    </contour>
  </outline>
</glyph>
<glyph name="uni044A" format="2">
  <advance width="452"/>
  <unicode hex="044A"/>
  <outline>
    <contour>
      <point x="22" y="320" type="line"/>
      <point x="166" y="320" type="line"/>
      <point x="166" y="460" type="line"/>
      <point x="22" y="460" type="line"/>
    </contour>
    <contour>
      <point x="84" y="0" type="line"/>
      <point x="232" y="0" type="line"/>
      <point x="232" y="460" type="line"/>
      <point x="84" y="460" type="line"/>
    </contour>
    <contour>
      <point x="150" y="0" type="line"/>
      <point x="279" y="0" type="line" smooth="yes"/>
      <point x="394" y="0"/>
      <point x="422" y="95"/>
      <point x="422" y="170" type="curve" smooth="yes"/>
      <point x="422" y="245"/>
      <point x="394" y="341"/>
      <point x="279" y="341" type="curve" smooth="yes"/>
      <point x="150" y="341" type="line"/>
      <point x="150" y="215" type="line"/>
      <point x="236" y="215" type="line" smooth="yes"/>
      <point x="256" y="215"/>
      <point x="271" y="194"/>
      <point x="271" y="170" type="curve" smooth="yes"/>
      <point x="271" y="145"/>
      <point x="255" y="126"/>
      <point x="236" y="126" type="curve" smooth="yes"/>
      <point x="150" y="126" type="line"/>
    </contour>
  </outline>
</glyph>
<glyph name="uni044B" format="2">
  <advance width="595"/>
  <unicode hex="044B"/>
  <anchor x="295" y="540" name="top"/>
  <outline>
    <contour>
      <point x="40" y="0" type="line"/>
      <point x="188" y="0" type="line"/>
      <point x="188" y="460" type="line"/>
      <point x="40" y="460" type="line"/>
    </contour>
    <contour>
      <point x="106" y="0" type="line"/>
      <point x="230" y="0" type="line" smooth="yes"/>
      <point x="341" y="0"/>
      <point x="368" y="95"/>
      <point x="368" y="170" type="curve" smooth="yes"/>
      <point x="368" y="245"/>
      <point x="341" y="341"/>
      <point x="230" y="341" type="curve" smooth="yes"/>
      <point x="106" y="341" type="line"/>
      <point x="106" y="215" type="line"/>
      <point x="192" y="215" type="line" smooth="yes"/>
      <point x="209" y="215"/>
      <point x="220" y="197"/>
      <point x="220" y="170" type="curve" smooth="yes"/>
      <point x="220" y="144"/>
      <point x="209" y="126"/>
      <point x="192" y="126" type="curve" smooth="yes"/>
      <point x="106" y="126" type="line"/>
    </contour>
    <contour>
      <point x="407" y="0" type="line"/>
      <point x="555" y="0" type="line"/>
      <point x="555" y="460" type="line"/>
      <point x="407" y="460" type="line"/>
    </contour>
  </outline>
</glyph>
<glyph name="uni044C" format="2">
  <advance width="406"/>
  <unicode hex="044C"/>
  <outline>
    <contour>
      <point x="40" y="0" type="line"/>
      <point x="188" y="0" type="line"/>
      <point x="188" y="460" type="line"/>
      <point x="40" y="460" type="line"/>
    </contour>
    <contour>
      <point x="106" y="0" type="line"/>
      <point x="236" y="0" type="line" smooth="yes"/>
      <point x="320" y="0"/>
      <point x="376" y="68"/>
      <point x="376" y="170" type="curve" smooth="yes"/>
      <point x="376" y="273"/>
      <point x="320" y="341"/>
      <point x="236" y="341" type="curve" smooth="yes"/>
      <point x="106" y="341" type="line"/>
      <point x="106" y="215" type="line"/>
      <point x="193" y="215" type="line" smooth="yes"/>
      <point x="212" y="215"/>
      <point x="228" y="195"/>
      <point x="228" y="170" type="curve" smooth="yes"/>
      <point x="228" y="146"/>
      <point x="212" y="126"/>
      <point x="193" y="126" type="curve" smooth="yes"/>
      <point x="106" y="126" type="line"/>
    </contour>
  </outline>
</glyph>
<glyph name="uni044D" format="2">
  <advance width="402"/>
  <unicode hex="044D"/>
  <anchor x="196" y="540" name="top"/>
  <outline>
    <contour>
      <point x="30" y="171" type="line"/>
      <point x="38" y="59"/>
      <point x="104" y="-16"/>
      <point x="194" y="-16" type="curve" smooth="yes"/>
      <point x="301" y="-16"/>
      <point x="372" y="90"/>
      <point x="372" y="250" type="curve" smooth="yes"/>
      <point x="372" y="386"/>
      <point x="300" y="476"/>
      <point x="193" y="476" type="curve" smooth="yes"/>
      <point x="103" y="476"/>
      <point x="38" y="400"/>
      <point x="30" y="285" type="curve"/>
      <point x="162" y="285" type="line"/>
      <point x="164" y="313"/>
      <point x="179" y="328"/>
      <point x="191" y="328" type="curve" smooth="yes"/>
      <point x="208" y="328"/>
      <point x="220" y="313"/>
      <point x="220" y="230" type="curve" smooth="yes"/>
      <point x="220" y="147"/>
      <point x="207" y="132"/>
      <point x="188" y="132" type="curve" smooth="yes"/>
      <point x="175" y="132"/>
      <point x="164" y="149"/>
      <point x="163" y="171" type="curve"/>
    </contour>
    <contour>
      <point x="190" y="183" type="line"/>
      <point x="254" y="183" type="line"/>
      <point x="254" y="283" type="line"/>
      <point x="190" y="283" type="line"/>
    </contour>
  </outline>
  <guideline angle="0" x="0" y="120"/>
  <guideline angle="0" x="0" y="340"/>
</glyph>
<glyph name="uni044E" format="2">
  <advance width="591"/>
  <unicode hex="044E"/>
  <anchor x="321" y="540" name="top"/>
  <outline>
    <contour>
      <point x="40" y="0" type="line"/>
      <point x="188" y="0" type="line"/>
      <point x="188" y="160" type="line"/>
      <point x="241" y="160" type="line"/>
      <point x="241" y="300" type="line"/>
      <point x="188" y="300" type="line"/>
      <point x="188" y="460" type="line"/>
      <point x="40" y="460" type="line"/>
    </contour>
    <contour>
      <point x="207" y="231" type="curve" smooth="yes"/>
      <point x="207" y="82"/>
      <point x="276" y="-16"/>
      <point x="380" y="-16" type="curve" smooth="yes"/>
      <point x="486" y="-16"/>
      <point x="561" y="85"/>
      <point x="561" y="230" type="curve" smooth="yes"/>
      <point x="561" y="378"/>
      <point x="489" y="476"/>
      <point x="380" y="476" type="curve" smooth="yes"/>
      <point x="277" y="476"/>
      <point x="207" y="376"/>
    </contour>
    <contour>
      <point x="358" y="230" type="curve" smooth="yes"/>
      <point x="358" y="285"/>
      <point x="367" y="316"/>
      <point x="383" y="316" type="curve" smooth="yes"/>
      <point x="399" y="316"/>
      <point x="409" y="283"/>
      <point x="409" y="230" type="curve" smooth="yes"/>
      <point x="409" y="177"/>
      <point x="399" y="144"/>
      <point x="383" y="144" type="curve" smooth="yes"/>
      <point x="367" y="144"/>
      <point x="358" y="175"/>
    </contour>
  </outline>
</glyph>
<glyph name="uni044F" format="2">
  <advance width="409"/>
  <unicode hex="044F"/>
  <outline>
    <contour>
      <point x="22" y="308" type="curve" smooth="yes"/>
      <point x="22" y="205"/>
      <point x="90" y="136"/>
      <point x="156" y="136" type="curve" smooth="yes"/>
      <point x="273" y="136" type="line"/>
      <point x="273" y="276" type="line"/>
      <point x="197" y="276" type="line" smooth="yes"/>
      <point x="181" y="276"/>
      <point x="174" y="284"/>
      <point x="174" y="299" type="curve" smooth="yes"/>
      <point x="174" y="316"/>
      <point x="181" y="320"/>
      <point x="197" y="320" type="curve" smooth="yes"/>
      <point x="273" y="320" type="line"/>
      <point x="273" y="460" type="line"/>
      <point x="155" y="460" type="line" smooth="yes"/>
      <point x="96" y="460"/>
      <point x="22" y="416"/>
    </contour>
    <contour>
      <point x="23" y="0" type="line"/>
      <point x="173" y="0" type="line"/>
      <point x="217" y="165" type="line"/>
      <point x="81" y="203" type="line"/>
    </contour>
    <contour>
      <point x="221" y="0" type="line"/>
      <point x="369" y="0" type="line"/>
      <point x="369" y="460" type="line"/>
      <point x="221" y="460" type="line"/>
    </contour>
  </outline>
</glyph>
<glyph name="uni0452" format="2">
  <advance width="464"/>
  <unicode hex="0452"/>
  <anchor x="328" y="520" name="top"/>
  <outline>
    <component base="uni045B"/>
    <contour>
      <point x="74" y="-29" type="line"/>
      <point x="74" y="-135"/>
      <point x="136" y="-200"/>
      <point x="238" y="-200" type="curve" smooth="yes"/>
      <point x="322" y="-200"/>
      <point x="424" y="-151"/>
      <point x="424" y="-52" type="curve" smooth="yes"/>
      <point x="424" y="50" type="line"/>
      <point x="276" y="50" type="line"/>
      <point x="276" y="-20" type="line" smooth="yes"/>
      <point x="276" y="-52"/>
      <point x="267" y="-64"/>
      <point x="242" y="-64" type="curve" smooth="yes"/>
      <point x="219" y="-64"/>
      <point x="210" y="-50"/>
      <point x="210" y="-29" type="curve"/>
    </contour>
  </outline>
</glyph>
<glyph name="uni0454" format="2">
  <advance width="495"/>
  <unicode hex="0454"/>
  <outline>
    <contour>
      <point x="30" y="230" type="curve" smooth="yes"/>
      <point x="30" y="77"/>
      <point x="118" y="-16"/>
      <point x="265" y="-16" type="curve"/>
      <point x="265" y="140" type="line"/>
      <point x="227" y="140"/>
      <point x="210" y="168"/>
      <point x="210" y="230" type="curve" smooth="yes"/>
      <point x="210" y="294"/>
      <point x="226" y="320"/>
      <point x="265" y="320" type="curve"/>
      <point x="265" y="476" type="line"/>
      <point x="121" y="476"/>
      <point x="30" y="382"/>
    </contour>
    <contour>
      <point x="105" y="161" type="line"/>
      <point x="273" y="161" type="line"/>
      <point x="273" y="297" type="line"/>
      <point x="105" y="297" type="line"/>
    </contour>
    <contour>
      <point x="265" y="-16" type="line"/>
      <point x="381" y="-16"/>
      <point x="465" y="69"/>
      <point x="465" y="185" type="curve"/>
      <point x="305" y="185" type="line"/>
      <point x="305" y="165"/>
      <point x="286" y="140"/>
      <point x="265" y="140" type="curve"/>
    </contour>
    <contour>
      <point x="265" y="320" type="line"/>
      <point x="291" y="320"/>
      <point x="305" y="305"/>
      <point x="305" y="285" type="curve"/>
      <point x="465" y="285" type="line"/>
      <point x="465" y="400"/>
      <point x="385" y="476"/>
      <point x="265" y="476" type="curve"/>
    </contour>
  </outline>
</glyph>
<glyph name="uni045F" format="2">
  <advance width="440"/>
  <unicode hex="045F"/>
  <outline>
    <contour>
      <point x="40" y="0" type="line"/>
      <point x="188" y="0" type="line"/>
      <point x="188" y="460" type="line"/>
      <point x="40" y="460" type="line"/>
    </contour>
    <contour>
      <point x="252" y="0" type="line"/>
      <point x="400" y="0" type="line"/>
      <point x="400" y="460" type="line"/>
      <point x="252" y="460" type="line"/>
    </contour>
    <contour>
      <point x="106" y="0" type="line"/>
      <point x="318" y="0" type="line"/>
      <point x="318" y="140" type="line"/>
      <point x="106" y="140" type="line"/>
    </contour>
    <contour>
      <point x="146" y="140" type="line"/>
      <point x="146" y="-140" type="line"/>
      <point x="294" y="-140" type="line"/>
      <point x="294" y="140" type="line"/>
    </contour>
  </outline>
  <guideline angle="90" x="212" y="0"/>
</glyph>
<glyph name="uni0462" format="2">
  <advance width="475"/>
  <unicode hex="0462"/>
  <outline>
    <component base="uni042C" xOffset="10"/>
    <contour>
      <point x="0" y="490" type="line"/>
      <point x="310" y="490" type="line"/>
      <point x="310" y="640" type="line"/>
      <point x="0" y="640" type="line"/>
    </contour>
  </outline>
</glyph>
<glyph name="uni0467" format="2">
  <advance width="509"/>
  <unicode hex="0467"/>
  <anchor x="255" y="740" name="top"/>
  <anchor x="255" y="-40" name="bottom"/>
  <outline>
    <contour>
      <point x="133" y="100" type="line"/>
      <point x="401" y="100" type="line"/>
      <point x="401" y="190" type="line"/>
      <point x="133" y="190" type="line"/>
    </contour>
    <contour>
      <point x="10" y="0" type="line"/>
      <point x="162" y="0" type="line"/>
      <point x="241" y="240" type="line" smooth="yes"/>
      <point x="246" y="256"/>
      <point x="253" y="281"/>
      <point x="254" y="287" type="curve"/>
      <point x="250" y="285" type="line"/>
      <point x="260" y="285" type="line"/>
      <point x="256" y="287" type="line"/>
      <point x="257" y="281"/>
      <point x="262" y="257"/>
      <point x="268" y="240" type="curve" smooth="yes"/>
      <point x="348" y="0" type="line"/>
      <point x="499" y="0" type="line"/>
      <point x="342" y="460" type="line"/>
      <point x="166" y="460" type="line"/>
    </contour>
    <contour>
      <point x="206" y="0" type="line"/>
      <point x="304" y="0" type="line"/>
      <point x="304" y="125" type="line"/>
      <point x="206" y="125" type="line"/>
    </contour>
  </outline>
</glyph>
<glyph name="uni0468" format="2">
  <advance width="734"/>
  <unicode hex="0468"/>
  <outline>
    <contour>
      <point x="50" y="0" type="line"/>
      <point x="208" y="0" type="line"/>
      <point x="208" y="680" type="line"/>
      <point x="50" y="680" type="line"/>
    </contour>
    <contour>
      <point x="108" y="130" type="line"/>
      <point x="330" y="130" type="line"/>
      <point x="330" y="280" type="line"/>
      <point x="108" y="280" type="line"/>
    </contour>
    <contour>
      <point x="358" y="130" type="line"/>
      <point x="626" y="130" type="line"/>
      <point x="626" y="280" type="line"/>
      <point x="358" y="280" type="line"/>
    </contour>
    <contour>
      <point x="235" y="0" type="line"/>
      <point x="387" y="0" type="line"/>
      <point x="466" y="345" type="line" smooth="yes"/>
      <point x="472" y="369"/>
      <point x="476" y="399"/>
      <point x="479" y="431" type="curve"/>
      <point x="475" y="429" type="line"/>
      <point x="485" y="429" type="line"/>
      <point x="481" y="431" type="line"/>
      <point x="484" y="399"/>
      <point x="487" y="369"/>
      <point x="493" y="345" type="curve" smooth="yes"/>
      <point x="573" y="0" type="line"/>
      <point x="724" y="0" type="line"/>
      <point x="567" y="680" type="line"/>
      <point x="391" y="680" type="line"/>
    </contour>
    <contour>
      <point x="431" y="0" type="line"/>
      <point x="529" y="0" type="line"/>
      <point x="529" y="155" type="line"/>
      <point x="431" y="155" type="line"/>
    </contour>
  </outline>
</glyph>
<glyph name="uni0469" format="2">
  <advance width="709"/>
  <unicode hex="0469"/>
  <outline>
    <contour>
      <point x="40" y="0" type="line"/>
      <point x="188" y="0" type="line"/>
      <point x="188" y="460" type="line"/>
      <point x="40" y="460" type="line"/>
    </contour>
    <contour>
      <point x="95" y="100" type="line"/>
      <point x="307" y="100" type="line"/>
      <point x="307" y="190" type="line"/>
      <point x="95" y="190" type="line"/>
    </contour>
    <contour>
      <point x="333" y="100" type="line"/>
      <point x="601" y="100" type="line"/>
      <point x="601" y="190" type="line"/>
      <point x="333" y="190" type="line"/>
    </contour>
    <contour>
      <point x="210" y="0" type="line"/>
      <point x="362" y="0" type="line"/>
      <point x="441" y="240" type="line" smooth="yes"/>
      <point x="446" y="256"/>
      <point x="453" y="281"/>
      <point x="454" y="287" type="curve"/>
      <point x="450" y="285" type="line"/>
      <point x="460" y="285" type="line"/>
      <point x="456" y="287" type="line"/>
      <point x="457" y="281"/>
      <point x="462" y="257"/>
      <point x="468" y="240" type="curve" smooth="yes"/>
      <point x="548" y="0" type="line"/>
      <point x="699" y="0" type="line"/>
      <point x="542" y="460" type="line"/>
      <point x="366" y="460" type="line"/>
    </contour>
    <contour>
      <point x="406" y="0" type="line"/>
      <point x="504" y="0" type="line"/>
      <point x="504" y="125" type="line"/>
      <point x="406" y="125" type="line"/>
    </contour>
  </outline>
</glyph>
<glyph name="uni046A" format="2">
  <advance width="878"/>
  <unicode hex="046A"/>
  <outline>
    <contour>
      <point x="360" y="0" type="line"/>
      <point x="518" y="0" type="line"/>
      <point x="518" y="367" type="line"/>
      <point x="360" y="367" type="line"/>
    </contour>
    <contour>
      <point x="418" y="217" type="line"/>
      <point x="518" y="217" type="line"/>
      <point x="761" y="524" type="line"/>
      <point x="761" y="680" type="line"/>
      <point x="566" y="680" type="line"/>
      <point x="566" y="536" type="line"/>
      <point x="433" y="350" type="line"/>
      <point x="470" y="367" type="line"/>
      <point x="418" y="367" type="line"/>
    </contour>
    <contour>
      <point x="438" y="283" type="line"/>
      <point x="573" y="205"/>
      <point x="681" y="92"/>
      <point x="710" y="0" type="curve"/>
      <point x="868" y="0" type="line"/>
      <point x="823" y="149"/>
      <point x="693" y="289"/>
      <point x="545" y="379" type="curve"/>
    </contour>
    <contour>
      <point x="360" y="217" type="line"/>
      <point x="460" y="217" type="line"/>
      <point x="460" y="367" type="line"/>
      <point x="408" y="367" type="line"/>
      <point x="445" y="350" type="line"/>
      <point x="312" y="536" type="line"/>
      <point x="312" y="680" type="line"/>
      <point x="116" y="680" type="line"/>
      <point x="116" y="524" type="line"/>
    </contour>
    <contour>
      <point x="10" y="0" type="curve"/>
      <point x="168" y="0" type="line"/>
      <point x="197" y="92"/>
      <point x="305" y="205"/>
      <point x="440" y="283" type="curve"/>
      <point x="333" y="379" type="line"/>
      <point x="185" y="289"/>
      <point x="55" y="149"/>
    </contour>
    <contour>
      <point x="151" y="536" type="line"/>
      <point x="725" y="536" type="line"/>
      <point x="725" y="680" type="line"/>
      <point x="151" y="680" type="line"/>
    </contour>
  </outline>
  <guideline angle="90" x="93" y="0"/>
  <guideline angle="90" x="82" y="0"/>
  <guideline angle="0" x="0" y="536"/>
  <guideline angle="90" x="360" y="0"/>
  <guideline angle="90" x="683" y="0"/>
  <guideline angle="90" x="704" y="0"/>
  <guideline angle="90" x="360" y="0"/>
  <guideline angle="90" x="518" y="0"/>
  <guideline angle="90" x="469" y="0"/>
</glyph>
<glyph name="uni046B" format="2">
  <advance width="648"/>
  <unicode hex="046B"/>
  <outline>
    <contour>
      <point x="250" y="0" type="line"/>
      <point x="398" y="0" type="line"/>
      <point x="398" y="248" type="line"/>
      <point x="250" y="248" type="line"/>
    </contour>
    <contour>
      <point x="328" y="138" type="line"/>
      <point x="396" y="138" type="line"/>
      <point x="576" y="304" type="line"/>
      <point x="576" y="460" type="line"/>
      <point x="404" y="460" type="line"/>
      <point x="404" y="320" type="line"/>
      <point x="309" y="241" type="line"/>
      <point x="354" y="248" type="line"/>
      <point x="328" y="248" type="line"/>
    </contour>
    <contour>
      <point x="304" y="168" type="line"/>
      <point x="395" y="137"/>
      <point x="462" y="61"/>
      <point x="490" y="0" type="curve"/>
      <point x="638" y="0" type="line"/>
      <point x="604" y="98"/>
      <point x="540" y="192"/>
      <point x="419" y="238" type="curve"/>
    </contour>
    <contour>
      <point x="252" y="138" type="line"/>
      <point x="320" y="138" type="line"/>
      <point x="320" y="248" type="line"/>
      <point x="294" y="248" type="line"/>
      <point x="339" y="241" type="line"/>
      <point x="247" y="320" type="line"/>
      <point x="247" y="460" type="line"/>
      <point x="72" y="460" type="line"/>
      <point x="72" y="304" type="line"/>
    </contour>
    <contour>
      <point x="10" y="0" type="curve"/>
      <point x="158" y="0" type="line"/>
      <point x="186" y="61"/>
      <point x="250" y="140"/>
      <point x="344" y="168" type="curve"/>
      <point x="229" y="238" type="line"/>
      <point x="107" y="192"/>
      <point x="44" y="98"/>
    </contour>
    <contour>
      <point x="117" y="320" type="line"/>
      <point x="534" y="320" type="line"/>
      <point x="534" y="460" type="line"/>
      <point x="117" y="460" type="line"/>
    </contour>
  </outline>
  <guideline angle="0" x="0" y="253"/>
  <guideline angle="0" x="0" y="204"/>
</glyph>
